<?xml version="1.0" encoding="utf-8"?>
<!-- Generator: Adobe Illustrator 21.0.0, SVG Export Plug-In . SVG Version: 6.00 Build 0)  -->
<svg version="1.1" id="Layer_1" xmlns="http://www.w3.org/2000/svg" xmlns:xlink="http://www.w3.org/1999/xlink" x="0px" y="0px"
	 viewBox="0 0 1000 301.524" enable-background="new 0 0 1000 301.524" xml:space="preserve">
<g>
	<radialGradient id="SVGID_1_" cx="126.575" cy="150.5207" r="139.0646" gradientUnits="userSpaceOnUse">
		<stop  offset="0" style="stop-color:#F8861F"/>
		<stop  offset="1" style="stop-color:#FF1800"/>
	</radialGradient>
	<path fill="url(#SVGID_1_)" d="M204.416,54.199c2.863-5.218,4.493-11.203,4.493-17.564c0-20.201-16.435-36.636-36.633-36.636
		c-17.171,0-31.621,11.873-35.571,27.84c-3.342-0.265-6.721-0.404-10.13-0.404C56.67,27.436,0,84.106,0,154.011
		c0,34.39,13.72,65.57,35.978,88.38c-4.623,6.133-7.367,13.757-7.367,22.012c0,20.203,16.438,36.639,36.642,36.639
		c15.529,0,28.833-9.717,34.151-23.39c8.753,1.915,17.843,2.934,27.171,2.934c69.905,0,126.575-56.67,126.575-126.575
		C253.15,113.46,234.077,77.366,204.416,54.199z M172.27,59.126c-1.962,0-3.867-0.254-5.682-0.726l-15.166,44.121l22.201-3.624
		l-31.26,50.962l26.016-6.326L80.715,248.096c4.314,4.098,7.013,9.887,7.013,16.307c0,12.417-10.066,22.488-22.481,22.488
		c-12.421,0-22.493-10.072-22.493-22.488c0-12.419,10.072-22.485,22.493-22.485c2.863,0,5.599,0.541,8.118,1.518l24.833-54.167
		l-24.23,6.567l39.407-56.398l-24.221,5.86l68.672-91.426c-4.917-4.125-8.049-10.316-8.049-17.236
		c0-12.415,10.072-22.485,22.493-22.485c12.412,0,22.481,10.07,22.481,22.485C194.751,49.055,184.682,59.126,172.27,59.126z"/>
	<g>
		<path d="M323.586,60.997h51.447c19.907,0.141,34.836,8.676,44.789,25.611c3.561,5.694,5.812,11.662,6.753,17.91
			c0.739,6.248,1.108,17.041,1.108,32.38c0,16.311-0.571,27.694-1.714,34.15c-0.54,3.261-1.348,6.179-2.421,8.746
			c-1.146,2.498-2.522,5.102-4.138,7.809c-4.303,7.147-10.288,13.049-17.953,17.699c-7.599,4.997-16.914,7.495-27.941,7.495h-49.929
			V60.997z M345.845,191.152h26.66c12.519,0,21.604-4.418,27.263-13.252c2.491-3.268,4.072-7.408,4.742-12.415
			c0.606-4.941,0.912-14.189,0.912-27.754c0-13.215-0.306-22.673-0.912-28.38c-0.805-5.702-2.724-10.326-5.752-13.875
			c-6.196-8.834-14.949-13.111-26.253-12.833h-26.66V191.152z"/>
		<path d="M525.506,201.515c-6.918,8.081-15.919,12.254-27.006,12.534c-6.782-0.142-12.424-1.635-16.923-4.482
			c-4.707-2.708-8.297-5.625-10.785-8.753c-2.756-3.541-4.736-7.884-5.945-13.022c-1.278-5.072-1.913-14.724-1.913-28.966
			c0-14.517,0.635-24.344,1.913-29.486c1.209-5.067,3.189-9.342,5.945-12.812c2.488-3.384,6.078-6.421,10.785-9.118
			c4.499-2.551,10.141-3.899,16.923-4.036c10.412,0,19.416,4.267,27.006,12.805v-11.453h21.009v105.468
			c-0.268,16.242-4.799,28.181-13.593,35.817c-8.862,7.842-19.471,11.764-31.825,11.764c-14.164-0.277-26.25-6.303-36.253-18.078
			l16.325-13.405c2.687,2.584,5.775,4.778,9.267,6.594c3.564,2.023,7.255,3.104,11.087,3.244c7.183,0,12.966-2.058,17.33-6.17
			c4.3-4.184,6.516-9.972,6.652-17.361V201.515z M483.946,158.865c0,8.29,0.268,14.001,0.808,17.134
			c0.467,3.273,1.579,5.99,3.327,8.15c1.411,1.95,3.564,3.726,6.456,5.327c2.753,1.951,6.187,2.926,10.288,2.926
			c4.104,0,7.532-0.975,10.291-2.926c2.756-1.602,4.84-3.378,6.257-5.327c1.743-2.16,2.924-4.877,3.53-8.15
			c0.404-3.133,0.603-8.844,0.603-17.134c0-8.427-0.199-14.276-0.603-17.549c-0.606-3.273-1.786-5.919-3.53-7.939
			c-1.417-1.951-3.5-3.867-6.257-5.747c-2.759-1.6-6.187-2.472-10.291-2.61c-4.101,0.139-7.535,1.01-10.288,2.61
			c-2.892,1.88-5.045,3.796-6.456,5.747c-1.749,2.02-2.86,4.666-3.327,7.939C484.214,144.588,483.946,150.438,483.946,158.865z"/>
		<path d="M588.017,104.725h21.012v11.453h0.439c6.929-8.538,16.005-12.805,27.237-12.805c8.409,0.137,15.742,2.905,21.996,8.298
			l-15.347,18.774c-4.442-3.617-9.053-5.427-13.829-5.427c-5.385,0-9.997,1.806-13.832,5.421c-4.306,3.544-6.531,9.278-6.664,17.201
			v65.154h-21.012V104.725z"/>
		<path d="M732.778,203.224h-0.404c-1.948,3.676-4.972,6.383-9.068,8.118c-4.034,1.802-9.613,2.707-16.732,2.707
			c-11.696-0.142-20.701-3.332-27.015-9.579c-6.655-6.107-9.979-13.913-9.979-23.425c0-9.088,2.892-16.62,8.666-22.589
			c5.78-6.107,14.245-9.227,25.402-9.369h29.13v-11.404c0.139-9.554-7.021-14.191-21.479-13.913c-5.244,0-9.376,0.557-12.404,1.674
			c-3.16,1.323-5.648,3.557-7.457,6.695l-16.542-13.03c7.994-10.767,19.783-16.014,35.367-15.737
			c13.165-0.14,23.676,2.429,31.537,7.702c7.861,5.416,11.855,14.717,11.991,27.904v73.817h-21.012V203.224z M732.778,166.977
			h-25.251c-12.262,0.279-18.323,4.617-18.184,13.024c0,3.679,1.581,6.805,4.747,9.376c3.033,2.848,8.049,4.273,15.05,4.273
			c8.822,0.14,15.05-0.938,18.689-3.228c3.302-2.294,4.949-7.5,4.949-15.628V166.977z"/>
		<path d="M795.079,104.725h21.012v11.243c6.99-8.049,15.994-12.251,27.015-12.595c12.834,0.345,22.207,5.067,28.117,14.161
			c2.883,3.4,4.86,7.874,5.934,13.426c1.004,5.486,1.506,14.786,1.506,27.904c0,12.773-0.505,21.934-1.509,27.487
			c-1.077,5.554-3.056,10.099-5.942,13.64c-2.892,4.161-6.689,7.495-11.391,9.994c-4.635,2.57-10.207,3.922-16.726,4.063
			c-5.374,0-10.176-1.212-14.409-3.628c-4.568-2.208-8.764-5.248-12.594-9.115v55.22h-21.012V104.725z M836.771,192.402
			c4.975,0,8.909-0.975,11.803-2.926c2.892-2.02,4.941-4.594,6.156-7.731c1.339-3.273,2.248-6.894,2.721-10.865
			c0.133-3.899,0.202-7.904,0.202-12.014c0-4.316-0.069-8.531-0.202-12.64c-0.473-4.108-1.382-7.73-2.721-10.864
			c-1.215-3.273-3.264-5.851-6.156-7.731c-2.895-1.74-6.828-2.61-11.803-2.61c-4.707,0-8.441,1.01-11.197,3.029
			c-2.895,2.02-5.013,4.665-6.355,7.94c-1.278,3.273-2.118,6.825-2.522,10.655c-0.404,4.043-0.606,8.115-0.606,12.222
			c0,3.834,0.202,7.662,0.606,11.496c0.404,4.036,1.244,7.692,2.522,10.965c1.342,3.275,3.46,5.919,6.355,7.939
			C828.33,191.354,832.065,192.402,836.771,192.402z"/>
		<path d="M916.416,60.997h21.012v55.181h0.404c6.917-8.538,15.988-12.805,27.205-12.805c8.664,0,16.591,3.158,23.777,9.473
			c7.122,6.388,10.848,15.757,11.186,28.11v71.84h-21.009v-64.425c0-7.575-1.954-13.344-5.855-17.307
			c-3.833-4.032-8.773-6.046-14.828-6.046c-6.052,0-11.027,2.014-14.926,6.046c-3.971,3.962-5.953,9.731-5.953,17.307v64.425
			h-21.012V60.997z"/>
	</g>
</g>
</svg>
