<svg xmlns="http://www.w3.org/2000/svg" fill-rule="evenodd" viewBox="0 0 2040 2040">
  <path fill="#fff" d="M389.38 217.98C562.8 81.45 781.63 0 1019.48 0c563.03 0 1019.46 456.43 1019.46 1019.47S1582.5 2038.94 1019.47 2038.94 0 1582.5 0 1019.47c0-184.3 48.9-357.2 134.46-506.4-43.1-14.6-75.87-52.02-83.77-95.75-4.8-26.5-.6-53.52 11.6-77.2-39.6-37.44-44.4-98.86-11.3-150.18 25.4-39.45 69.4-64.9 117.8-68.1 69-4.3 130.6 28.2 168.7 55.25l.5.4c17.6 12.9 34.7 26.4 51.3 40.4z"/>
  <path fill="#e94661" d="M1707.66 330.7c-184.32-184.3-429.4-285.82-690.05-285.82-218 0-425.1 71.08-594.9 202.22 4.4 4.1 8.8 8.22 13.2 12.38C602.1 131.88 804.5 62.7 1017.6 62.7c255.9 0 496.5 99.65 677.45 280.6 180.96 180.96 280.6 421.55 280.6 677.45 0 255.9-99.64 496.5-280.6 677.45-180.95 180.96-421.54 280.6-677.44 280.6-255.9 0-496.5-99.64-677.4-280.6-180.9-180.95-280.6-421.54-280.6-677.45 0-164.03 41-321.75 118.1-461.52-4-5.72-7.4-11.84-10.3-18.25-82 144.74-125.6 308.9-125.6 479.77 0 260.67 101.5 505.74 285.9 690.05 184.3 184.33 429.4 285.84 690.1 285.84 260.7 0 505.8-101.5 690.1-285.84 184.3-184.3 285.9-429.38 285.9-690.05 0-260.66-101.5-505.73-285.8-690.05h-.3zm-604.24 1381.87c1.4-29.2 2.5-59.92-9.65-85.86-17.73-37.8-64.03-64.9-103.42-67.4-39.95-2.5-86.34-22.7-125.54-4.1-15.1 7.2-28.5 17.2-40.9 29.1-12.4 11.9-19.8 28.6-26.7 44.9-18.4 43.5-36.1 88.6-39.3 136.1-3.1 47.5 10.6 98.6 45.3 127.5 24.5 20.3 56 27.5 86.4 33.4 40 7.8 81.7 14.4 121.2 3.2 39.6-11.1 76.8-44.4 82.2-88 5.6-45 8.4-83.3 10.6-128.5l-.1-.3zm314.45 115.74c-35.34 37.5-87.78 55.9-138.84 51-36.93-3.6-109.67-32.6-108.3-79.5.5-17.2 77.55-58.5 87.57-45.1 13.94 18.6 34 18.8 46.44 17.4 65.42-7.1 50.2-94.4 25.6-124.7-16.5-20.3-61-52.2-85.54-28-18.5 18.2-16.98 51.9-21.27 75.6-3.58 19.7-58.24 30.7-76.2 22.1-17.94-8.6-24.08-90.3.13-138.4 28.6-56.8 117.3-89.5 178.48-72 61.18 17.6 109.64 68.2 133.56 127.2 16.1 39.7 14.82 134.9-41.63 194.7v-.3zm-429.27-81.4c9.1-37.5-5.58-75.2-54.18-87-15.24-3.6-40.58 11-49.04 54.5-8.47 43.6 1.68 87.6 50.26 91.8 48.58 4.3 43.86-21.8 52.96-59.3zM658.3 1798c39.98-71.08 80.9-141.86 130.75-206.34 7.6-9.84 15.73-20.3 16.83-32.67 1.65-18.6-12.65-34.3-25.9-47.3-9.32-9.2-24.47-26.2-37.4-24.3-5.7.8-7.75 1.7-12.66 4.8-22.32 13.7-54.9 62-66.2 50.5-25.6-38.9 23.04-64.8 18.25-98.1-4.8-33.3-31.95-65.9-65.52-64.5-20.15.9-37.73 13.2-54 25.1l-210.8 154.1c-9.06 6.6-19.1 15.1-18.66 26.4.9 22.6 6.9 47.7 22.8 63.8 15.9 16.1 22.9 21.4 43.3 31.4 5.2 2.5 10.6 5.1 16.4 4.9 7.1-.2 13.4-4.4 19.3-8.5 38.1-26.5 76.9-67.3 115-93.8-.1 1.4 8.7 3.1 7.9 11.7-3.1 31.9-19.4 106.6-20.3 135.8-.3 7.1-.4 14.6 2.6 21 2.2 4.9 6.1 8.8 9.9 12.5 16 15.5 45.5 27.5 70.5 39.3 9.8 4.6 33.9.6 37.7-6.2l.2.4zm1143.73-412c-18.4-19.34-45.44-31.17-67-46.8-22.5-16.33-44.2-33.7-66.32-50.56-22.7-17.32-45.9-34.18-70.8-48.48-21.5-12.37-50.5-29.5-75.5-32.18-21-2.25-38.8 35.7-47.3 51.17-4.5 8.3-21.9 35.8-17.1 45.57.9 1.76 2.4 3.07 3.9 4.3 6.6 5.32 59.9 33.4 47.2 43.47-12.3 9.7-73 8.9-106 9 0 0-37.9 47.1-62 77.2-5.9 7.4-12.2 16-11.1 25.4l5.7 1.4c46.1 12.2 96.1-5.3 141.9-11.5 1.3-.2 2.8-.3 3.8.5.8.6 1.1 1.7 1.3 2.7 1.7 9.3-4.8 18-10.5 25.6-29 38.9-19.6 84.1 9.6 120.6 25 31.1 60.1 55.1 99.4 62 83.1 14.7 137.8-54.6 177-117.7 11.8-18.9 22.5-38.4 32.8-58.1 9.1-17.4 23.8-37.4 27.9-56.7 3.7-17-4.2-34.8-16.2-47.4l-.6.5zm-145.48 115l-14.66 24.56c-1.6 2.7-3.3 5.45-5.8 7.3-7 5.16-16.8 1.43-24.5-2.42-10.2-5.02-21.7-12.08-22.3-23.38-.3-5.5 2.2-10.68 4.7-15.58 11.7-23.17 24.3-45.96 37.5-68.33 21.3 4.9 36.5 12.1 48.2 30.6-13.2 33.7-23.3 47.26-23.3 47.26h.1zm239.5-530.08c16.44 19.73.83 204.43-24.3 309.52-3.66 15.27-3.25 30.53-11.54 44.48-2.6 4.42-5.9 8.28-11.5 8.28-3.4 0-6.8-1.25-10-2.5-21.8-8.3-43.7-16.7-63.3-29.35-7.3-4.72-14.6-10.75-16.5-19.66-2.1-9.9 3.5-19 5.2-28.5l9.3-50.7 8.8-47.9c1-5.2 11.7-45.7 8.8-47.9-6.2-4.8-16.8-.6-18.1 7.1.2-.5-4.8 27.6-4.6 27.1-10.5 25.8-14.9 53.7-20.7 80.8-3.8 17.5-8.5 54.3-33.3 52.6-7.4-.6-14.2-4.1-20.7-7.8-14.6-8.4-36.8-19.3-48.3-31.9-18.5-20.2 23.1-97.2 29.7-121.4 1.5-5.6 2.9-11.4 2.1-17.1-.9-5.7-4.6-11.4-10.2-12.8-5.6-1.4-7.4 1.9-8.8 7.6-6.7 27.1-12.5 55.7-25.2 80.9-20 39.7-53.4 28.6-84.8 1.9-3.7-3.2-7.2-6.8-8.8-11.4-2.2-6.6.2-13.8 2.6-20.4 22.8-62.6 41.5-176 68.4-187.8 26.9-11.8 60.5-8.7 94.2-12.6 31-3.5 62.2-7.1 93.4-5.7 11 .5 21.9 1.6 32.9 2.8 20.2 2.1 49.3 11.9 65.7 31.6l-.4.7zM1737 512.8h1.2c28 .8 54.7 19.9 64.4 46.2 9.8 26.3 2 58.2-18.7 77-18.1 16.4-47.1 28.1-47.1 52.5 0 7.1 2.8 13.9 5.8 20.3 10.5 22.93 27.5 46.93 52.6 49.23 16.5 1.52 32.4-6.93 49-6.93 29.1 0 45.8 36.08 46.9 59.62l-.6.5c1.1 23.5-.9 34-11.8 44.8-10.9 10.8-25.6 16.7-39.8 22.4-16.46 6.5-33.68 10.74-50.96 14.82l-6.9 1.64c-17.27 4.08-34.5 8.3-50.95 14.83-30.3 12-75.2 19.2-107.4 14.2-34.7-5.4-49.2-18.1-54.5-52.8-1.5-9.6-1-19.9 3.9-28.3 9.3-16.1 30.6-20.1 44.9-32.1 24.4-20.3 19.3-65.5-8.9-79.9-35.4-18.2-81.7 11-117-7.2-20.9-10.7-30.4-34.7-22-56.7 63.7-46.8 129.8-90 198.2-129.5 21.4-12.4 44.4-24.7 69.1-24.6h.6zm-72.2-109.55c-2.8-16.98-23.1-31.67-27.6-36.58-46.2-50.46-104.2-90.1-168-114.9-31.2-12.12-73.2-29.54-93.2-2.68-57.4 77.2-157.8 215.3-153.6 244.2 4.2 28.9 62.3 55 87.4 36.5 25-18.5 49.1-40.5 60.6-32.4 11.4 8 75.1 52.4 115.4 67.9 22.2 8.6 46.6 15.4 69.7 9.4 27.9-7.3 47.6-31.6 64.4-55 11.5-16.1 22.7-32.6 29.4-51.2 3.9-11.1 19.1-40.8 15.1-65.6l.4.3zM819 208.68c-33.05-23.4-73.18-30.13-112.4-24.64-42.5 5.94-83.22 26.5-111.67 58.86-10.32 11.76-19.45 26.13-22.23 41.76-3.34 18.8-21.7 72.32 35.25 186.63 11.97 24 39.9 58.7 63.68 71.1 47.4 24.7 86 27.7 121.86 24.2 24.9-2.5 56.3-19.3 77.8-31.8 21.2-12.3 37.2-34 49.2-56 16-29.4 13.3-59.6 7.4-87.4-5.9-27.8-26.7-50.5-40.2-75.5-3.5-6.4-6.9-15.5-28-11.5-24.7 4.7-85.8 23.4-87.5 42.5-1.8 20 24.2 81.8 43.6 61.2 12.1-13 25.4 6.3 19.7 13.2 0 0-15.9 13.3-31 21.5-11.9 6.5-24.3 13.1-37.8 14.4-66.7 6-110.5-95.9-76.3-143.1 7.9-10.9 27.2-29.7 41.4-27.9 8.3 1 24.2 9.3 25.7 17.6 2.7 15 24.4 2.6 39.5-4.4 15.7-7.3 33.6-14.8 47.1-21.9 13.5-7.2-16.4-62.8-25.5-69.2l.4.3zm470.15 19.95c-3.9-18.12-15.4-33.13-26.24-48.17-56.9-79-221.2-64.9-221.2-64.9-30.1-2.08-58.3 18.17-73.9 44.04-15.6 25.86-20.8 56.54-24.3 86.53-4.9 41.8-7.2 85.17 6.2 125.1 13.4 39.95 45.3 76.05 86.8 83.35 0 0 140.7 25.8 171.1-5.78 11.5-11.97 22.3-24.5 30.5-38.94 17.9-31.36 32.3-64.66 43-99.12 8.3-26.58 14.3-54.9 8.4-82.1h-.3zm220.8 214.84c-35.16-14.28-80.1-34.9-73.75-52.58 0 0 11.17-43.9 32.05-40.1 20.87 3.9 95.9 46.9 89.47 63.3-6.43 16.4-12.63 43.5-47.78 29.2v.1zm-373.46-89c-2.7 9.95-6.3 21.06-15.6 25.55-6.8 3.26-14.8 2.02-22 .07-8.1-2.2-16.1-5.3-22.6-10.6-12.7-10.5-17.4-28.1-17.1-44.5.3-16.5 4.9-32.5 7.5-48.7 2.6-16.3 3.5-33.6 12.3-47.5 26.1-41 63.7-12.9 71.3 15 8.2 30.6-5.7 80-13.9 110.6h.1z"/>
  <path fill="#36bfbd" d="M274.93 1455.22c-.1 6.4.72 12.26 2.46 17.6 1.7 5.36 3.8 9.98 6.3 13.87 4.1 6.5 8.4 10.3 12.8 11.4 4.3 1.1 8.4.4 12.2-2 2.2-1.5 3.8-3.1 4.7-5 .8-1.9 1.1-4.3.8-7.1-.3-2.9-1.1-6.1-2.4-9.9-1.3-3.8-3-8.2-5.1-13.3-1.8-4.4-3.2-8.8-4.5-13.3-1.2-4.5-1.6-9-1.2-13.4.4-4.5 1.9-8.7 4.4-12.8 2.5-4.1 6.5-7.9 12-11.4 5.2-3.3 10.5-5.2 15.9-5.6 5.4-.4 10.6.3 15.7 2.2 5.1 1.9 9.9 4.8 14.4 8.8 4.5 4 8.5 8.6 11.9 14.1 4.4 7 8 14.9 10.6 23.7 2.6 8.7 3.1 18.1 1.5 28l-21.6-2.1c1.4-7.4 1.2-14.3-.4-20.9-1.7-6.6-4.4-12.8-8.2-18.8-3.8-5.9-8.1-10-12.8-12-4.8-2.1-9.6-1.6-14.4 1.4-4.3 2.7-6.5 6.4-6.7 11-.2 4.6 1.3 10.5 4.5 17.7 2.3 5 4.3 10 6.1 15.2 1.7 5.1 2.6 10.1 2.6 15s-1.2 9.5-3.5 14c-2.4 4.4-6.5 8.5-12.5 12.3-5.3 3.3-10.6 5.3-15.9 5.7-5.2.4-10.3-.2-15-2-4.7-1.8-9.2-4.4-13.2-8-4.1-3.6-7.6-7.6-10.5-12.2-4.4-6.9-7.7-13.8-10-20.7-2.3-7-3.2-14.2-2.9-21.6l21.2-.6.7.7zm70.12-75.46h.14l-112.6 57.87-10.1-19.57L335 1360.2l10.05 19.56zm-48.26-109.83L256 1327.7l-20.56 26.9.36.4 81.7-31.77 7.96 20.5-117.95 45.83-7.4-18.98 37.4-52.55 24.1-32.38-.5-.2-81.7 31.73-7.9-20.5 118-45.82 7.4 18.98-.1.1zm195.5 100.47c-45.2 0-88.3-26.2-107.7-70.18-78.9-178.8-78.4-383.65 1.4-562.03 26.5-59.4 96.1-85.9 155.4-59.4 59.3 26.5 85.9 96.1 59.3 155.4-52.7 117.7-53 252.9-1 371 26.2 59.4-.7 128.9-60.2 155.1-15.5 6.8-31.6 10-47.5 10l.2.1zm-18.1-70.36c-6.5 1.67-12.8 2.2-18.9 1.62-6.1-.58-11.8-2.14-17-4.67-5.3-2.6-9.9-6-13.8-10.4-4-4.4-7.1-9.4-9.4-14.9-2.6-6.3-4.2-12.5-4.7-18.7-.5-6.2.1-11.9 1.8-17.3s4.6-10.3 8.6-14.6c4-4.4 9.4-7.9 16.1-10.7 5-2.1 10.5-3.2 16.4-3.5 5.9-.3 11.7.4 17.3 2.1l76.4 23.9-23.6-57.2 23.5-9.7 36.8 89.5-22.1 9.1L467 1235c-7-2-13.13-1.9-18.4.3-4.73 1.9-8.3 5.2-10.7 9.9-2.4 4.7-2.3 10.2.3 16.6 2.2 5.27 5.8 9.03 10.9 11.3 5.1 2.23 11.3 2.44 18.58.6l6.2 26 .34.34zM256.7 1196.9c-.8-3.6-2.3-6.7-4.3-9.4-2.1-2.7-4.5-4.9-7.3-6.5-2.8-1.7-5.9-2.8-9.3-3.4-3.4-.6-6.7-.5-10 .3l-5.4 1.2 6 25.7-18.4 4.3-11-47.1 24.2-5.7c6.4-1.5 12.5-1.7 18.4-.6 5.9 1.1 11.3 3.2 16.2 6.4 4.9 3.2 9.1 7.3 12.6 12.5s6 11 7.5 17.5c1.8 7.8 2.2 14.8 1.1 21.1-1.1 6.3-3.3 11.8-6.6 16.6-3.3 4.7-7.6 8.7-12.9 11.8-5.3 3.1-11.3 5.5-17.9 7l-31.5 7.3c-6.2 1.4-12.3 1.8-18.4 1.3-6.1-.5-11.8-2.2-16.9-4.9-5.2-2.7-9.7-6.6-13.6-11.7-3.9-5.1-6.7-11.5-8.5-19.1-2.5-10.9-2-20.6 1.5-29.3s9.2-15.5 17.1-20.6l12.7 18.3c-4.5 2.7-7.8 6.3-9.9 11-2.1 4.6-2.5 10-1.1 16 1 4.1 2.5 7.5 4.6 10.1 2.1 2.6 4.6 4.6 7.4 5.9 2.8 1.3 5.9 2.1 9.2 2.3 3.3.2 6.5 0 9.7-.8l33.3-7.7c3.3-.8 6.4-2.1 9.4-3.8 2.9-1.8 5.4-3.9 7.4-6.5s3.43-5.6 4.3-8.9c.83-3.4.8-7.1-.2-11.3l.6.7zm224.62-153.54c7.36-.95 14.12-.44 20.28 1.5 6.17 1.92 11.5 4.82 15.96 8.68 4.46 3.87 8.1 8.58 10.92 14.13 2.82 5.56 4.62 11.4 5.4 17.53.8 6.13.52 12.2-.8 18.2-1.34 6.02-3.68 11.46-7.03 16.33-3.34 4.87-7.75 9.02-13.23 12.45-5.48 3.43-11.9 5.6-19.25 6.55l-69.18 8.9c-7.5.95-14.3.46-20.4-1.48-6.1-1.94-11.4-4.85-16-8.7-4.6-3.86-8.2-8.52-11-14-2.8-5.5-4.6-11.3-5.4-17.42-.8-6.12-.5-12.23.8-18.32 1.3-6 3.7-11.5 7.1-16.4 3.4-4.9 7.8-9 13.2-12.4 5.4-3.4 11.8-5.6 19.3-6.5l69.2-8.9.1-.1zM255.4 1056l-27 12.5 4.2 46.7 28.8 7.6 2.1 23-130.4-36.1-1.7-17.8 121.6-59.2 2.1 23.1.3.2zm160.7 22.6c-7.4.95-12.8 3.63-16.2 8.04-3.5 4.4-4.8 9.83-3.9 16.27.8 6.5 3.4 11.4 7.8 14.7 4.4 3.3 10.3 4.5 17.7 3.6l67.8-8.7c7.4-.9 12.8-3.6 16.2-7.9 3.4-4.3 4.7-9.7 3.9-16.1-.9-6.4-3.5-11.3-7.9-14.7-4.5-3.4-10.4-4.6-17.7-3.6l-67.9 8.7.2-.3zm-230.5 8.8l-25.2 10.7v.5l26.1 5.8 26.8 6.1-3.1-33.9-24.8 10.6.2.2zm-14.1-156c5 .2 9.8 1.4 14.4 3.6 4.5 2.2 8.4 5.2 11.7 9 3.3 3.7 6 8.2 7.8 13.4 1.9 5.2 2.7 10.8 2.4 17l-1.3 28.8 48.5 2.1-1 21.9-126.4-5.6 2.2-49.2c.2-6 1.3-11.5 3.3-16.6 1.9-5.2 4.6-9.6 8-13.4 3.4-3.8 7.7-6.7 12.7-8.7 5-2.1 10.8-2.9 17.4-2.6l.3.3zm-1.5 22.5c-6.6-.3-11.5 1.4-14.7 5.1-3.3 3.7-5 8.7-5.3 15l-1.2 26.7 37.9 1.7 1.2-27.4c.3-6.5-1.4-11.5-5-15.3-3.6-3.8-8-5.7-13-6l.1.2zm362.37 10.48L536 938l-159.7-22-3.4 24.58L386.6 967l27.7 3.84-12.7-24.44 130.77 17.98v.02h.12l-.2-.02zM141.7 865c1.28-7.17 3.63-13.4 7.04-18.7 3.4-5.3 7.56-9.6 12.46-12.9 4.97-3.3 10.5-5.54 16.67-6.65 6.18-1.1 12.66-1.06 19.46.15l31.85 5.7c7.28 1.3 13.65 3.6 19.1 6.9 5.45 3.24 9.87 7.26 13.26 12.05 3.4 4.8 5.68 10.26 6.87 16.38 1.2 6.14 1.2 12.7-.1 19.75-1.4 7.77-3.9 14.34-7.5 19.73-3.6 5.4-7.9 9.6-12.9 12.7-5 3.1-10.6 5-16.6 5.9-6 .9-12.2.8-18.6-.4l-31.8-5.7c-6.2-1.1-12-3.1-17.4-6-5.3-2.9-9.9-6.7-13.6-11.3-3.6-4.6-6.2-10-7.8-16.3-1.5-6.3-1.5-13.3-.1-21.1l-.3-.2zm20.4 3.73c-.76 4.2-.7 7.94.2 11.24.9 3.32 2.37 6.2 4.45 8.68 2.08 2.47 4.58 4.5 7.5 6.07 2.92 1.57 6 2.64 9.2 3.22l33.48 5.98c3.46.62 6.86.7 10.2.25 3.35-.45 6.46-1.47 9.32-3.06 2.87-1.6 5.33-3.7 7.36-6.5 2.1-2.8 3.5-6.2 4.2-10.4.7-3.9.6-7.4-.2-10.7-.8-3.3-2.2-6.2-4.2-8.8-2-2.5-4.5-4.6-7.5-6.3-3.1-1.7-6.5-2.9-10.3-3.6l-33.5-6c-3.5-.6-7-.6-10.3-.1-3.3.6-6.3 1.7-9 3.4s-5 4-6.9 6.8c-1.9 2.8-3.2 6.2-3.9 10l-.1-.1zm402-26.2l-11.3 26.43-103.3-104.08-15.5 36.47 21.1 8.97-10.4 24.53-44.6-18.95 37.7-88.7 22.2 9.42 104 105.9h.1zM299.62 764.1l-56.4 4.9-7.25 22.3 49.63 16.06-6.7 20.93-120.4-39 16.6-51.2c1.7-5.1 4-9.6 7.1-13.6 3.1-4 6.6-7.2 10.7-9.6 4-2.4 8.5-3.9 13.5-4.4 5-.5 10.1.1 15.4 1.8 7.7 2.5 13.8 6.8 18.2 12.8 4.4 6 6.8 13.3 7.1 21.8l60.5-6.7-7.6 23.5-.37.4zm-85.1-30.2c-5.68-1.83-10.35-1.43-14.03 1.2-3.7 2.64-6.4 6.73-8.2 12.26l-8.7 27 33.7 10.9 8.5-26.3c1.8-5.65 1.8-10.78 0-15.38-1.8-4.67-5.6-7.9-11.2-9.7l-.1.02zm98.16-5.2l-114.3-54.2 36.3-76.55 18.1 8.57-26.9 56.67 29.9 14.1 22.9-48.3 17.4 8.2-22.9 48.3 30.9 14.6 26.9-56.7 18 8.6-36.3 76.5v.2zm-75.06-306.1c-15.94 0-31.28 7.1-43.82 17-12.57 10-22.7 22.6-32.5 35.3-1.68 2.1-3.52 4.4-6.12 5.3-.82.2-1.67.4-2.52.4-1.83 0-3.7-.6-5.48-1.1-30.77-9.9-55.47-36.7-61.27-68.7-9.7-53.6 33.3-102.8 85.8-102.8 4.7 0 9.4.4 14.1 1.2 0 0-18.2-6.5-43.1-6.5-16.4 0-35.8 2.9-54.7 12.4-30.6-27.8-27.9-73.2-6.8-105.9 19.7-30.53 54.3-49.5 90.3-51.86 3.5-.24 6.9-.34 10.4-.34h.6c48.5.17 96.1 21.58 135 49.1l.1-.3c156.1 115.3 275.1 276.1 339.2 461-85-85-188.7-151.7-305.3-193.7 1.9 8.2 2.6 16.7 1.8 25.5-3.6 42.1-38.9 73.8-80.3 73.8-2.3 0-4.7-.1-7-.3-31.3-2.7-59.4-24.1-68.9-54.3-6.7-21.2-3.1-43.5 7.4-62.7 6.1-11.2 18.7-32.5 33.7-32.5h-.1z"/>
  <path fill="#414143" d="M1483.1 966.9c-9.48 51.92-33.8 86.12-58.7 113.4-7.33 8-15.4 15.56-24.06 22.62 2.02.03 4.07.1 6.15.27 21.5 1.6 77.3 17.4 76.3 69.7-.1 3.7-.4 7.3-.8 10.8-3 24.9-14.5 42.9-23.2 53.3 7.3.6 16.9 2.3 27.5 6.4 20.7 8 36.5 24 43.3 44.1 2 6.1 3.6 13.8 3.6 22.7.1 13.4-3.5 29.7-14.9 48.3-22.2 36.3-58.4 42.3-79.8 42.3l.2-.6c-10.3 0-17.2-1.4-17.4-1.4-1.5-.4-2.8-1.3-3.6-2.6l-.6-1c-.7-1.6-.6-3.4.3-4.9.2-.5 23.6-41 9.3-64.5-2.1-3.3-4.9-6.2-8.7-8.6-23.5-14.9-48.9-12-84.9 9.9-1 .6-2.1.8-3.2.7-13.3 8.2-27.3 18.8-42.1 31.2-.9 2.1-1.9 4.2-3.1 6.2-8.4 13.7-20.7 21.5-32.7 25.9-3.4 3.2-6.8 6.5-10.2 9.8-39.6 38.1-77.8 69.5-114.4 94-9.3 13.7-20.8 22-34.4 24.5-2.6.3-5 .6-7.4.8-3.5 1.9-7 3.7-10.4 5.4-9.5 11.5-22.8 22.7-39.2 24.2-1.5.2-3 .2-4.5.2l-.1-.2c-4.1 0-8.1-.5-12.1-1.3-13.5 4.1-26.7 7.1-39.7 9-7.4 1-15.7 1.9-24.6 2.4-4.3 1-8.5 1.5-12.9 1.5l-.1-.2c-2.8 0-5.7-.2-8.6-.6h-.2l.6.6c-16.6 0-34.6-1-53.3-3.5-3.9-.2-7.8-.7-11.6-1.6l-1.7-.4c-18.1-3-36.5-7.3-54.7-13.4-77.6-25.8-131.6-76.6-156-146.9-4.2-11.9-7.7-23.7-10.7-35.3-2.3-7.3-4.1-14.9-5.3-22.4l-.9-5.6c-14.7-79.1-4.2-146.3 6.4-187h-.5l-.2-.5c-4 0-7.2-.3-9.4-.6-9.3-1.4-16-6.5-18.9-14.6-4.6-12.8 1.3-31.3 14.8-46.1 14.8-16.2 40.2-31 52.5-37.7 5.8-18 13-38.4 21.3-57.5-18.3-15.8-35.2-31.9-36.3-33-1.4-1.3-2-3.3-1.5-5.2.2-1 6.5-25 31.3-87.5 3.3-8.5 6.5-17 9.5-25.8-27.7-72-16.2-147.7-5.9-188.9 9.3-37.3 23.9-66.8 44.8-90.2 12.4-13.9 27.1-25.8 44.1-35.6 2.3-5 22.7-47.9 59.9-81.2 11.7-10.5 27.9-20.7 47-29.1 30.2-29.6 74.9-57.6 128.2-64.1 80.9-10 135.2 17.5 193.5 97.8 21.5 29.8 33.4 57.6 39.7 80.7 24.7-9.3 58.8-16 101.5-9.8 102.4 14.9 160.8 55.5 178.7 124.3 13.9 53.4 10.6 114.9-1.3 158.8.5 6.5.7 12.8.7 19 .8 3.4.7 6.2-.2 8.2v.3l-.1.4v.3l-.1.3v4.4l-.1.9v.1l-.1.3v1l-.1.9v.6l-.1.4v.2l-.1.1v1.1l-.1.9v1.2l-.1.9v1.2l-.1.9v.2l-.1.2v.6l-.1.8v.1l-.1.1-.1.9v.1l-.1.5-.1.2v.2c-.1.3-.1.6-.1.9v.7l-.1.3v.2c-.1.3-.1.6-.2.9v.1l-.1.1v.3l-.1.4v.2l-.1.9v.5l-.1.6v.1l-.2.9v.2l-.2.9v.1l-.1.4v.3l-.1.1v.1l-.2.8v.1l-.1.4-.1.4v.1l-.2.8v.2l-.1.3-.1.5v.1l-.2.9v.2l-.1.8h-.1l-.1.6-.1.2v.2l-.2.8v.1l-.1.4-.1.3v.2l-.2.8v.2l-.1.3-.1.4v.1l-.2.8v.05l-.1.1-.1.2-.2.6-.2.9v.2l-.1.3-.1.3v.32l-.1.2-.1.5-.1.1v.1c-.1.3-.17.6-.2.8v.1l-.1.2-.1.5-.1.2-.08.1-.04.2-.05.2-.1.4-.1.1v.1c-.1.3-.2.6-.27.9l-.1.1-.2.6-.1.1v.1l-.05.2-.1.3-.1.3v.4l-.1.2-.14.6v.2l-.3.83v.3l-.13.4-.1.24v.2l-.1.2-.2.4-.1.2v.1l-.3.9v.1l-.2.5-.1.2-.1.1-.1.2-.1.3-.1.3-.1.14v.2l-.2.7-.3.8v.2l-.1.3-.1.3v.2l-.1.2-.1.2-.15.46-.1.1v.1l-.3.84v.1l-.1.2-.2.5-.05.2-.1.1-.1.2-.1.27-.1.3-.1.2-.1.1-.3.8h-.03l-.25.6v.2l-.06.1-.1.3-.1.3-.05.2-.1.1-.1.2-.2.5v.17l-.3.8-.07.1-.1.2-.1.4-.1.2-.1.1v.1l-.1.2-.1.4-.1.1v.04c-.1.2-.2.5-.4.8v.1l-.2.5-.1.2v.1l-.1.1-.1.3-.1.3v.17l-.04.1v.2l-.2.6-.4.8v.1l-.1.1-.2.33-.1.2-.1.1-.1.1-.1.2-.2.4-.1.2-.4.8v.1l-.2.5-.1.2v.36l-.1.2-.2.3-.1.14-.04.1-.7 1.6-.1.1-.1.1-.2.3-.1.2-.1.2-.1.1-.1.2-.2.5v.1l-.4.8-.1.1-.2.4-.1.2-.07.1v.2l-.1.2-.2.4v.12h-.1l-.4.8h-.1l-.3.6v.1l-.1.1v.1l-.2.3-.1.3-.1.18-.1.1v.1l-.3.5v.1l-.4.8v.1l-.1.1-.2.4-.1.2-.1.1-.05.1-.1.2-.2.4-.1.1c-.1.2-.3.5-.4.7l-.1.1-.3.5-.1.1v.1l-.03.1-.1.2-.2.3-.1.2v.1l-.8 1.5h-.05v.1l-.2.3-.15.2-.07.1-.08.1-.1.2-.2.4v.1l-.4.8v.17l-.3.4-.1.2v.1l-.1.1-.1.26-.2.34-.1.1h-.08l-.8 1.46h-.1l-.04.1-.2.3-.1.3-.07.1v.1l-.1.16-.3.5-.4.75h-.2l-.2.4-.1.2v.3l-.1.2-.2.4-.04.1-.4.7-.36.56-.1.2v.2l-.1.3-.2.3v.2l-.9 1.4v.07l-.24.4-.1.2v.1l-.1.07-.1.2-.3.4h-.07l-.4.7-.6.9-.1.15-.1.2-.16.2-.4.6-.1.1-.1.02-.4.6-.2.2-.1.1-.1.2c-.2.3-.4.6-.5.9l-.1.1-.1.1-.3.5-.2.2-.1.1-.1.1-.6.8v.1l-.1.2-.3.35-.2.3-.1.2-.03.1-.6.8-.03.1-.2.2-.2.3-.2.3-.16.2h-.1l-.5.8-.1.17-.1.1-.16.26-.3.4-.1.2-.44.7-.1.1-.1.1-.17.1-.1.2-.34.4-.1.2-.2.2-.3.4-.1.2-.1.1-.1.13-.1.1-.4.6v.1l-.2.2-.3.3-.16.2-.15.2-.1.1-.5.7-.1.1-.2.2-.2.2-.15.3-.1.2-.1.1-.5.7-.1.1-.1.2-.1.2-.2.2-.2.3-.1.1-.5.6v.1l-.1.14-.2.2-.1.2-.2.3-.2.2-.2.2-.3.4v.1l-.2.2-.12.2-.1.1-.2.25-.2.3-.2.3-.2.22-.1.1-.14.2-.1.1h-.1v.1l-.4.5-.3.4-.1.1-.04.1-2.3 2.9h-.07l-.1.04-.3.4-.5.5zm-130.95 167.13c-29.63 15-62.42 25.1-95.2 28.95-8.68 15.64-15.82 29.53-20.44 40.62l-.2.66c8.4 3.94 28.3 12.63 45.7 14.93 36.8 4.9 69.5-2.3 87.6-19.1 6.6-6.3 10.7-13.4 12-21.1.4-2.4.5-4.7.3-7.1-1.7-26.8-18.1-35.3-29.6-37.9z"/>
  <path fill="#9cd8d9" d="M714.77 996.08c9.4 7.85 18.58 15 25.62 19.43 13.1 8.3 31.4 20.4 44.2 29-1.5 70.7-12.2 86-12.2 86-1 1.2-1.5 2.8-1.3 4.3.2 1.5 1.1 2.9 2.4 3.7l88.1 55.9c.5.4 1.1.6 1.8.7l105 48.2c.8.3 1.5.5 2.3.5l-.5-.4c.9 0 1.9-.3 2.8-.8 1.5-.9 2.5-2.6 2.6-4.3 0-.2 2.6-24.2 52.7-49.9 12.9 7 37.6 20.5 53.9 29.9 23.4 13.5 83 33.8 85.5 34.6.5.2 1.1.3 1.7.3v.3c.8 0 1.6-.2 2.4-.6 1.3-.6 2.2-1.7 2.7-3.1.1-.4 12.5-38 56.2-84.9 4.2 0 8.5-.2 12.8-.5-7.3 13.4-13.3 25.2-17.4 35.3-11.7 28.1-13.2 39.3-12.4 44.3-7.5 5.5-27.1 18.5-58.6 29.1-21.6 7.3-51.6 14.2-89.5 15.9 10.5-20.1 13.5-34 13.6-34.6.6-2.9-1.3-5.7-4.2-6.3-2.9-.6-5.8 1.2-6.4 4.1 0 .1-3.5 15.8-15.8 37.7l-.3.5c-2.5 4.2-5.8 8.8-9.7 13.2l-1 1.1-.4.4-.4.4-.4.5-.4.4-.2.2-.9.9c-1.3 1.3-2.6 2.6-3.9 3.8-1.2 1.2-2.5 2.3-3.9 3.5l-1.9 1.7-.7.6-1.1.9c-.4.4-.8.7-1.2 1l-.2.1-.1.1-1.8 1.3-1.4 1-1.8 1.2-.3.3-.4.3c-.3.2-.5.3-.7.4l-.3.2-.2.1c-1.6 1-3.1 1.9-4.7 2.7l-.1.1-.3.2c-1.1.6-2.3 1.1-3.4 1.6l-.3.2-.3.1-1.4.6c-.3.1-.6.2-.9.4-.7.3-1.4.5-2.1.7l-.2.1-.1.1c-.9.3-1.7.5-2.6.7l-.3.1c-.7.2-1.5.3-2.2.4-.7.1-1.4.2-2.1.2h-.4l-.2.1h-.9c-.6 0-1.2 0-1.8-.1l-.7-.1c-1.4-.2-2.8-.6-4-1.2l-.9-.5-.5-.3-.2-.1-.5-.3-.4-.3-.2-.1-.2-.1-.9-.7-.2-.1-.9-.9-.1-.1-.1-.1c-.4-.4-.7-.8-1.1-1.2l-.1-.1-.2-.3c-.2-.2-.3-.4-.5-.6-.3-.4-.6-.9-.8-1.3l-.3-.6h-.1l-.1-.1c-.7-1.3-1.2-2.8-1.5-4.4l-.3-1.7v-.3l-.1-.2v-6.2l.1-.1v-.7l.1-.2v-.5l.1-.4.1-.4.1-.4.1-.4v-.1l.1-.4.1-.2.1-.26v-.2l.1-.22.1-.2v-.3l.1-.2v-.2l.1-.2.1-.2v-.2l.1-.26v-.3l.1-.3v-.22l.1-.3.1-.2.1-.3.1-.26.1-.2.1-.3.1-.23.1-.2.1-.1.1-.3.1-.2.1-.27.1-.2.1-.2.1-.25.1-.3.1-.2.1-.3.1-.3.1-.23.1-.3.1-.2.1-.3.1-.2.1-.3.1-.2.2-.3.1-.2.1-.3.1-.2.1-.3.1-.2.1-.3.1-.2.2-.4v-.1l.2-.3v-.1l.2-.4 1.2-2.4.2-.4.1-.1.2-.4v-.1l.2-.4v-.1l.3-.4.02-.1.2-.4h.1l.2-.45h.1l.2-.43.3-.4c6.6-11.3 15.1-21.7 20.16-27.4 12.84-14.7 19-19.5 19.1-19.6 2.3-1.8 2.8-5.1 1-7.5-1.8-2.4-5.1-2.8-7.5-1.1-.2.2-6.8 5.3-20.7 21-7 8-16.6 20-23.5 32.9-4.1-.7-8.3-1.4-12.6-2.2-131.9-24.2-230.7-104.1-269-150.6 12.7-7.5 26.4-18.5 40.1-34.7 1.9-2.3 1.6-5.7-.7-7.6-2.3-1.9-5.7-1.6-7.6.6-13.3 15.7-26.4 26.2-38.5 33.05-.9.5-1.9 1.1-2.9 1.6l-1.7.9h.1c-.5.3-1.1.5-1.6.8l-1.6.7-1.6.7h-.1l-1.6.7h-.1l-.5.2-.6.2-.5.2-.6.2-.5.2v.04l-.5.14h-.2l-.5.2-.6.2-.5.1-.5.2-.5.2h-.1l-.45.1v.07l-.5.1-.5.2h.1l-.4.1h-.1l-.5.2-.4.1h-.1l-.5.1-.5.2-.5.17h-.1l-.5.12-.5.2-.5.16h-.1l-.47.1-.4.1h-.1l-.4.1-.1.03-.47.1-.4.1-.5.1h-.2l-.5.1-.2.1-.6.2-.2.1-.47.1h-.1l-.6.1h-.1l-.5.1-.1.1-.55.1-.1.1-.5.1h-.2l-.54.1-.1.1-.5.1-.2.1-.56.1h-.1l-.5.1h-.1l-.55.1h-.1l-.4.1h-.1l-.5.1h-.6l-.1.05h-.5l-.48.1h-.1l-.5.08h-.8l-.5.1-.5.1h-1l-.4.1h-5.5l-.1-.04h-1l-.4-.07h-1.1l-.3-.1h-.1l-.4-.1h-1l-.3-.1-.4-.1h-.1l-.24-.1h-.7l-.9-.2h-.3l-.47-.1-.4-.1c-.6-.2-1.2-.4-1.7-.6l-1.1-.5-.7-.43c-.3-.2-.6-.4-.9-.7l-.2-.1-.5-.4-.4-.4c-.34-.3-.6-.7-.9-1.1l-.24-.3c-.34-.5-.6-1-.9-1.6l-.3-.6-.1-.3-.2-.5c-.2-.6-.35-1.2-.5-1.9v-.2l-.1-.15-.15-1.2-.08-1c-.07-1.4 0-2.8.2-4.3.1-.8.2-1.5.4-2.3l.2-1 .5-1.9.05-.2.1-.2.2-.5.44-1.3.3-.7c.1-.2.2-.4.2-.7l.4-1 .1-.2.5-1.1.1-.3.4-.8 1.2-2.3.3-.6v-.1l.2-.3.2-.3.1-.2.5-.9.1-.1.1-.2.7-1.17c1-1.6 2.2-3.2 3.4-4.7l.8-1 .7-.8.2-.3.3-.3.5-.5.4-.47.1-.2.3-.3.2-.2.3-.3.2-.1.3-.3.2-.16.4-.4.4-.4.1-.1.3-.3.2-.1.3-.23.1-.2.3-.3.1-.1.5-.4.4-.4.1-.1.3-.3.2-.2.3-.22.2-.2.3-.3.1-.2.5-.4v-.1l.4-.4.2-.1.3-.3.1-.15.3-.3.1-.14.4-.3.1-.1.5-.4.1-.08.4-.4.1-.12.3-.26.2-.1.3-.3.2-.2.4-.3.1-.1.5-.5h.1l.4-.4.2-.1.4-.3.2-.2.3-.2.2-.2.4-.3.12-.1.5-.4.1-.1.4-.3.2-.1.3-.24.2-.2.4-.2.2-.1.4-.3.15-.1.6-.4.1-.1.4-.3.2-.1.3-.3.2-.15.4-.3.2-.1.4-.28.1-.1.55-.4.1-.1.4-.3.2-.2.33-.3.2-.1.3-.2.2-.2.4-.2.1-.1.5-.37.9-.6.2-.1.8-.6.1-.1.8-.6.1-.1.9-.6.2-.1.8-.6.1-.1.9-.5h.1l.8-.55.1-.1.8-.6.1-.03.8-.5v-.1l.8-.5.1-.1.4-.3.7-.4.4-.23.6-.4.4-.2.7-.5.3-.2 1-.5.25-.1.7-.5.3-.28.6-.3.4-.2.5-.32.4-.2.6-.3.3-.13.9-.5.3-.2.6-.3.35-.2.5-.3.4-.2.5-.3.36-.2.4-.3.4-.1.8-.4.4-.2.4-.2.4-.2.35-.2.4-.2.3-.2.4-.2.1-.1 1.1-.6 1-.5h.1l.6-.3c2.14-1.1 3.4-1.75 3.4-1.8 2.6-1.3 3.7-4.5 2.4-7.2-.4-.9-1.1-1.6-1.9-2.1 5.04-15.1 10.94-31.5 17.5-47zm304.42-476.9c-3.2-5.82-6.3-14.1-7-25-.6-9.77 3.1-18.76 10.6-25.32 6.1-5.4 13.9-8.34 21.6-8.34l-.6-.63c1.9 0 3.7.2 5.6.6 19.1 3.7 37.1 11.5 29.6 61.6-.2 1.4.2 2.9 1.1 4.1.9 1.1 2.3 1.9 3.8 2 18.5 1.6 38.1 4.9 59.8 10 74.9 17.6 144.7 61.8 207.3 131.2 1.8 1.9 4.6 2.3 6.8 1 7.4-4.5 28.2-14.3 61-8.1 18.1 3.4 30.3 13.9 33.6 28.8 2.7 12.3-1.6 25.2-10.3 31.4-8 5.7-24.4 6.1-46.3 1.3-1.8-.3-3.6.2-4.9 1.5-1.3 1.2-1.8 3.1-1.4 4.9 5.9 28.6 17.1 102.4-8.3 170.8-25.3 68.2-78.3 116.9-161.8 148.8-53.9 20.7-122 25.8-182 30.4-25.6 2-49.8 3.8-71.1 6.7-42.5 5.8-70.6 35.5-87.3 61.3 6.4-34.5 12-82.8 2.9-117.4-4.8-18.3-14.6-38.2-24.9-59.1-19.9-40.4-42.5-86.3-43.5-143.8-1.5-85.3 18.3-150.1 60.4-197.8 2.6-3 5.2-6 7.8-8.9.2 2.3.4 4.6.8 7 5.9 39.2 32.1 73 66.7 86.3 10.5 4 21.4 6.1 32.5 6.1l-.2-.2c8.5 0 17.1-1.2 25.8-3.5 38-10.3 69.7-38 82.8-72.2 10.7-28 7.4-57.7-9.4-83.4-13.4-20.5-35.5-35.6-61.7-42.2zm6 356.8l.3-.1c8.7 0 17.3-4.3 24.5-12.1 8.4-9.1 12.9-21 11.9-31.1-1.2-11.6-7.9-22-16.2-30.87.5-.8.9-1.7 1.3-2.7 4.2-9.8 1.4-21.4-7.7-31.8-10-11.5-25.7-17.9-41.9-17.2-9.4.4-17 3.3-20.1 7.4-.6.9-1.2 1.7-1.7 2.6-16.2-3.3-29.7-1-39.1 6.7-12.8 10.5-20.3 24.4-19.6 36.3.4 6.4 3.1 11.6 7.7 14.6 1.8 1.2 5.7 4.1 10.6 7.9-6.9 11.1-17 27.7-19.4 33-.3.8-.6 1.5-1 2.2-4 8.5-5.4 14.8 10 25.8 9.2 6.5 24.2 15.9 34.6 15.9l.3.1c2.8 0 5.2-.6 7.1-2.2 1.4-1.1 17.3-18.1 29.8-33.5 10.6 5.5 20.5 9.2 28.1 9.3h.2zm200.5-11.1c-25.8 0-55-9.3-84.5-34.1-23.4-19.8-36.3-44.3-38.4-72.7-2.9-41.4 18.9-80.8 29.3-92.4 40.7-45.6 92.4-47.6 153.5-6.2 29.7 20.1 46.5 45.6 49.9 75.8 4.3 37.7-13.9 76.3-33.9 97.8-15.5 16.7-42.9 31.6-75.8 31.6l-.1.2zM1431.6 711c-.75 0-1.52-.22-2.16-.72-1.55-1.2-1.84-3.44-.64-5 .6-.78 2.1-3.48 1.36-5.4-.7-1.88-3.55-3.4-8.02-4.27-16.57-3.3-37.13 6-37.33 6.1-1.8.8-3.9 0-4.7-1.7-.8-1.8 0-3.9 1.8-4.7.9-.4 22.9-10.2 41.7-6.5 7.3 1.5 11.7 4.4 13.4 8.8 2.3 6-1.9 11.7-2.4 12.3-.7.9-1.7 1.4-2.8 1.4l-.2-.3zm-374.88-188.46c-.2 0-.4-.02-.6-.05-1.93-.4-3.24-2.2-2.92-4.1 1.05-6.3 2.75-24.2-1.92-31.7-2.25-3.6-4.58-5.6-6.57-5.6-2.5 0-5 3-5.5 3.9-1 1.6-3.2 2.1-4.9 1.1-1.6-1.1-2.1-3.3-1.1-5 .5-.8 4.8-7.2 11.6-7.2h.1c4.7 0 8.9 3 12.6 8.9 6.9 11.1 3.3 34 2.9 36.6-.3 1.7-1.8 3-3.5 3l-.1.1z"/>
  <path fill="#fbb889" d="M1041.08 807.53c7.1 7.72 12.6 16.5 13.53 25.96.8 8-3.2 18-10.1 25.6-5.9 6.4-12.8 10.1-19.5 9.9-20.6-.3-64.2-33.1-85.2-48.9-5.3-4.1-9.1-7-11.3-8.3-2.6-1.8-4.2-4.9-4.5-9-.5-7.6 3.8-19.5 16.9-30.3 5.7-4.7 13-6.5 20.7-6.5l.3-.3c3.6 0 7.2.3 10.8 1-1.6 5.7-.6 11.6 2.9 19.5 5.4 12.3 29.6 27.8 47.9 27.8l-.1.2c.5 0 1 0 1.5-.1 6.2-.3 12-2.8 16.4-6.8z"/>
  <path fill="#8c7062" d="M999.62 756.87c-.7 0-1.32.02-1.82.04-8.56.4-13.4 3-14.58 4.6-4.74 6.6-5.97 11-1.25 21.9 4.5 10.4 27.28 24.3 42.46 23.6 7.02-.3 13.5-4.7 16.15-10.9 3.12-7.3.8-15.9-6.52-24.3-11.57-13.2-27.6-14.8-34.44-14.8v-.1z"/>
  <path fill="#dededd" d="M875.5 1487.15c1.27.14 2.55.23 3.84.27 6.25 11.54 15.76 22.77 30.17 31.6 12.3 7.55 24.8 11.35 37.3 11.35l.3.24c5.6 0 11.3-.7 16.9-2.3 9.6-2.6 18.5-7.4 26.2-13.2 2.1 1.5 4.2 2.8 6.3 3.9 1.3.6 2.5 1.2 3.7 1.7-10.2 13.1-25.4 27.2-43.7 32.2-14.7 4.1-29.4 1.6-43.9-7.2-23.5-14.4-33.2-38.1-37-58.4zm-47.58 36.58c3.3-1.6 6.6-3.43 9.83-5.48 7.64 5.42 17.64 10.23 30.66 13.08 5.5 1.18 10.9 1.7 16.2 1.7l.3.08h2.9c5 6.2 10.7 11.6 17.1 16.1-10.8 2.4-22.4 3.2-33.9.7-23.5-5.1-36.3-16.7-43-26zm154.9 23.92c3.63-2.65 7.06-5.54 10.25-8.55 3 1.58 6.17 3.1 9.44 4.5-6.6 1.64-13.2 3-19.7 4.05zm15.6-13.92c2.74-2.94 5.27-5.93 7.56-8.87 8.2 3.18 16.97 5.37 25.62 5.37v.28c1.47 0 2.93 0 4.4-.2 10.52-.9 19.77-6.1 27.5-12.8 2.44 1.1 5 1.9 7.63 2.4-8.65 10.9-20.85 21.9-35.43 23.1-12.5 1.2-25.88-3.4-37.3-9.2zm-189.56-3.57c4.1-.76 8.24-1.96 12.4-3.54 2.25 3.3 5.16 6.86 8.88 10.4-4.6-1.32-9.16-2.72-13.72-4.24-2.55-.85-5.07-1.72-7.56-2.62zm-64.88-106.9l.18.05c1.58 22.2 7.88 47.4 25.98 63.4 9.8 8.7 21.4 13.2 34.03 13.2 3.45 0 6.87-.3 10.36-.9 12.92-2.3 26.35-9.1 38.7-19 3.62 2.1 7.35 3.7 11.17 4.9-16.07 20.3-37.06 34.9-56.8 38.5-15.14 2.8-28.57-.9-39.87-10.9-25.32-22.4-25.7-65.8-23.8-89.1h.05zm221.88 22.08c5.72 19.18 16.87 34.18 31.3 41.67 6.8 3.6 14.02 5.3 21.26 5.3v.3c6.04 0 12.1-1.3 17.92-3.8 14.5-6.1 25.66-25.9 34.36-49.9.73.1 1.46.1 2.2.1l.2.2h1.37c-8.36 30.9-21.6 67-40.23 75-11.3 4.9-23.58 4.3-34.58-1.4-14.98-7.8-26.14-24.6-30.58-46-1.53-7.3-2.56-14.5-3.22-21.2zm126.73 50.76c15.8-.2 28-12.97 37.1-29.88 1.1.67 2.3 1.3 3.5 1.84-7.7 21.76-20.3 41.23-41.2 44.95-13.5 2.4-24.8.2-33.8-6.7-.9-.6-1.8-1.3-2.6-2.1 3.1-4.5 6.1-9.6 8.8-15.2 7.2 4.4 16.2 7.2 27.2 7.2h-.1.8zm-356.8-5.76c1.8.3 3.6.46 5.3.46l.3.3c1.1 0 2.2-.05 3.2-.17 1.2 3.13 2.7 6.18 4.3 9.13-4.6-3.1-9-6.35-13.2-9.72zm-52.5-80.83c2.7 1 5.5 1.6 8.4 1.9 4.3 13.5 11.7 27.5 24.5 39.1 7.7 7 14.9 11.8 21.4 14.7.9 6.2 2.3 12.5 4.2 18.5-8.1.4-17.8-3.4-30.2-14.6-18.6-16.8-25.9-40.7-28.5-59.4zm197.7 70.9h-.2c-15.3 0-30-7.7-41.7-21.5-16.5-19.5-24.7-47.9-23.6-80.1 1.5.2 3.1.3 4.6.4 3.3 20.2 11 37.5 22.8 50.1 11.4 12.2 25.7 18.7 40.8 18.7 1.7 0 3.5-.1 5.3-.3 16.7-1.6 33.1-13.2 47.6-33.4 2.5 2.6 5.2 4.9 8.1 6.9-11.5 21.4-35.8 59.4-64 59.4zm256.5-3.8c.8-2 1.6-4 2.3-6.2 1.6.4 3.3.7 5 .9l-7.4 5.4zm41.7-72.5c.9.8 1.9 1.5 3 2.2-2.2 22.1-6.9 42.6-17.7 52.2-5 4.5-11 6.4-18.4 5.8-20.3-1.7-30-21.6-34.4-42.7l.2-.2c7.2 13.8 17.5 22 30.3 24.2 1.4.3 2.9.4 4.3.4h.3c5.2 0 10.1-1.7 14.3-5.2 8.6-7 14.2-20.6 18-36.5zm34.4 5.9c-5.1 12.8-13.8 24.8-29 25.1.6-2.2 1.1-4.4 1.6-6.8 11.2-.7 20.5-6.9 27.3-18.2zm-187.1-78c2 16.2 5.1 31.3 9.5 42.5 7.5 19.2 22.8 30.9 40.1 30.9h-.1.2-.2 2.2c19.8-1.2 36.3-17.5 43.1-42.6 2.7-10.2 5.2-20.6 7.3-31 .4 1.5.9 2.9 1.3 4.3-1.8 18.2-5.2 36.4-10 54.4-6.5 24.1-24.2 40.4-45.1 41.6-17 1-31.8-8.7-38.3-25.2-7.4-18.6-10.8-47.5-12.3-73.5l1.8-1.1zm-101.4-49l1.3.4c-.8 17.8-.1 38.3 4.1 58.8 5.9 29.6 23.7 50.4 46.3 54.3 2.4.4 4.8.6 7.2.6h-.1.2-.1c13.9 0 27.1-7 37.8-19.9.4 2.5.8 4.9 1.3 7.3-1.2 2.8-2.6 5.4-4.1 8-13 21.8-33.5 33.2-53.6 29.7-20.2-3.4-35.2-20.4-40.3-45.4-7.4-36.4-3.7-72.8-.3-93.6zm-206.5-.6l1.5-.3c-2 12.1-3.1 25-2.5 37.2 2 42.4 19.3 66.9 47.4 67.3h.2v-.2c7.6 0 18.5-6.6 29.7-16.6 3.3 3 6.8 5.1 10.3 6.5-16.4 23.2-38.2 42.4-53.6 41.3-19.3-1.4-42.5-18.5-44.7-62.2-1.3-25.8 5.9-54.6 11.6-72.9zm-48.1 120c1.5 1.3 3.1 2.5 4.8 3.6.4 3.5.9 7.3 1.6 11.2-2.3-4.8-4.5-9.7-6.5-14.7zm552.7-79.7c.2-1.1.3-2.1.4-3.2 1.9 5.3 3.6 10.6 4.4 15.3 2.2 13.3 8.2 48.8-5 63.8-4.5 5.2-10.8 7.5-19.3 7.2-18.5-.7-29.1-13.8-35.2-26.8l.7.2c1.5.4 3 .6 4.5.7 6.3 6.2 15.3 10.6 28.2 10.6h.1l.3-.1c6.6 0 11.9-2.2 15.7-6.4 10.4-11.6 7.6-36.5 5.8-52.9-.4-3.1-.7-6-.9-8.4zm-573.7-44.4c.3 5 .9 10.1 1.8 15.4 5.6 33.6 21.5 69.4 49.3 71.5 1.7 13.1 5.2 23.7 10 32.1-4.3 4.4-9.4 7.1-15.6 7.2-17.5.4-38.9-17.2-47.3-67.2-4-23.7-1.8-44.1 1.7-59zm733.5-162.5c6.9-1.3 14.5-1.9 22.5-1.3.6.1 66.2 6.6 66.4 57.5v1.1c-.9 41.7-29.9 65.2-30.2 65.5-1.3 1.1-2.1 2.6-2.1 4.2-.1.8.1 1.7.4 2.4.9 2.2 3.2 3.5 5.6 3.2.1 0 16-2 36.6 5.9 17.5 6.7 31.4 20.8 37 37.5 1.8 5.4 2.8 11 3 16.8.4 14.1-4.1 29.2-13.3 44.3-19.3 31.5-50 37.2-69 37.3 6.2-3.3 13.3-7.6 20.1-13 23.7-18.6 32.7-40.3 26.1-62.9-7-23.6-32.1-40.2-72.7-47.8-16.9-3.2-33-4.2-44-4.5 8.7-5 20.7-12.5 32.2-22.3 28.8-24.5 40.2-50.8 33.1-76.1-5-17.6-15.1-30.9-29.1-38.3-7.8-4.1-16.7-6.4-26.5-7l3.6-2.4zm-149.7 190.5c20.5-1 35.7 9 43.1 19.1 8.2 11.4 9 24.9 2.1 36.3-9 14.7-23.5 21.8-36.5 25.2 7.7-4.5 14.9-10.8 20.3-19.7 8.1-13.3 7.2-29.1-2.4-42.2-6.6-8.9-15.9-15.3-26.7-18.6zm-103.5-14.7c15.2 39.3 35.6 60.8 52.8 60.8l.3-.3c.7 0 1.4 0 2.1-.1 22.5-2.4 29.8-29.7 31.6-61 .1 4.6.2 9.2.4 13.8.8 24-9 49.9-23.2 61.5-7.1 5.9-14.8 7.9-22.9 6-22.9-5.3-34.1-24.7-43.9-80l2.8-.6zm-214.4-11.3c-27 66-72.5 90.4-91.7 91.7-23.6 1.7-38-16.7-42.7-54.3-4-31.9 1.5-75.1 4.5-94.3-1.3 17.6-1.7 37 .3 53.4 6.1 48.2 27.3 59.1 45.2 59.1l.1.2c1.1 0 2.1 0 3.1-.1 18.9-1.3 50.6-18.2 76.4-57l4.6 1.4zm375.8-12c.5-1.8.9-3.6 1.3-5.4 6.3 3 12.4 7.2 16.4 12.8 4.7 6.5 5.9 13.9 3.6 22.7-3.8 15.2-13.8 26.2-24.5 33.9-1.2-3.4-3-6.7-5.2-9.9 6.8-5.4 11.6-13.3 14.1-23.3 2.9-11.2 1.3-21.2-4.7-29.5l-1-1.3zm33.4 17c2-1.5 4-3.1 5.8-4.8 6.7.6 13.4 3 14.6 10.2 1.7 9.7-7.4 25.4-23.8 36.5 9-8.6 14.4-19.6 12.9-28.9-.7-3.9-2.8-9.3-9.6-12.9zm-84.6-70.5c2.1.8 4.3 1.5 6.6 2.2 18.8 6.1 40.1 13.1 39.4 37.6-.6 21.4-14.7 36.8-34.9 46.7-3.3-.8-6.7-1.3-10.2-1.6 17.2-10.7 28.7-26.1 29.3-46.5.6-22.4-14.3-32.1-30.2-38.3zm66.7 15c5.6-.4 11-.6 15.5-.5 9 .1 17 3.6 20.8 9.1 1.6 2.2 3.2 5.9 1.7 10.5-2.4 7.1-10.4 20.5-25.4 31.6-.6-1.8-1.4-3.6-2.3-5.4 5.7-6.7 9.6-13.5 11.6-19.4 1.6-4.7 1-9.4-1.5-13.5-3.6-5.7-11-10.1-20.5-12.2zm-611-84.4c1.7 2 3.5 4 5.4 6-.8 4-1.6 8.2-2.4 12.5-6.1 33.2-2.6 62.6 9.3 76.6 5.1 6.1 11.5 9.1 19.1 9.1v.3h.5c13.8-.2 33.1-13.1 51.2-31.7-.6 3.3-1.3 7.8-2 13.1-20.8 27-46.3 47.5-63 47.8-7.7.2-14.8-3.3-20.3-9.9-12.2-14.5-16.3-41.8-10.6-71.3 4.4-23.3 9.1-40.8 12.6-52.4zm-52.2 115c.8 1.5 1.6 2.8 2.5 3.8-.7 2.2-1.5 4.7-2.2 7.4-.2-3.7-.3-7.4-.3-11.1zm19-116.1c-3.4 17.2-6.9 37.3-7.8 50.8-1.8 28.3.7 38.9 9.6 40.5.5.1 1.1.2 1.7.2l-.1-.2c2.9 0 6.9-1 11.3-3.4.3 2.9.6 5.8 1 8.5-8.8 15.5-19.1 21-24.2 20.7-3.4-.3-9.3-8.3-7.4-37 1.5-23.3 11-66.6 13.9-79.6l2-.3zm742.7-301.8c8.5 30.7 15.1 76.2 1.4 124.5-24 84.3-67 109.9-112.6 137-23.6 14-48 28.5-69.8 51.7-37.5 39.8-53.1 72.9-58.1 85.3-14.9-5.2-59.9-21.3-78.7-32.1-5-2.9-10.8-6.2-16.9-9.5 16.6 5.2 32.2 9.9 42.6 12.4.5.1 1.1.2 1.8.2l-.4.3c6.8 0 17.8-8.1 45.5-28.7 15.7-11.6 37.3-27.6 65.2-47.2 11.4-8 23.2-14.6 35.7-21.6 39.4-22.1 80.2-44.9 111.7-112.7 11.3-24.3 16.5-64.7 18.9-99.7 7.2-20 11.4-40.3 13.6-59.8zm-95.9 182.2c-12.7 21-29.7 42-52.4 58.5-53.4 39-95.9 50.7-140.9 63.2-15.2 4.2-30.8 8.6-47 14.1-77.1 26.1-97 56.8-102 70.6l-86-39.4c5.2-.6 11.2-1.5 17-2.8 14.2-3.2 24.6-12.4 35.6-22.1 19.8-17.4 44.3-39.2 103.7-38.5 95.7.8 177.2-24.4 242.5-75.2 11.5-9 21.2-18.6 29.4-28.3zM1233 1212c.9.4 1.9.8 2.9 1.2l-3-1.02.1-.2zM805.6 935.2c-10.44-36.6-16.8-77.27-7.7-124.1 1.4-7.18 3.2-14.3 5.3-21.3-.75 12.14-1 24.8-.8 37.84.3 19.24 3.05 37.4 7.24 54.44 1.43 5.8 3 11.5 4.75 17.1 9 28.9 21.6 54.5 32.6 76.9 10.5 21.4 19.6 39.8 24.2 57.1 11.9 45.13-3.5 117.9-9.8 144.43-5.7-9.6-13.4-24-14.9-32.8-1.2-6.5-1.2-10.9-1.2-18.8 0-11.4-.1-28.6-3.4-67.1-2-24-11-49.2-20.5-75.9-4.9-13.7-9.9-27.9-14.4-42.8-.7 4.3-1.3 7.8-1.7 10.3h-.2c.1-4.9.2-10 .4-15.1zM1406 736.42c3.3.5 6.48.82 9.5 1.03 18.9 17.9 46.2 55.1 57 126.35 17 111.83-18.63 168.4-55.7 208.93-34.5 37.8-100.7 75.93-174.4 80.5 10.8-9.85 22.2-18 33.7-25.45 42.3-13.4 87.4-36.3 121.87-71.83 42-43.4 60.9-97.4 56.2-160.7-3.26-44.36-23.1-85.6-44.75-118.27-.6-16-1.97-30.1-3.26-40.5zM881.77 604.5c-5.44 5.8-10.9 11.84-16.4 18.1-14.57 16.52-26.6 34.97-36.06 55.46-20.9 26.44-46.3 68.9-58.2 128.74-11.2 56.8-3.3 96.9 4.4 135.7 4.4 22.5 8.7 43.7 9.1 67.7.2 8.87.2 17.08.1 24.7-5.7-5.5-11.5-11.33-16.2-16.73-17.9-20.33-30.6-45.75-32.7-50.07l-.1-.2c-.4-10.9-3.6-144.6 64.4-272.5 24.1-45.58 54.1-73.63 81.6-90.87zm412.3-3.44c27.9-5.2 93.53-10.8 152.64 33.9 78.5 59.24 92.5 171.32 77.4 231.97-7.7 31-23.8 58.47-38.1 78.26 1.8-18.9 1.7-39.9-.8-63.4 1.1-3.5 2-7 2.9-10.6 17.9-69.6 9.4-128.6-24.4-172.7 0-3.3-.3-6.6-1-9.9-4.2-19.3-19.5-32.8-42-37-5.2-1-10.1-1.6-14.8-1.9-29.4-16-58.1-21.3-80.8-22.2-10.2-9.5-20.5-18.3-31-26.6zm-385.7-54.57c-18.96 3.9-47.16 16.6-83.6 52.2-56.4 54.9-78.9 125.5-100.7 193.8L722 799c-1.4-37.3 4.23-80.5 20.2-121.68 18.6-47.96 59.1-111.86 146.2-143.56 40.43-14.75 73.9-19.4 100-19.4l.3.2c5.9 0 11.4.23 16.54.64.16.4.32.84.5 1.26-32.17-4.56-64.86 3.42-88.05 21.66-3.4 2.6-6.5 5.4-9.4 8.3zm318.36 11c5.8-4.4 16.3-11.4 31.1-17.7 21.6-9.2 57-18.8 103.2-12.1 97.68 14.1 153.28 52.2 169.98 116.4 10.5 40.3 10.7 86.3 4.7 124.5-2.4-13.5-6-27.1-10.7-40.5-.4-9.3-1.3-18.9-2.8-29.1-9.4-65-60.6-141.7-174.2-144-42.6-.9-73.7 7.5-95.1 17-8.6-5.3-17.2-10.2-26-14.7zm-44.8-19.4c-.64-9.2-2.8-24.5-9.55-42.2-9.9-25.7-31.86-61-80.54-84-19.36-9.1-39.13-14.8-58.7-17.8 3.08-.2 6.2-.3 9.36-.3 18.4 0 37.9 2.6 58.5 8.7 72.7 21.4 101.9 94.9 113.6 148.9-10.8-5.1-21.7-9.5-32.7-13.4zm-93.02-57.8c18.5 13.1 30.3 28.5 38 43.1-12.7-2.5-24.7-4.3-36.3-5.5 1.9-16 1.1-28.3-1.5-37.6zm-87.9 13.1c-31.9-6.6-76.1-9.6-130.9 1.2-3.8.7-7.5 1.5-11.2 2.4 31.2-26.9 75.6-52.1 130.2-48.3 13 .9 24.8 2.5 35.7 4.8-3.4 1.7-6.7 3.8-9.6 6.4-9.7 8.5-14.8 20.6-14.2 33.4z"/>
  <path fill="#fff" d="M840.96 1516.15c9.97-6.8 19.48-15.6 27.8-25.8 3 15.03 8.53 28.17 16.3 39.07-5.28.05-10.6-.43-15.9-1.58-11.85-2.6-21.07-6.86-28.2-11.7zm42.38-28.7c31-1.88 56.02-40.7 67.84-62.86 2.18 1 4.43 1.9 6.75 2.7.15 11.8 1.3 25.6 4.38 40.7 4 18.8 12.7 34.5 24.8 44.6-6.9 5.1-15 9.5-24.2 12-17.1 4.7-34.5 1.8-51.5-8.7-13-8-21.9-18.1-27.9-28.5zm132.66 36.92c.87.05 1.74.08 2.6.08l.2.16c6.3 0 12.6-1.3 18.6-3.9 5.08-2.1 9.74-5.9 14.03-10.8.83.8 1.68 1.5 2.57 2.1 1.83 1.4 3.73 2.7 5.72 3.7-6.95 5.7-15.05 10-24.05 10.8-6.46.6-13.14-.3-19.67-2.1zm-268.03-100.3c1.14.17 2.28.3 3.4.38.63.04 1.25.07 1.9.07l-.02.2c18 0 39.1-18.55 55.2-40.3 0 31.53 8.76 59.4 25.33 79 4.93 5.84 10.4 10.7 16.24 14.48-11.6 9.05-24.12 15.25-36.14 17.46-15.72 2.9-29.63-.93-41.38-11.33-16.8-14.88-22.86-38.67-24.53-59.97zm344.6 68.47h-.75c-10.44 0-18.88-2.67-25.7-6.74 6.5-14.1 11.84-30.83 16.26-47.6 8.55-1.62 16.48-5.43 23.32-11.04 3.68 14.83 10.07 28.92 21.03 37.05-8.58 16.1-19.8 28.2-34.17 28.4zm-126.6-63.37c2.33.33 4.67.5 7 .5h.14c20.2 0 39.8-12.37 52.5-33.77l.4-.54c1.3 5 2.8 9.66 4.5 13.85 6.6 16.6 20.2 27.3 36.5 29.4-8 21.7-18.6 41-31.9 46.7-11.8 5.1-24.6 4.5-36.1-1.5-15.4-8-26.9-25.3-31.5-47.2-.5-2.4-.9-4.9-1.3-7.3zm-270.4-17.56c7.9-.1 14.23-3.3 19.43-8.3 6.3 8.6 14 14.3 21.9 17.7-.96 10.3-1.56 24.8.3 40-5.7-2.8-11.84-7.1-18.52-13.1-11.84-10.6-18.93-23.6-23.13-36.2h.02zm128.37-32.6h.15c22.9-1.5 64.4-25.8 92.1-83.1-2.6 21.7-3.8 51.6 2.4 82.1 2.7 13.3 8.1 24.8 15.7 33.5-11 15.6-26.5 30.7-45.4 32.6-15.9 1.6-31.2-4.5-43.2-17.3-11.3-12-18.6-28.4-21.8-47.7zm352.06 22.2c-3.55 16.1-8.96 29.8-17.24 36.6-4.62 3.8-9.8 5.1-15.8 4.1-13.54-2.2-22.52-11.6-28.46-23.6 5.75-7.2 10.2-16 12.9-26 3.78-14 6.66-28.1 8.63-42.2 6.02 12.5 13.66 20.9 24 25.8 3.27 8.7 8.3 18.2 15.98 25.5zm13.13 8.6c4.37 1.8 9.27 2.9 14.77 3.1h1.7l-.3-.1h1.8c-4.93 6.2-11.44 10.8-20.05 11.6.86-4.6 1.53-9.5 2.07-14.5zm-68.67-116.2c2.05 11.7 4.2 22.1 6.65 31.3-2.4 12.5-5.3 25-8.6 37.2-6.3 23.6-21.6 38.9-39.8 40-16.7 1-31.6-9.9-39-28.5-4.5-11.3-7.5-27-9.5-43.8 11.7-8.1 22.4-19.2 29.4-29.6 22.8-.5 43.1-2.9 61-6.4zm-190.3-9.2c11.25 3 22.74 5.6 34.46 7.7 3.26.6 6.48 1.2 9.68 1.7-3 7.6-4.65 15.3-3.92 22.4.85 8.3 4.7 15.1 11.5 20.2 4.55 3.5 10.06 5.2 16.2 5.2l.05.5c2.4 0 4.9-.3 7.4-.8 4.04-.8 8.17-2.3 12.3-4.3.73 11.8 1.86 24 3.6 35.6-11.96 15.8-27.55 23.2-43.7 20.5-20.8-3.5-37.87-23.8-43.47-51.5-4-19.9-4.76-39.7-4.07-57.1zm272.46 102.6h-.1c-8.94 0-16.47-2.3-22.53-6.7 6.6-.5 13-3.3 18.9-8.2 9.9-8.1 17.7-21.8 22-37.3 1.7 15.8 3.5 37.3-5.3 47.1-3.1 3.5-7.4 5.3-13.1 5.3zm24.37-78.6c12.3 2.5 23.1 9 30.3 18.8 8.7 11.9 9.5 26.2 2.2 38.3-6 9.7-14.2 16.2-22.8 20.5 4.1-18.2.3-40.9-1.6-52.3-1.3-7.8-4.6-16.9-8.2-25.1zm141.7-183.2c13.2-1.1 24.9.9 34.6 6 12.4 6.6 21.1 18 25.6 33.9 15.4 54.6-73.5 96.3-74.4 96.7-1.6.7-2.4 2.4-2 4 .4 1.7 1.8 2.9 3.6 2.8 1.1 0 109.1-4.1 124.2 47.2 5.8 19.8-2.1 38.4-23.6 55.1-8.4 6.6-17.2 11.5-24 14.9 8.6-19.2 20.9-58-8.8-76.9-5-3.1-10.1-5.6-15.3-7.4-14.7-5-30.5-4.5-48.3 1.6-3.7 1.3-7.6 2.8-11.5 4.5 3.1-6.4 4.3-12.7 3.4-18.2-.8-4.1-3.6-12.1-15.1-15 7.3-7.9 12.3-16.1 14.6-23 2-5.8 1.1-11.8-2.6-16.9-1.9-2.7-4.4-5-7.4-6.8 15.7-4.5 28.7-11.8 37.8-21.5 8.3-8.9 12.7-19.5 12.9-30.7 0-1.3 0-2.7-.1-4.1-1.7-25.8-14.6-38-27.2-43.9 1.1-.6 2.1-1.2 3.2-1.8zM765.5 1383h-.2c-26.4-.34-42-23.03-43.9-63.9-.6-12.5.7-25.7 2.7-38.08 16.3-5.5 35.5-22.27 52-42.67-2.8 22.1-5.5 54.3-2.3 80.13 3.13 24.7 10.2 39.85 18.8 48.84-10.67 9.5-20.8 15.6-27.3 15.6zM653 1268l.7.1c.3.03.6.03 1 .03v-.03c7.3 0 17.1-5.6 25.8-17.8 2.32 8.5 5.9 15.7 10.6 21.3 5.5 6.6 12.4 10.4 20.1 11-5.7 18.8-12.4 47.1-11.2 73.1.1 2.1.23 4 .4 5.9-17.33-2-37.4-20.8-45.4-68.5-1.47-8.8-2.1-17.2-2.14-25zm560.3-10.24c1.1 38.05-.9 88-28.7 91.06-17.6 1.9-36.9-21.6-51-58.2 39.4-9.5 65.7-23.8 79.6-33zm107.6 30.34l1-.7c5.3 2.3 8.5 6 9.3 10.94 2.14 13-12.1 30.8-29.4 36.6-3.5 1.2-6.4 2-9 2.6 11.63-8.4 22.4-20.5 26.75-37.6 1.05-4.04 1.47-8 1.26-11.7zm-531.7-65.77c33.9 21.4 73.8 41.15 118 55.3-24.9 37-55.1 53.24-73.16 54.45-24.63 1.7-39.64-17.1-44.5-55.9-2.1-16.5-1.6-36.1-.25-53.82zm471.1 81.9c13.8-7.84 24.4-18.4 29.7-31.8 4.9 7.3 6.1 15.95 3.6 25.7-2.3 9.2-6.6 16.3-12.8 21.3-5.4-6.7-12.4-11.84-20.5-15.23zm-28.6-88.45c17.72 6 35.5 14.08 34.9 37.4-.6 20.8-13.4 36.1-32.18 46.3-3.3.1-6.6.47-9.94 1-.6-18.7-.9-37.1-1.06-50.1l1.34-1.1c1.8-1.5 2.3-4.1 1.3-6.2-.3-.7-.7-1.3-1.3-1.8-.05-2.18.7-8.63 7-25.46zm55.6 15.97c5-.1 9.7-.1 13.82.4 10.9 1.4 19.6 5.7 23.27 11.5 2 3.3 2.4 6.8 1.1 10.4-1.5 4.2-4.8 10.7-10.4 17.6l-.2-.2c-5.2-7.3-13.2-12.5-21.3-16.1v-.84c.2-9.5-2.3-16.8-6.4-22.6zm-582.98-77.3c18.2 18.9 42.9 40 72.9 60.1-17.56 18.4-36.36 31.2-49.37 31.4-6.56.2-12.3-2.5-16.8-7.9-11.2-13.2-14.5-41.4-8.6-73.7.6-3.4 1.25-6.6 1.88-9.8zm-37.7-11c6.5-1.5 13.7-3.9 21.3-7.5 1.67 2.1 3.4 4.2 5.3 6.4-3.58 11.58-8.6 30-13.44 55.07-2.1 10.8-2.9 21.35-2.5 31.15-5.1 3-9.6 4-12 3.6-4.7-.8-8.7-5.8-6.6-36.7.9-13.76 4.53-34.5 8-51.88zm716.2-219.6c-2.8 28.1-7.74 56.6-16.23 74.9-30.6 65.8-70.3 88-108.7 109.5-12.7 7.06-24.6 13.75-36.3 21.9-27.9 19.63-49.5 35.63-65.3 47.33-21.1 15.66-37.7 28-41.3 27.2-16.8-4-47.6-13.8-73.5-22.34 9-4 19.2-8 30.8-11.9 15.9-5.4 31.5-9.7 46.5-13.9 45.9-12.7 89.3-24.8 144.3-64.9 40.9-29.8 64.2-72.55 77-105.4 17.7-18.46 31.9-39.2 42.8-62.25zm-347.53 197.5c-60.5 0-85.8 22.4-106.2 40.3-10.7 9.5-20 17.8-32.5 20.6-9.3 2.1-19.4 3.2-25.7 3.6.5-1.3 1.2-2.9 2-4.7 4.9-9.4 13.2-24.1 23.7-39.5 15.9-20.2 39-39.8 70.7-44.1 21-2.8 45-4.6 70.5-6.6 60.8-4.6 129.6-9.9 185.1-31.1 34-13 63.1-28.7 87.5-47.3-9 12.05-20.4 24.06-34.7 35.2-64 49.8-144.2 74.66-238.1 73.76h-2.4zm-221-401.9c-3.5 12.6-6.2 25.86-8.1 39.7-6.8 16.3-12.3 33.4-15.7 50.7-13.6 70.2 6.2 126.2 23.8 175.7 9.3 26.2 18.1 51 20.1 74.1 3.3 38.1 3.3 55.2 3.4 66.5 0 8.1 0 12.9 1.3 20.1 1.4 8 7 19.46 12.2 28.88l-67.9-43.06c4.9-11.1 13.3-42.1 11.7-122.1-.5-24.9-5-47.6-9.4-69.6-7.5-37.8-15.2-76.8-4.4-131.6 7.2-36.7 20-66.5 32.9-89.3zM783.5 1132l-.04.12v-.1l.1.1zm623.6-345.63c19.73 30.95 37.2 69.03 40.2 109.75 4.5 61.2-13.7 113.42-54.2 155.2-24.78 25.6-55.2 44.45-86.04 57.84 43.1-25.7 86.3-55.2 110.1-138.94 19.2-67.3 1.3-128.1-9.7-155.9.3-9.7.2-19.1-.3-27.9zM896.64 560.9c-6.76 10.27-11.35 21.72-13.6 33.92-28.3 16.68-62.37 45.97-89.47 96.97-71.5 134.7-65.2 275.6-65.1 277 .1.5.2 1 .4 1.4.5 1 9.9 20.9 24.9 40.9-2.7-1.7-5.2-3.4-7.6-4.9-19.1-12.1-56.7-47-66.4-56.1 2.4-8.3 10.4-33.8 30-83.1 9.1-23 16.9-47.7 24.6-71.5 21.4-67.1 43.5-136.4 97.9-189.5 25.5-24.9 47.26-38.5 64.2-45.2zm-216.8 389.3l-.05.13v-.13zm286.33-102.35c7.86 5.4 16.06 10.7 24 15.23-10.74 13.28-24.2 28.5-27.9 31.45-1.97 1.62-9.62.63-22.75-7.13l26.65-39.54zm-25.24-18.25c5.76 4.3 12.37 9.2 19.37 14.16l-26.85 39.8c-1.4-.94-2.87-1.95-4.38-3.03-11.74-8.3-10.48-11-7.72-17 .37-.8.74-1.6 1.1-2.5 1.97-4.54 10.9-19.26 18.48-31.42zM1462.5 709c32.38 46.98 31.6 103.7 20.22 153.06-10.04-65.6-33.26-103.6-52.6-124.74 7.38-.84 13.4-2.9 17.98-6.2 7.22-5.15 12.22-13.1 14.4-22.13zm-257.54-71.5c-25.3 0-47.9 11.04-67.65 33.14-6.1 6.9-30.4 44.14-27.4 87.1 1.9 26.47 14 49.26 35.9 67.75 34.6 29.1 103.2 54 150.5 3 14.1-15.2 36.7-51.6 32.1-92.2-3.2-28.1-18.9-51.9-46.8-70.8-27.6-18.8-53.2-28.2-76.5-28.2l-.1.1zm-202.04-129.74c-28.5-1.84-67.48 1.68-116.7 19.57C796.5 560 754.9 625.7 735.7 675c-18.86 48.52-23.62 99.93-19.45 141.8-.44 1.38-.9 2.74-1.34 4.1-21.5-68.57-8.7-139.33-1.2-169.7 12.9-51.76 43.2-123.2 158.2-145.76 25.1-4.92 47.9-6.78 67.9-6.78v-.07c25.5 0 46.6 3 62.6 6.5l.6 2.6zM988.1 522.6c-24.55 0-48.23 7.53-65.9 21.4-25.58 20.06-37.4 50.48-32.4 83.46 5.53 36.64 29.95 68.3 62.2 80.63 17.14 6.5 35.27 7.3 53.9 2.2 35.83-9.7 65.72-35.7 78-67.9 6.97-18.3 11.12-46.6-8.76-77-14.04-21.5-38.62-36.6-67.45-41.3-6.6-1.1-13.1-1.6-19.6-1.6v.1zm231.3 158.74c-.3-16.58-14-29.76-30.5-29.48-16.57.3-29.77 13.95-29.47 30.52.27 16.56 13.94 29.76 30.5 29.46 16.57-.28 29.77-13.94 29.47-30.5zm40.8-104.46c20.4-8.33 49.23-15.42 87.57-14.67 109.05 2.1 158.28 75.6 167.28 137.8.28 2 .54 3.9.77 5.7-13.85-30-34.18-57.9-62.5-79.2-71.03-53.6-148.86-39.4-170.48-33.9-7.47-5.5-15.02-10.7-22.64-15.6zm-68.46 90.87c.08 4.74-3.7 8.66-8.45 8.74-4.8 0-8.7-3.7-8.8-8.5-.1-4.8 3.7-8.7 8.4-8.8 4.7-.1 8.6 3.7 8.7 8.4l.1.1zM1333 635.2c16.9 1.5 36.53 5.6 56.95 14.7-15.63 1.2-27.03 5.64-33.85 9.1-7.6-8.3-15.3-16.22-23.1-23.8zm-338.88-76.04c.27 15.8-12.32 28.84-28.12 29.1-15.8.3-28.83-12.3-29.1-28.1-.28-15.8 12.3-28.84 28.1-29.1 15.8-.3 28.84 12.3 29.12 28.1zm-24.14-11.74c.08 4.75-3.7 8.66-8.45 8.75-4.75.08-8.66-3.7-8.75-8.45-.08-4.75 3.7-8.67 8.45-8.75 4.75-.08 8.67 3.7 8.75 8.45zm251.07.76c-12.4-55.55-42.93-130.2-118.1-152.38-38.3-11.3-73.2-11-103.74-4.23-25.5-.08-50 4-72 10.64 27.1-20.9 61.9-38.5 101.8-43.5 9.9-1.2 19.3-1.8 28.4-1.8v.2c61.4 0 106.7 28.5 155.2 95.3 21.5 29.7 32.7 57.3 38.5 78.7-13.7 6.1-23.7 12.7-29.8 17.2zm-183.16-98.56c-14.3-3.84-30.3-6.58-48.5-7.84-63.2-4.4-113.1 28.32-145.6 59.33-12.5 3.7-24.1 8-35 13.1 8.9-15.8 26-42.7 50.5-64.6 39.9-35.7 139.9-69.3 227.8-27.9 36.3 17.2 61.5 43.3 74.9 77.7 5.4 14 7.7 26.5 8.6 35.2-8.2-2.5-16.3-4.8-24.6-6.7-3.9-.9-7.6-1.7-11.3-2.5-9.1-18.9-24.6-39.9-51.1-56.2-7.6-12.1-20-16.7-32.5-19.1-4.5-.8-9-.9-13.5-.3z"/>
</svg>
