<svg xmlns="http://www.w3.org/2000/svg" viewBox="0 0 2040 2040"><path fill="#fff" d="M2038.94 1019.47c0 563.04-456.43 1019.47-1019.47 1019.47S0 1582.5 0 1019.47 456.43 0 1019.47 0s1019.47 456.43 1019.47 1019.47"/><path fill="#36bfbd" d="M317.18 206.1c-38.96-27.63-86.84-49.1-135.5-49.1-3.45 0-6.9.1-10.34.34-35.98 2.37-70.58 21.33-90.22 51.85-21.06 32.7-23.82 78.1 6.82 105.9 18.9-9.5 38.26-12.4 54.72-12.4 24.85 0 43.1 6.5 43.1 6.5-4.76-.8-9.46-1.2-14.08-1.2-52.5 0-95.44 49.2-85.75 102.8 5.8 32 30.5 58.8 61.27 68.7 1.77.5 3.65 1.1 5.48 1.1.85 0 1.7-.2 2.52-.4 2.6-.9 4.44-3.2 6.12-5.3 9.8-12.7 19.93-25.3 32.5-35.3 12.54-9.9 27.88-17 43.82-17h.18-.04c-14.98 0-27.53 21.3-33.68 32.5-10.5 19.2-14.07 41.5-7.4 62.7 9.48 30.2 37.6 51.6 68.9 54.3 2.38.2 4.74.3 7.07.3 41.43 0 76.7-31.7 80.34-73.8.8-8.8.1-17.3-1.8-25.5 116.6 42 220.3 108.7 305.3 193.7-64.1-184.9-183.1-345.7-339.2-461"/><path fill="#fff" d="M631.3 692.26c-70.8-70.73-155.5-127.97-247.15-167.32-15.25 51.5-65.7 88.18-121.66 83.16-46.1-3.98-86.2-35.78-99.8-79.12-1.4-4.3-2.5-8.68-3.3-13.08-9 1.4-17.8-.52-23.3-2.28-43.9-14.2-77.4-52.02-85.4-96.3-4.8-26.5-.6-53.52 11.6-77.2-39.6-37.44-44.4-98.86-11.3-150.18 25.4-39.45 69.4-64.9 117.8-68.1 69-4.3 130.6 28.2 168.7 55.25l.5.4c163.9 120.8 285.5 286.1 352 477.9l-58.8 36.8z"/><path fill="#36bfbd" d="M317.18 206.1c-38.96-27.63-86.84-49.1-135.5-49.1-3.45 0-6.9.1-10.34.34-35.98 2.37-70.58 21.33-90.22 51.85-21.06 32.7-23.82 78.1 6.82 105.9 18.9-9.5 38.26-12.4 54.72-12.4 24.85 0 43.1 6.5 43.1 6.5-4.76-.8-9.46-1.2-14.08-1.2-52.5 0-95.44 49.2-85.75 102.8 5.8 32 30.5 58.8 61.27 68.7 1.77.5 3.65 1.1 5.48 1.1.85 0 1.7-.2 2.52-.4 2.6-.9 4.44-3.2 6.12-5.3 9.8-12.7 19.93-25.3 32.5-35.3 12.54-9.9 27.88-17 43.82-17h.18-.04c-14.98 0-27.53 21.3-33.68 32.5-10.5 19.2-14.07 41.5-7.4 62.7 9.48 30.2 37.6 51.6 68.9 54.3 2.38.2 4.74.3 7.07.3 41.43 0 76.7-31.7 80.34-73.8.8-8.8.1-17.3-1.8-25.5 116.6 42 220.3 108.7 305.3 193.7-64.1-184.9-183.1-345.7-339.2-461"/><path fill="#e94661" d="M1103.42 1712.57c1.4-29.2 2.5-59.92-9.65-85.86-17.73-37.8-64.03-64.9-103.42-67.4-39.95-2.5-86.34-22.7-125.54-4.1-15.1 7.2-28.5 17.2-40.9 29.1s-19.8 28.6-26.7 44.9c-18.4 43.5-36.1 88.6-39.3 136.1-3.1 47.5 10.6 98.6 45.3 127.5 24.5 20.3 56 27.5 86.4 33.4 40 7.8 81.7 14.4 121.2 3.2 39.6-11.1 76.8-44.4 82.2-88 5.6-45 8.4-83.3 10.6-128.5zm314.45 115.74c-35.34 37.5-87.78 55.9-138.84 51-36.93-3.6-109.67-32.6-108.3-79.5.5-17.2 77.55-58.5 87.57-45.1 13.94 18.6 34 18.8 46.44 17.4 65.42-7.1 50.2-94.4 25.6-124.7-16.5-20.3-61-52.2-85.54-28-18.5 18.2-16.98 51.9-21.27 75.6-3.58 19.7-58.24 30.7-76.2 22.1-17.94-8.6-24.08-90.3.13-138.4 28.6-56.8 117.3-89.5 178.48-72 61.18 17.6 109.64 68.2 133.56 127.2 16.1 39.7 14.82 134.9-41.63 194.7zm-429.27-81.4c-9.1 37.5-4.38 63.6-52.96 59.3-48.58-4.2-58.73-48.2-50.26-91.8 8.46-43.5 33.8-58.1 49.04-54.5 48.6 11.8 63.28 49.5 54.18 87zM658.3 1798c39.98-71.08 80.9-141.86 130.75-206.34 7.6-9.84 15.73-20.3 16.83-32.67 1.65-18.6-12.65-34.3-25.9-47.3-9.32-9.2-24.47-26.2-37.4-24.3-5.7.8-7.75 1.7-12.66 4.8-22.32 13.7-54.9 62-66.2 50.5-25.6-38.9 23.04-64.8 18.25-98.1-4.8-33.3-31.95-65.9-65.52-64.5-20.15.9-37.73 13.2-54 25.1l-210.8 154.1c-9.06 6.6-19.1 15.1-18.66 26.4.9 22.6 6.9 47.7 22.8 63.8s22.9 21.4 43.3 31.4c5.2 2.5 10.6 5.1 16.4 4.9 7.1-.2 13.4-4.4 19.3-8.5 38.1-26.5 76.9-67.3 115-93.8-.1 1.4 8.7 3.1 7.9 11.7-3.1 31.9-19.4 106.6-20.3 135.8-.3 7.1-.4 14.6 2.6 21 2.2 4.9 6.1 8.8 9.9 12.5 16 15.5 45.5 27.5 70.5 39.3 9.8 4.6 33.9.6 37.7-6.2zm1143.73-412c-18.4-19.34-45.44-31.17-67-46.8-22.5-16.33-44.2-33.7-66.32-50.56-22.7-17.32-45.9-34.18-70.8-48.48-21.5-12.37-50.5-29.5-75.5-32.18-21-2.25-38.8 35.7-47.3 51.17-4.5 8.3-21.9 35.8-17.1 45.57.9 1.76 2.4 3.07 3.9 4.3 6.6 5.32 59.9 33.4 47.2 43.47-12.3 9.7-73 8.9-106 9 0 0-37.9 47.1-62 77.2-5.9 7.4-12.2 16-11.1 25.4l5.7 1.4c46.1 12.2 96.1-5.3 141.9-11.5 1.3-.2 2.8-.3 3.8.5.8.6 1.1 1.7 1.3 2.7 1.7 9.3-4.8 18-10.5 25.6-29 38.9-19.6 84.1 9.6 120.6 25 31.1 60.1 55.1 99.4 62 83.1 14.7 137.8-54.6 177-117.7 11.8-18.9 22.5-38.4 32.8-58.1 9.1-17.4 23.8-37.4 27.9-56.7 3.7-17-4.2-34.8-16.2-47.4zm-145.48 115l-14.66 24.56c-1.6 2.7-3.3 5.45-5.8 7.3-7 5.16-16.8 1.43-24.5-2.42-10.2-5.02-21.7-12.08-22.3-23.38-.3-5.5 2.2-10.68 4.7-15.58 11.7-23.17 24.3-45.96 37.5-68.33 21.3 4.9 36.5 12.1 48.2 30.6-13.2 33.7-23.3 47.26-23.3 47.26zm239.5-530.08c16.44 19.73.83 204.43-24.3 309.52-3.66 15.27-3.25 30.53-11.54 44.48-2.6 4.42-5.9 8.28-11.5 8.28-3.4 0-6.8-1.25-10-2.5-21.8-8.3-43.7-16.7-63.3-29.35-7.3-4.72-14.6-10.75-16.5-19.66-2.1-9.9 3.5-19 5.2-28.5l9.3-50.7 8.8-47.9c1-5.2 11.7-45.7 8.8-47.9-6.2-4.8-16.8-.6-18.1 7.1.2-.5-4.8 27.6-4.6 27.1-10.5 25.8-14.9 53.7-20.7 80.8-3.8 17.5-8.5 54.3-33.3 52.6-7.4-.6-14.2-4.1-20.7-7.8-14.6-8.4-36.8-19.3-48.3-31.9-18.5-20.2 23.1-97.2 29.7-121.4 1.5-5.6 2.9-11.4 2.1-17.1-.9-5.7-4.6-11.4-10.2-12.8-5.6-1.4-7.4 1.9-8.8 7.6-6.7 27.1-12.5 55.7-25.2 80.9-20 39.7-53.4 28.6-84.8 1.9-3.7-3.2-7.2-6.8-8.8-11.4-2.2-6.6.2-13.8 2.6-20.4 22.8-62.6 41.5-176 68.4-187.8 26.9-11.8 60.5-8.7 94.2-12.6 31-3.5 62.2-7.1 93.4-5.7 11 .5 21.9 1.67 32.9 2.8 20.2 2.1 49.3 11.9 65.7 31.6zm-4.96-160.2c-1.1-23.54-17.8-59.63-46.9-59.62-16.6 0-32.5 8.45-49 6.93-25.1-2.3-42.1-26.3-52.6-49.22-3-6.4-5.8-13.2-5.8-20.3 0-24.4 29-36.1 47.1-52.5 20.7-18.8 28.5-50.7 18.7-77-9.7-26.3-36.4-45.4-64.4-46.2-25.4-.7-48.9 11.9-70.9 24.6-68.4 39.5-134.5 82.7-198.2 129.5-8.4 22 1.1 46 22 56.7 35.3 18.2 81.6-11 117 7.2 28.2 14.4 33.3 59.6 8.9 79.9-14.3 12-35.6 16-44.9 32.1-4.9 8.4-5.4 18.7-3.9 28.3 5.3 34.7 19.8 47.4 54.5 52.8 32.2 5 77.1-2.2 107.4-14.2 35.1-13.9 73.7-17.4 108.8-31.3 14.2-5.7 28.9-11.6 39.8-22.4 10.9-10.8 12.9-21.3 11.8-44.8zm-226.3-407.47c-2.8-16.98-23.1-31.67-27.6-36.58-46.2-50.46-104.2-90.1-168-114.9-31.2-12.12-73.2-29.54-93.2-2.68-57.4 77.2-157.8 215.3-153.6 244.2 4.2 28.9 62.3 55 87.4 36.5 25-18.5 49.1-40.5 60.6-32.4 11.4 8 75.1 52.4 115.4 67.9 22.2 8.6 46.6 15.4 69.7 9.4 27.9-7.3 47.6-31.6 64.4-55 11.5-16.1 22.7-32.6 29.4-51.2 3.9-11.1 19.1-40.8 15.1-65.6zM819 208.68c-33.05-23.4-73.18-30.13-112.4-24.64-42.5 5.94-83.22 26.5-111.67 58.86-10.32 11.76-19.45 26.13-22.23 41.76-3.34 18.8-21.7 72.32 35.25 186.63 11.97 24 39.9 58.7 63.68 71.1 47.4 24.7 86 27.7 121.86 24.2 24.9-2.5 56.3-19.3 77.8-31.8 21.2-12.3 37.2-34 49.2-56 16-29.4 13.3-59.6 7.4-87.4-5.9-27.8-26.7-50.5-40.2-75.5-3.5-6.4-6.9-15.5-28-11.5-24.7 4.7-85.8 23.4-87.5 42.5-1.8 20 24.2 81.8 43.6 61.2 12.1-13 25.4 6.3 19.7 13.2 0 0-15.9 13.3-31 21.5-11.9 6.5-24.3 13.1-37.8 14.4-66.7 6-110.5-95.9-76.3-143.1 7.9-10.9 27.2-29.7 41.4-27.9 8.3 1 24.2 9.3 25.7 17.6 2.7 15 24.4 2.6 39.5-4.4 15.7-7.3 33.6-14.8 47.1-21.9 13.5-7.2-16.4-62.8-25.5-69.2zm470.15 19.95c-3.9-18.12-15.4-33.13-26.24-48.17-56.9-79-221.2-64.9-221.2-64.9-30.1-2.08-58.3 18.17-73.9 44.04-15.6 25.86-20.8 56.54-24.3 86.53-4.9 41.8-7.2 85.17 6.2 125.1 13.4 39.95 45.3 76.05 86.8 83.35 0 0 140.7 25.8 171.1-5.78 11.5-11.97 22.3-24.5 30.5-38.94 17.9-31.36 32.3-64.66 43-99.12 8.3-26.58 14.3-54.9 8.4-82.1zm220.8 214.84c-35.16-14.28-80.1-34.9-73.75-52.58 0 0 11.17-43.9 32.05-40.1 20.87 3.9 95.9 46.9 89.47 63.3-6.43 16.4-12.63 43.5-47.78 29.2zm-373.46-89c-2.7 9.95-6.3 21.06-15.6 25.55-6.8 3.26-14.8 2.02-22 .07-8.1-2.2-16.1-5.3-22.6-10.6-12.7-10.5-17.4-28.1-17.1-44.5.3-16.5 4.9-32.5 7.5-48.7 2.6-16.3 3.5-33.6 12.3-47.5 26.1-41 63.7-12.9 71.3 15 8.2 30.6-5.7 80-13.9 110.6z"/><path fill="#e94661" d="M1707.66 330.7c-184.32-184.3-429.4-285.82-690.05-285.82-218 0-425.1 71.08-594.9 202.22 4.4 4.1 8.8 8.22 13.2 12.38C602.1 131.88 804.5 62.7 1017.6 62.7c255.9 0 496.5 99.65 677.45 280.6 180.96 180.96 280.6 421.55 280.6 677.45 0 255.9-99.64 496.5-280.6 677.45-180.95 180.96-421.54 280.6-677.44 280.6-255.9 0-496.5-99.64-677.4-280.6-180.9-180.95-280.6-421.54-280.6-677.45 0-164.03 41-321.75 118.1-461.52-4-5.72-7.4-11.84-10.3-18.25-82 144.74-125.6 308.9-125.6 479.77 0 260.67 101.5 505.74 285.9 690.05 184.3 184.33 429.4 285.84 690.1 285.84 260.7 0 505.8-101.5 690.1-285.84 184.3-184.3 285.9-429.38 285.9-690.05 0-260.66-101.5-505.73-285.8-690.05"/><path fill="#36bfbd" d="M492.32 1370.4c-45.2 0-88.27-26.2-107.7-70.18-78.88-178.8-78.38-383.65 1.4-562.03 26.5-59.4 96.1-85.9 155.4-59.4 59.3 26.5 85.9 96.1 59.37 155.4-52.7 117.7-53 252.9-1 371 26.2 59.4-.7 128.9-60.2 155.1-15.5 6.8-31.6 10-47.5 10"/><path fill="#fff" d="M474.22 1300.04c-6.5 1.67-12.8 2.2-18.88 1.62-6.08-.58-11.74-2.14-16.95-4.67-5.3-2.6-9.9-6-13.8-10.4-4-4.4-7.1-9.4-9.4-14.9-2.6-6.3-4.2-12.5-4.7-18.7-.5-6.2.1-11.9 1.8-17.3s4.6-10.3 8.6-14.6c4-4.4 9.4-7.9 16.1-10.7 5-2.1 10.5-3.2 16.4-3.5 5.9-.3 11.7.4 17.3 2.1l76.4 23.9-23.6-57.2 23.5-9.7 36.8 89.5-22.1 9.1L467 1235c-7-2-13.13-1.9-18.4.3-4.73 1.9-8.3 5.2-10.7 9.9s-2.3 10.2.3 16.6c2.2 5.27 5.8 9.03 10.9 11.3 5.1 2.23 11.3 2.44 18.58.6l6.2 26zm7.1-256.68c7.36-.95 14.12-.44 20.28 1.5 6.17 1.92 11.5 4.82 15.96 8.68 4.46 3.87 8.1 8.58 10.92 14.13 2.82 5.56 4.62 11.4 5.4 17.53.8 6.13.52 12.2-.8 18.2-1.34 6.02-3.68 11.46-7.03 16.33-3.34 4.87-7.75 9.02-13.23 12.45-5.48 3.43-11.9 5.6-19.25 6.55l-69.18 8.9c-7.5.95-14.3.46-20.4-1.48-6.1-1.94-11.4-4.85-16-8.7-4.6-3.86-8.2-8.52-11-14-2.8-5.5-4.6-11.3-5.4-17.42-.8-6.12-.5-12.23.8-18.32 1.3-6 3.7-11.5 7.1-16.4 3.4-4.9 7.8-9 13.2-12.4 5.4-3.4 11.8-5.6 19.3-6.5l69.2-8.9zm-65.23 35.24c-7.4.95-12.8 3.63-16.2 8.04-3.5 4.4-4.8 9.83-3.9 16.27.8 6.5 3.4 11.4 7.8 14.7s10.3 4.5 17.7 3.6l67.8-8.7c7.4-.9 12.8-3.6 16.2-7.9 3.4-4.3 4.7-9.7 3.9-16.1-.9-6.4-3.5-11.3-7.9-14.7-4.5-3.4-10.4-4.6-17.7-3.6l-67.9 8.7zm116.4-114.2l-130.9-18 12.7 24.44-27.7-3.84-13.7-26.42 3.4-24.58L536 938l-3.63 26.4zm31.6-121.88l-11.3 26.44-103.3-104.08-15.5 36.47 21.1 8.97-10.4 24.53-44.6-18.95 37.7-88.7 22.2 9.42 104 105.9z"/><path fill="#36bfbd" d="M274.93 1455.22c-.1 6.4.72 12.26 2.46 17.6 1.7 5.36 3.8 9.98 6.3 13.87 4.1 6.5 8.4 10.3 12.8 11.4 4.3 1.1 8.4.4 12.2-2 2.2-1.5 3.8-3.1 4.7-5 .8-1.9 1.1-4.3.8-7.1-.3-2.9-1.1-6.1-2.4-9.9-1.3-3.8-3-8.2-5.1-13.3-1.8-4.4-3.2-8.8-4.5-13.3-1.2-4.5-1.6-9-1.2-13.4.4-4.5 1.9-8.7 4.4-12.8 2.5-4.1 6.5-7.9 12-11.4 5.2-3.3 10.5-5.2 15.9-5.6 5.4-.4 10.6.3 15.7 2.2s9.9 4.8 14.4 8.8c4.5 4 8.5 8.6 11.9 14.1 4.4 7 8 14.9 10.6 23.7 2.6 8.7 3.1 18.1 1.5 28l-21.6-2.1c1.4-7.4 1.2-14.3-.4-20.9-1.7-6.6-4.4-12.8-8.2-18.8-3.8-5.9-8.1-10-12.8-12-4.8-2.1-9.6-1.6-14.4 1.4-4.3 2.7-6.5 6.4-6.7 11-.2 4.6 1.3 10.5 4.5 17.7 2.3 5 4.3 10 6.1 15.2 1.7 5.1 2.6 10.1 2.6 15s-1.2 9.5-3.5 14c-2.4 4.4-6.5 8.5-12.5 12.3-5.3 3.3-10.6 5.3-15.9 5.7-5.2.4-10.3-.2-15-2s-9.2-4.4-13.2-8c-4.1-3.6-7.6-7.6-10.5-12.2-4.4-6.9-7.7-13.8-10-20.7-2.3-7-3.2-14.2-2.9-21.6l21.2-.6zm70.26-75.46l-112.6 57.87-10.1-19.57L335 1360.2l10.05 19.56zm-48.4-109.83L256 1327.7l-20.56 26.9.36.4 81.7-31.77 7.96 20.5-117.95 45.83-7.4-18.98 37.4-52.55 24.1-32.38-.5-.2-81.7 31.73-7.9-20.5 118-45.82 7.4 18.98zm-40.1-73.04c-.8-3.6-2.3-6.7-4.3-9.4-2.1-2.7-4.5-4.9-7.3-6.5-2.8-1.7-5.9-2.8-9.3-3.4-3.4-.6-6.7-.5-10 .3l-5.4 1.2 6 25.7-18.4 4.3-11-47.1 24.2-5.7c6.4-1.5 12.5-1.7 18.4-.6s11.3 3.2 16.2 6.4 9.1 7.3 12.6 12.5 6 11 7.5 17.5c1.8 7.8 2.2 14.8 1.1 21.1-1.1 6.3-3.3 11.8-6.6 16.6-3.3 4.7-7.6 8.7-12.9 11.8s-11.3 5.5-17.9 7l-31.5 7.3c-6.2 1.4-12.3 1.8-18.4 1.3-6.1-.5-11.8-2.2-16.9-4.9-5.2-2.7-9.7-6.6-13.6-11.7-3.9-5.1-6.7-11.5-8.5-19.1-2.5-10.9-2-20.6 1.5-29.3s9.2-15.5 17.1-20.6l12.7 18.3c-4.5 2.7-7.8 6.3-9.9 11-2.1 4.6-2.5 10-1.1 16 1 4.1 2.5 7.5 4.6 10.1 2.1 2.6 4.6 4.6 7.4 5.9 2.8 1.3 5.9 2.1 9.2 2.3 3.3.2 6.5 0 9.7-.8l33.3-7.7c3.3-.8 6.4-2.1 9.4-3.8 2.9-1.8 5.4-3.9 7.4-6.5s3.44-5.6 4.3-8.9c.84-3.4.8-7.1-.2-11.3zm-1.3-140.9l-27 12.5 4.2 46.7 28.8 7.6 2.1 23-130.4-36.1-1.7-17.8 121.6-59.2 2.1 23.1zm-69.8 31.4l-25.2 10.7v.5l26.1 5.8 26.8 6.1-3.1-33.9-24.8 10.6zm-14.1-156c5 .2 9.8 1.4 14.4 3.6 4.5 2.2 8.4 5.2 11.7 9 3.3 3.7 6 8.2 7.8 13.4 1.9 5.2 2.7 10.8 2.4 17l-1.3 28.8 48.5 2.1-1 21.9-126.4-5.6 2.2-49.2c.2-6 1.3-11.5 3.3-16.6 1.9-5.2 4.6-9.6 8-13.4 3.4-3.8 7.7-6.7 12.7-8.7 5-2.1 10.8-2.9 17.4-2.6zm-1.5 22.5c-6.6-.3-11.5 1.4-14.7 5.1-3.3 3.7-5 8.7-5.3 15l-1.2 26.7 37.9 1.7 1.2-27.4c.3-6.5-1.4-11.5-5-15.3s-8-5.7-13-6zM141.7 865c1.28-7.17 3.63-13.4 7.04-18.7 3.4-5.3 7.56-9.6 12.46-12.9 4.97-3.3 10.5-5.54 16.67-6.65 6.18-1.1 12.66-1.06 19.46.15l31.85 5.7c7.28 1.3 13.65 3.6 19.1 6.9 5.45 3.24 9.87 7.26 13.26 12.05 3.4 4.8 5.68 10.26 6.87 16.38 1.2 6.14 1.2 12.7-.1 19.75-1.4 7.77-3.9 14.34-7.5 19.73-3.6 5.4-7.9 9.6-12.9 12.7-5 3.1-10.6 5-16.6 5.9-6 .9-12.2.8-18.6-.4l-31.8-5.7c-6.2-1.1-12-3.1-17.4-6-5.3-2.9-9.9-6.7-13.6-11.3-3.6-4.6-6.2-10-7.8-16.3-1.5-6.3-1.5-13.3-.1-21.1zm20.4 3.73c-.76 4.2-.7 7.94.2 11.24.9 3.32 2.37 6.2 4.45 8.68 2.08 2.47 4.58 4.5 7.5 6.07 2.92 1.57 6 2.64 9.2 3.22l33.48 5.98c3.46.62 6.86.7 10.2.25 3.35-.45 6.46-1.47 9.32-3.06 2.87-1.6 5.33-3.7 7.36-6.5 2.1-2.8 3.5-6.2 4.2-10.4.7-3.9.6-7.4-.2-10.7-.8-3.3-2.2-6.2-4.2-8.8-2-2.5-4.5-4.6-7.5-6.3-3.1-1.7-6.5-2.9-10.3-3.6l-33.5-6c-3.5-.6-7-.6-10.3-.1-3.3.6-6.3 1.7-9 3.4s-5 4-6.9 6.8c-1.9 2.8-3.2 6.2-3.9 10zM299.63 764.1l-56.4 4.9-7.25 22.3 49.63 16.06-6.7 20.93-120.4-39 16.6-51.2c1.7-5.1 4-9.6 7.1-13.6 3.1-4 6.6-7.2 10.7-9.6 4-2.4 8.5-3.9 13.5-4.4 5-.5 10.1.1 15.4 1.8 7.7 2.5 13.8 6.8 18.2 12.8 4.4 6 6.8 13.3 7.1 21.8l60.5-6.7-7.6 23.5zm-85.1-30.2c-5.68-1.83-10.35-1.43-14.03 1.2-3.66 2.64-6.4 6.73-8.2 12.26l-8.7 27 33.73 10.9 8.5-26.3c1.83-5.65 1.82-10.78-.02-15.38-1.8-4.67-5.6-7.9-11.2-9.7zm98.16-5.2l-114.3-54.2 36.3-76.55 18.1 8.57-26.9 56.67 29.9 14.1 22.9-48.3 17.4 8.2-22.9 48.3 30.9 14.6 26.9-56.7 18 8.6-36.3 76.5z"/><path fill="#dededd" d="M665.48 1106.08s-59.04 128.13-3.35 288.2c55.7 160.1 245.37 169.7 317.66 159.24 72.2-10.46 159.4-59.36 259-155.42 99.5-96.05 146.1-108.17 182.4-85.12 35.5 22.57 1.4 80.8 1.4 80.8s60.1 12.75 91.5-38.4c31.3-51.16 5.6-93-29.5-106.47-22.1-8.5-39.2-6.2-39.2-6.2s31.2-24.6 32.1-69.5c1-50.4-55.4-63.1-71.4-64.3-36.8-2.8-65.5 18.4-65.5 18.4s43.3-2.8 46.4 44.1c2.3 35.4-43 62-106.1 53.6-23.8-3.1-51.5-17.5-51.5-17.5"/><path fill="#414143" d="M934.32 1561.87c-36.15 0-79.45-5.02-121.27-18.94-77.6-25.82-131.52-76.6-155.97-146.88-55.75-160.26 2.94-290.9 3.54-292.2 1.24-2.7 4.4-3.87 7.1-2.62 2.67 1.23 3.85 4.4 2.62 7.1-.58 1.25-57.44 128.18-3.16 284.2 23.65 67.98 73.86 115.16 149.24 140.25 60.17 20.02 123.45 21.1 162.6 15.45 75.3-10.9 161.44-62.7 256.06-153.97 92.6-89.33 145.6-113.36 189.02-85.8 32.05 20.35 15.1 64 6.8 81.07 16.17 1.5 55.6.73 78.67-36.95 13.06-21.33 16.6-42.5 10.27-61.16-5.68-16.76-19.55-30.78-37.08-37.53-20.42-7.9-36.46-6-36.62-5.9-2.4.2-4.68-1.1-5.6-3.3-.94-2.2-.28-4.8 1.6-6.3.3-.3 29.3-23.8 30.12-65.5 1.04-52.3-65.74-58.9-66.4-58.9-19.9-1.5-37.44 4.5-48.73 9.8 14.46 4 33.4 15.3 35.5 46.9.9 13.9-4.56 26.8-15.8 37.3-20.34 19-56.32 27.2-96.3 21.9-24.46-3.3-52.1-17.5-53.26-18.1-2.62-1.4-3.64-4.6-2.28-7.2 1.3-2.7 4.5-3.7 7.2-2.3.2.1 27.1 13.9 49.7 16.9 36.8 4.9 69.5-2.3 87.6-19.1 8.8-8.3 13.1-18.3 12.4-28.9-2.7-41-39.3-39.2-40.8-39-2.4.1-4.6-1.3-5.4-3.5-.8-2.2-.1-4.7 1.8-6.1 1.2-.9 30.7-22.3 69-19.4 21.5 1.6 77.3 17.4 76.3 69.7-.6 30.9-14.7 52.6-24.6 64.1 7.4.6 17.2 2.3 28.2 6.5 20.7 8 36.5 24 43.3 44.1 5.1 15.2 7.4 39.7-11.3 70.1-33 53.7-96.6 41-97.2 40.8-1.7-.4-3.1-1.5-3.8-3.1-.7-1.6-.6-3.4.3-4.9.3-.5 31.1-54 .3-73.6-44.2-28.1-102.3 13.4-175.9 84.4-96.3 92.8-184.4 145.6-262 156.8-13.1 1.9-28.9 3.1-46.3 3.1"/><path fill="#fff" d="M1422.64 1393.77s76.34-27.88 61.2-79.4c-16.05-54.54-127.8-49.7-127.8-49.7s92.78-42.7 76.28-100.98c-10.7-37.8-44.46-52.3-91.53-36.6 0 0 46.3-7.4 46.3 50.4 0 34.2-42.2 41.9-63.3 46.7-21.2 4.8-33.7 56.1-33.7 56.1l14.6 62.1s64.4-62.2 116.4-29.5c37.7 23.7 1.4 80.7 1.4 80.7"/><path fill="#414143" d="M1387.86 1299.98c12.82 0 24.7 3.33 35.27 10 9.36 5.88 15.3 14.17 17.65 24.62 4.2 18.7-4.1 39.87-9.98 51.75 6.97-3.33 16.84-8.67 26.04-15.87 21.45-16.78 29.38-35.32 23.56-55.1-15.08-51.28-123.1-47.2-124.2-47.15-1.83.14-3.23-1.07-3.63-2.72-.4-1.6.42-3.3 1.97-4 .9-.4 89.82-42.1 74.35-96.7-4.5-15.9-13.2-27.3-25.6-33.9-11.5-6-25.8-7.7-42.2-5 4.4 1.5 9 3.9 13.3 7.5 10.8 9.3 16.3 24.2 16.3 44.4 0 35.5-41.1 44.7-63.1 49.6l-3 .7c-15.3 3.5-27.2 38.4-30.8 52.7l13 55.4c6.4-5.5 19-15.4 35-23.5 16.2-8.2 31.6-12.3 45.9-12.3m34.8 97.4c-1.1 0-2.1-.5-2.8-1.3-1-1.2-1.1-2.8-.2-4.1.2-.3 19.6-31.4 14.2-55.7-2-8.5-6.8-15.3-14.5-20.1-49-30.8-111.4 28.5-112 29.1-.9.9-2.3 1.2-3.5.8-1.2-.4-2.2-1.3-2.5-2.6l-14.6-62.1c-.1-.5-.1-1.1 0-1.7 1.3-5.4 13.6-53.6 36.3-58.7l2.9-.7c21.5-4.8 57.5-12.8 57.5-42.6 0-18-4.6-31.1-13.8-38.9-12.1-10.4-28.4-8-28.5-8-1.9.3-3.6-.9-4-2.7-.5-1.8.5-3.6 2.3-4.2 26.3-8.8 49.5-8.6 67 .7 14 7.4 24.1 20.7 29.1 38.3 7.1 25.3-4.3 51.6-33.1 76.1-11.5 9.8-23.5 17.3-32.2 22.3 11 .3 27.1 1.3 44 4.5 40.6 7.6 65.7 24.2 72.7 47.8 6.6 22.6-2.4 44.3-26.1 62.9-17.4 13.6-36.5 20.7-37.3 21-.4.2-.8.2-1.2.2"/><path fill="#414143" d="M1438.87 1400.42c-10.3 0-17.14-1.38-17.34-1.42-1.68-.36-3.1-1.5-3.8-3.07-.68-1.57-.57-3.38.3-4.86.3-.54 31.1-54.04.34-73.57-23.46-14.9-48.85-11.93-84.9 9.96-2.52 1.52-5.8.72-7.34-1.8-1.54-2.53-.73-5.82 1.8-7.35 39.5-23.9 69.15-27 96.17-9.8 16.64 10.6 22.3 29.5 16.38 54.6-2.53 10.7-6.63 20.3-9.6 26.5 16.15 1.5 55.6.8 78.7-36.9 13.05-21.3 16.6-42.5 10.26-61.1-5.68-16.7-19.55-30.8-37.08-37.5-20.6-7.9-36.45-5.9-36.6-5.9-2.4.3-4.7-1-5.63-3.2-.94-2.2-.28-4.8 1.6-6.3.3-.2 29.3-23.8 30.13-65.5 1.04-52.2-65.74-58.8-66.4-58.9-19.96-1.5-37.5 4.5-48.76 9.9 14.46 4 33.42 15.3 35.52 46.9.82 12.6-3.6 24.5-12.83 34.4-15.3 16.5-42.3 26.2-74 26.5h-.1c-2.9 0-5.3-2.3-5.4-5.3-.1-2.9 2.3-5.3 5.3-5.4 28.8-.3 52.9-8.7 66.2-23 7.2-7.7 10.6-16.9 10-26.4-2.7-40.8-39.3-39.1-40.9-39-2.4.2-4.6-1.3-5.4-3.5-.8-2.2-.1-4.7 1.8-6.1 1.2-.9 30.7-22.3 69.1-19.4 21.6 1.7 77.3 17.4 76.3 69.8-.6 30.9-14.7 52.6-24.6 64.2 7.4.6 17.2 2.3 28.2 6.5 20.8 8 36.6 24.1 43.4 44.1 5.1 15.2 7.4 39.7-11.3 70.2-22.2 36.3-58.4 42.3-79.8 42.3"/><path fill="#dededd" d="M1281.85 1325.3s-13.8 22.76 16.1 15.76c50.26-11.77 73.58-69.72 22.88-63.9-59.67 6.85-38.98 48.13-38.98 48.13"/><path fill="#414143" d="M1284.9 1327.13c-1.8 3-3.56 8.2-2.15 10.14.54.74 3.17 2.93 14.38.32 31.46-7.4 50.67-33.3 48.27-47.1-1.87-10.8-15.95-10.8-24.16-9.9-19.1 2.2-31.4 8.1-36.56 17.6-6.34 11.7.3 25.2.35 25.3.55 1.1.5 2.4-.13 3.4m3.27 18.8c-5.3 0-9-1.5-11.2-4.5-3.85-5.3-.8-12.9.9-16.4-1.9-4.7-6.1-17.9.53-30.2 6.33-11.7 20.47-18.9 42.02-21.4 25.9-3 31 10 32 15.7 3.3 18.9-19.43 47.2-53.67 55.2-4.05.9-7.57 1.4-10.57 1.4"/><path fill="#fff" d="M1275.54 1335.1s-2.1 11.13 26.98 1.32c30.83-10.4 48.88-53.92 3.08-53.73-60.06.2-30.06 52.4-30.06 52.4"/><path fill="#414143" d="M1277.3 1335.4c-.02.12-.1 1.14.88 1.97 1.38 1.14 6.47 3.2 23.77-2.63 17.26-5.82 31.53-23.57 29.38-36.53-1.47-8.8-10.5-13.7-25.44-13.7h-.3c-17 .1-28.1 4.4-33 12.8-8.4 14.5 4.3 36.8 4.4 37 .2.4.3.8.2 1.2m6.3 6.9c-3.6 0-6.2-.7-7.9-2.2-1.7-1.4-2.1-3.2-2.1-4.5-2-3.6-12.9-24.9-4.2-40 5.5-9.6 17.6-14.5 36-14.5h.3c22.7 0 27.9 10.5 28.9 16.8 2.4 14.8-12.7 34.1-31.8 40.5-8.2 2.8-14.7 4.1-19.5 4.2"/><path fill="#dededd" d="M1269.32 1226.6c3.56 3.68 35.34-1.13 53.18-.92 17.86.2 30 12.02 25.84 24.25-4.15 12.22-19.17 32.65-44.66 43.6-25.5 10.92-34.36-66.93-34.36-66.93"/><path fill="#414143" d="M1271.88 1224.12zm1.66 7.27c2.56 17.7 9.7 51.6 21.53 58.5 2.3 1.3 4.6 1.4 7.2.3 26.5-11.4 39.52-32.1 42.7-41.5 1.55-4.6-.05-8.3-1.66-10.5-3.8-5.5-11.8-9-20.8-9.1-6.7-.1-15.5.5-24 1.2-12.1.9-19.9 1.3-24.9.9m25.4 66.8c-2.5 0-5-.7-7.4-2.1-18.5-10.8-25-63.2-25.7-69.1-.1-1.5.7-3 2-3.6 1.3-.6 2.8-.4 3.9.5 2.8 1.2 16.4.2 26.3-.6 8.7-.7 17.6-1.3 24.7-1.2 11.4.1 21.4 4.6 26.6 12 3.7 5.1 4.6 11.1 2.6 16.9-4.9 14.5-21.6 35-46.6 45.7-2 .9-4.1 1.3-6.2 1.3"/><path fill="#fff" d="M1248.2 1231.14c3.57 3.68 34.6-3.25 53.2-.92 17.7 2.22 30 12.02 25.83 24.25-4.15 12.22-19.17 32.65-44.66 43.6-25.5 10.92-34.36-66.93-34.36-66.93"/><path fill="#414143" d="M1250.36 1233.8c1.58 11.48 8.33 53.85 22.7 62.2 2.8 1.63 5.7 1.77 8.8.43 27.08-11.6 40.42-32.9 43.7-42.53 1.25-3.68.86-7.18-1.14-10.4-3.66-5.84-12.35-10.14-23.24-11.5-9.12-1.15-21.25-.02-31.94.98-9.3.86-15.3 1.37-18.88.83m27.4 67.1c-2.22 0-4.38-.6-6.48-1.8-18.12-10.5-24.56-65.4-24.83-67.7-.1-.7.32-1.5 1-1.8.7-.3 1.5-.2 2.04.4 1.5 1.2 11.4.3 19.4-.4 10.8-1 23.2-2.1 32.7-.9 11.9 1.5 21.6 6.4 25.8 13.2 2.5 4.1 3.1 8.8 1.5 13.5-4.8 14.2-21.2 34.2-45.7 44.7-1.9.8-3.7 1.2-5.5 1.2"/><path fill="#dededd" d="M817.53 1511.1s8.26 32.46 52.7 42.18c44.42 9.7 90.38-26.74 90.38-26.74l-54-91.54-89 76.1z"/><path fill="#414143" d="M817.53 1511.1h.04-.04zm4.13 1.16c2.6 7.02 13.6 29.72 49.32 37.53 36.54 7.9 74.94-17.1 84.93-24.2l-50.2-85.2-84 71.8zm64.37 46.24c-5.48 0-11.02-.53-16.57-1.75-46.05-10.06-55.02-43.37-55.38-44.78-.34-1.32.1-2.7 1.14-3.6l89.08-76.08c.8-.7 1.87-1 2.9-.8 1.04.1 1.95.7 2.48 1.7l54 91.5c.9 1.5.54 3.5-.85 4.6-1.7 1.3-37.3 29.1-76.8 29.1"/><path fill="#fff" d="M816.1 1487.4s8.25 32.47 52.68 42.18c44.43 9.72 90.4-26.73 90.4-26.73l-54-91.54-89.1 76.1z"/><path fill="#414143" d="M818.14 1488c1.9 5.5 12.7 31.47 51.02 39.84 39.13 8.54 80.1-19.87 87.67-25.46l-52.12-88.34-86.5 73.96zm66.47 45.03c-5.3 0-10.7-.52-16.2-1.7-45-9.84-53.9-43.16-54-43.5-.1-.65.1-1.35.6-1.8l89.1-76.07c.4-.35 1-.5 1.5-.4.5.08 1 .4 1.3.85l54 91.6c.5.8.3 1.8-.4 2.3-1.6 1.4-36.8 28.8-75.6 28.8"/><path fill="#dededd" d="M967.5 1517.47s36.42 31.98 68.53 29.1c32.1-2.9 52.54-47.8 52.54-47.8l-61.23-30.6-59.84 49.3z"/><path fill="#414143" d="M973.12 1517.46c9.46 7.45 37.77 27.77 62.58 25.55 24.94-2.2 42.9-32.7 48.1-42.6l-55.98-27.9-54.7 45.1zm58.7 32.85c-31.93 0-65.2-28.8-66.67-30.1-.8-.7-1.23-1.7-1.2-2.7 0-1 .48-2 1.3-2.7l59.83-49.3c1.1-.9 2.6-1 3.86-.4l61.22 30.6c1.72.9 2.45 2.9 1.65 4.7-.8 1.9-21.6 46.9-55.4 49.9-1.5.2-3 .2-4.5.2"/><path fill="#fff" d="M967.3 1499.17s36.43 31.98 68.53 29.1c32.1-2.9 52.55-47.8 52.55-47.8l-61.23-30.6-59.84 49.3z"/><path fill="#414143" d="M970.1 1499.18c7.34 6 38.4 29.75 65.57 27.3 27.4-2.45 46.4-37.38 50.33-45.2l-58.6-29.3-57.3 47.2zm61.5 31.05c-31.24 0-64.02-28.45-65.47-29.72-.4-.3-.6-.8-.6-1.3s.24-1 .65-1.3l59.84-49.3c.54-.4 1.3-.5 1.93-.2l61.23 30.6c.85.5 1.22 1.5.82 2.4-.85 1.9-21.25 45.9-54 48.9-1.47.2-2.93.2-4.4.2"/><path fill="#dededd" d="M1253 1351.73s52.67-10.78 63.28-52.62c9.32-36.7-39.3-46.5-48.9-47.2-9.64-.8-40.14 50.4-40.14 50.4l25.77 49.5z"/><path fill="#414143" d="M1231.32 1302.35l23.55 45.24c10.45-2.8 49.34-15.4 57.95-49.4 2.22-8.8 1.04-16.2-3.6-22.7-10.57-14.8-35.93-19.7-42.15-20.2-4.86.6-22.2 24.5-35.75 47m21.7 52.9c-1.32 0-2.55-.8-3.17-2l-25.77-49.5c-.57-1.1-.54-2.4.1-3.5 11.8-19.9 33.17-53 43.47-52.2 8.5.7 35.4 6.4 47.37 23.2 5.85 8.2 7.44 17.8 4.72 28.5-11.04 43.5-63.78 54.8-66.02 55.2h-.7"/><path fill="#fff" d="M1238.62 1327.74s46.2 12.6 56.8-29.23c9.32-36.7-33.68-47.6-43.3-48.4-9.63-.8-40.13 50.4-40.13 50.4l26.6 27.3z"/><path fill="#414143" d="M1239.54 1326.13c3.17.76 22.32 4.78 37.26-3.93 8.4-4.9 14.07-13.02 16.9-24.13 2.56-10.15 1.16-19.07-4.17-26.54-10.48-14.66-32.3-19.26-37.56-19.7h-.14c-5.4 0-23.14 24.28-37.6 48.38l25.3 26zm14.32 5.2c-8.67 0-15.2-1.74-15.7-1.87-.32-.1-.6-.25-.82-.48l-26.63-27.26c-.5-.57-.6-1.46-.2-2.15 29.6-49.6 39.9-51.38 41.8-51.28 5.6.4 28.9 5.3 40.2 21.1 6 8.3 7.6 18.3 4.7 29.5-3 12-9.3 20.9-18.5 26.3-8.1 4.7-17.2 6-24.7 6"/><path fill="#dededd" d="M1218.98 1195.57s1.1 8.1 21.04 15.23c19.92 7.14 50.6 12.65 49.77 43.7-.9 31.36-32.7 61.3-97.3 63.68-64.7 2.38 3.6-95.34 3.6-95.34l22.8-27.27z"/><path fill="#414143" d="M1218.38 1201.82l-19.57 23.32c-11.1 16.06-38.5 62.48-28.3 81.1 3.3 5.98 10.7 8.77 21.9 8.38 46-1.7 92.8-20.96 93.9-60.2.7-24.5-20.6-31.45-39.4-37.57-2.8-.9-5.5-1.78-8-2.7-11.6-4.16-17.5-8.77-20.4-12.33m-28.1 119.97c-12.9 0-21.6-4.1-26-12.2-14.3-26.3 27.2-86.3 29-88.9l23.1-27.6c.9-1.1 2.4-1.5 3.7-1.2 1.3.3 2.3 1.4 2.6 2.7.1.4 2.2 6.6 18.7 12.5 2.5.9 5.1 1.8 7.8 2.6 19.1 6.2 45.1 14.7 44.4 44.5-1.1 43.9-51.4 65.3-100.7 67.1h-2.4"/><path fill="#fff" d="M1197.55 1194.27s1.12 8.1 21.04 15.23c19.9 7.14 50.5 12.65 49.7 43.7-.9 31.36-32.7 61.3-97.3 63.68-64.6 2.38 3.6-95.34 3.6-95.34l22.9-27.27z"/><path fill="#414143" d="M1197.07 1197.62l-21.05 25.07c-.32.4-41.32 59.7-28.56 83.1 3.6 6.6 11.53 9.7 23.55 9.3 46.8-1.8 94.5-21.6 95.6-62 .7-25.9-21.2-33-40.6-39.3-2.7-.9-5.4-1.8-7.9-2.7-13.6-4.9-18.8-10.3-20.9-13.6m-28.2 121.1c-12.2 0-20.4-3.8-24.5-11.2-13.8-25.4 27.1-84.5 28.9-87l23-27.4c.5-.6 1.2-.8 1.9-.6.7.2 1.2.7 1.3 1.4.1.2 1.8 7.3 19.9 13.8 2.5.9 5.1 1.7 7.9 2.6 19.5 6.3 43.9 14.3 43.1 42.8-1.1 42.7-50.5 63.6-99 65.4h-2.3"/><path fill="#dededd" d="M1214.45 1393.94c7.3-.57 48.54.34 67.42-30.57 18.87-30.9-15.72-69.9-61.03-58.92-45.3 10.97-42.18 40.62-42.18 40.62l35.8 48.87z"/><path fill="#414143" d="M1182.18 1343.83l34 46.45.6-.03c11.32-.5 45.73-2 62.06-28.73 6.94-11.38 6.16-24.94-2.1-36.28-8.78-12.02-28.44-23.77-55.06-17.33-37.66 9.2-39.54 31.2-39.5 36m32.28 53.7c-1.13 0-2.2-.5-2.88-1.4l-35.78-48.8c-.38-.5-.6-1.1-.67-1.7-.04-.3-2.92-32.9 44.88-44.4 24.7-5.9 49.3 1.9 62.5 20.1 10.1 13.8 11 30.3 2.5 44.2-18.3 30-55.5 31.6-67.8 32.2l-2.3.1h-.2"/><path fill="#fff" d="M1193.57 1396.6c7.3-.56 48.54.35 67.42-30.56 18.8-30.9-15.8-69.9-61.1-58.92-45.3 10.97-42.2 40.62-42.2 40.62l35.8 48.87z"/><path fill="#414143" d="M1159.52 1347.1l34.9 47.67 1.56-.07c11.54-.5 46.67-2.06 63.48-29.58 7.35-12.02 6.53-26.32-2.18-38.26-11.97-16.42-34.32-23.5-56.9-18-40.62 9.83-41.04 34.45-40.86 38.24m34.05 51.3c-.56 0-1.1-.28-1.44-.73l-35.8-48.87c-.17-.26-.3-.56-.32-.87 0-.33-.7-8.08 4.4-17.25 4.7-8.33 15.2-19.47 39.2-25.3 24-5.8 47.8 1.8 60.7 19.38 9.6 13.15 10.5 28.93 2.4 42.22-17.8 29.14-54.3 30.75-66.3 31.28-1 .05-1.8.08-2.4.13h-.1"/><path fill="#dededd" d="M678.58 1380.16s-5.83 58.32 30.86 91.42c36.68 33.1 53.16 5.3 66.93-6.74 13.77-12.04-27-111.3-27-111.3l-70.8 26.62z"/><path fill="#414143" d="M681.98 1382.7c-.56 10.7-1.13 58.3 29.84 86.24 29.1 26.24 43.44 11.8 56.1-.92 2.1-2.1 4.1-4.12 6.1-5.86 7.15-6.26-8.1-58.2-26.64-104.05l-65.4 24.6zm59.13 108.1c-9.3 0-20.5-4.36-34-16.57-37.6-33.92-32.2-91.97-32-94.42.2-1.3 1.1-2.5 2.3-2.9l70.8-26.6c1.8-.6 3.9.2 4.6 2 9.8 23.9 40.6 102.6 26.1 115.4-1.8 1.6-3.7 3.5-5.7 5.6-7.6 7.7-17.6 17.8-31.8 17.8"/><path fill="#fff" d="M688.64 1362.37s-7.84 53.66 28.84 86.76c36.68 33.1 58.7 13.72 72.46 1.68 13.77-12-30.5-115-30.5-115l-70.8 26.6z"/><path fill="#414143" d="M690.28 1363.66c-.8 7.54-4.37 54.58 28.4 84.15 35.42 32 56.23 13.8 70 1.8 9.28-8.1-13.36-72-30.22-111.5l-68.18 25.7zm65.52 105.63c-10.96 0-24-4.9-39.5-18.9-36.98-33.4-29.5-87.8-29.42-88.4.1-.7.53-1.2 1.14-1.4l70.78-26.6c.9-.4 1.9.1 2.27.9 4.58 10.6 44.38 104.5 30.04 117.1-8.1 7.1-19.6 17.1-35.3 17.1"/><path fill="#dededd" d="M742.36 1407.08s-14.38 74.8 23 107.92c37.4 33.14 91.96-3.92 115.98-49.76 24.02-45.84-28.5-131.13-28.5-131.13l-110.48 73z"/><path fill="#414143" d="M745.6 1409.2c-1.7 10.44-10.5 74.22 22.13 103.14 11.3 10.02 24.73 13.7 39.88 10.9 26.1-4.77 54.4-28.75 70.6-59.66 20.3-38.7-17.5-108.72-26.5-124.42l-106.1 70.04zm52.6 122.05c-13.05 0-25.06-4.6-35.2-13.58-38.47-34.08-24.75-108.13-24.15-111.27.2-.94.74-1.77 1.54-2.3l110.4-72.96c.8-.53 1.8-.7 2.7-.5.9.2 1.7.78 2.2 1.6 2.2 3.56 53.3 87.56 28.6 134.65-17.2 32.7-47.6 58.2-75.6 63.3-3.7.6-7.2 1-10.7 1"/><path fill="#fff" d="M748.3 1377.44s-14.37 74.8 23.02 107.92c37.4 33.14 91.95-3.92 115.97-49.76 24-45.84-28.5-131.13-28.5-131.13l-110.5 72.97z"/><path fill="#414143" d="M749.93 1378.5c-1.33 7.78-11.68 75.18 22.57 105.53 11.75 10.4 25.66 14.22 41.38 11.33 26.53-4.86 55.4-29.2 71.84-60.6 21.5-41.04-20.57-115.95-27.5-127.76l-108.3 71.5zm54.24 121.33c-12.62 0-24.23-4.44-34.03-13.13-37.72-33.42-24.18-106.5-23.58-109.6.1-.46.37-.88.77-1.14L857.8 1303c.4-.27.9-.37 1.38-.26.47.1.88.4 1.14.8.13.22 13.33 21.8 23.4 48.68 13.63 36.4 15.36 64.73 5.15 84.2-16.92 32.3-46.8 57.4-74.34 62.45-3.52.65-6.97.96-10.36.96"/><path fill="#dededd" d="M870.38 1449.12s-9.6 68.9 40.28 99.47c49.88 30.5 90.95-19.1 103.36-42.6 12.4-23.5-9.2-121.8-9.2-121.8L870.38 1449z"/><path fill="#414143" d="M873.7 1451.47c-1 11-3.98 67.84 38.82 94.08 14.43 8.85 29.2 11.28 43.9 7.26 26.66-7.3 46.77-33.8 54.45-48.4 9.18-17.4-2.32-85-8.58-114.9l-128.6 62zm68.88 110.37c-11.4 0-22.7-3.4-33.78-10.2-21.3-13.06-35.3-35.05-40.5-63.6-3.88-21.38-1.55-38.7-1.45-39.4.17-1.2.9-2.2 1.98-2.73l134.44-64.8c.98-.4 2.13-.4 3.1 0 1 .5 1.7 1.4 1.93 2.5.9 4.1 21.74 99.8 8.87 124.2-8.2 15.6-29.85 44.1-58.86 52-5.2 1.5-10.4 2.2-15.7 2.2"/><path fill="#fff" d="M870.22 1427.73s-9.76 59.16 40.13 89.75c49.88 30.58 91.1-9.32 103.5-32.84 12.4-23.5-9.2-121.76-9.2-121.76l-134.43 64.85z"/><path fill="#414143" d="M871.86 1428.92c-.92 7.48-5.52 59.5 39.42 87.04 17.03 10.45 34.37 13.36 51.52 8.65 25.8-7 43.25-28.9 49.48-40.8 10.95-20.7-5.8-103.7-8.9-118.3L871.86 1429zm74.95 101.45c-12.5 0-25-3.8-37.3-11.36-50.3-30.8-41-90.9-40.9-91.5.1-.5.5-1 1-1.3l134.4-64.8c.5-.2 1.1-.2 1.6 0 .5.3.9.7 1 1.3.9 4.1 21.6 99.2 9.1 123-8.7 16.5-28.1 36.1-51.7 42.6-5.6 1.6-11.3 2.3-16.9 2.3"/><path fill="#dededd" d="M1033.68 1463.76s5.6 62.23 59.02 52.73c54.52-9.7 55.76-116.5 55.76-116.5l-95.24 15.7-19.54 47.9z"/><path fill="#414143" d="M1037.32 1464.27c.6 4.8 4.5 29.44 21.03 42.04 8.95 6.9 20.3 9.1 33.73 6.7 45-8 51.7-89 52.66-108.7l-88.97 14.8-18.45 45.3zm44.7 56.78c-10.7 0-20.1-3.04-28.02-9.1-20.77-15.86-23.76-46.56-23.88-47.86-.05-.6.04-1.2.26-1.7l19.54-48c.46-1.2 1.5-2 2.72-2.2l95.24-15.8c1.02-.2 2.1.1 2.9.8.8.7 1.25 1.7 1.24 2.7 0 1.1-.4 27.4-7.54 55.4-9.7 37.9-27.4 60.2-51.16 64.5-3.9.6-7.68 1-11.3 1"/><path fill="#fff" d="M1037.64 1446.22s9.53 48.64 54.93 48.1c45.4-.54 59.85-111.82 59.85-111.82l-95.24 15.77-19.54 47.95z"/><path fill="#414143" d="M1039.5 1446.4c1.18 5.33 11.52 46.14 52.32 46.14h.74c39.74-.48 55.33-91.83 57.75-107.88l-91.8 15.2-18.9 46.53zm52.33 49.7c-45.7 0-55.84-49.03-55.93-49.53-.07-.34-.04-.7.1-1.02l19.54-47.95c.23-.57.75-.98 1.36-1.08l95.24-15.78c.55-.1 1.12.1 1.53.48.4.4.6.95.52 1.5-.6 4.6-15.2 112.82-61.6 113.38h-.8"/><path fill="#dededd" d="M1158.02 1414.06s5.58 24.6 26.63 24.35c35.8-.4 39.18-57.9 39.18-57.9l-38.96-30-26.85 63.6z"/><path fill="#414143" d="M1158.02 1414.06h.03-.03zm3.76.27c1.26 4.4 6.98 20.52 22.57 20.52h.26c28.7-.33 34.6-43.23 35.5-52.74l-33.7-25.9-24.6 58.2zm22.57 27.65c-18.7 0-27.67-17.7-29.8-27.13-.17-.73-.1-1.5.2-2.17l26.84-63.57c.4-1 1.3-1.7 2.3-2 1.1-.3 2.2 0 3.1.6l38.9 30c.9.7 1.4 1.9 1.4 3.1-.2 2.5-4.1 60.9-42.7 61.3h-.4z"/><path fill="#fff" d="M1157.92 1401.78s5.58 24.6 26.63 24.35c35.8-.4 39.18-57.93 39.18-57.93l-38.96-30-26.85 63.58z"/><path fill="#414143" d="M1159.8 1401.93c.93 3.55 6.75 22.42 24.44 22.42h.28c31.34-.35 36.72-48.03 37.35-55.32l-36.36-28-25.7 60.9zm24.44 25.98c-21.97 0-28-25.4-28.06-25.7-.08-.3-.05-.7.1-1.1l26.85-63.5c.2-.5.65-.9 1.2-1 .5-.1 1.1 0 1.53.3l38.95 30c.5.4.8 1 .7 1.5 0 .6-.9 14.9-6.2 29.4-7.2 19.7-19.2 30.1-34.7 30.3h-.3z"/><path fill="#dededd" d="M655.5 1250.8s-19.44 35.83-10.85 86.93c8.6 51.1 31.06 70.5 50.85 70.17 19.8-.35 28.73-22.63 36.52-43.74 7.8-21.1-2-114.66-2-114.66l-74.5 1.3z"/><path fill="#414143" d="M657.75 1254.3c-3.64 7.83-16.8 40-9.6 82.83 8.42 50 29.87 67.63 47.3 67.2 16.7-.3 24.93-18.93 33.22-41.4 5.74-15.55 1.47-76.8-1.85-109.82l-69.07 1.2zm37.17 157.16c-30.57 0-47.82-37.7-53.8-73.15-8.68-51.7 10.44-87.7 11.26-89.2.6-1.1 1.78-1.8 3.07-1.8l74.52-1.3c1.84 0 3.4 1.4 3.6 3.2.4 3.9 9.78 94.7 1.8 116.3-7.12 19.3-16.86 45.7-39.8 46.1h-.65"/><path fill="#fff" d="M664.27 1206.25s-19.45 35.84-10.86 86.94c8.6 51.1 31.1 70.5 50.9 70.1 19.8-.4 28.8-22.7 36.5-43.8 7.8-21.1-1.9-114.7-1.9-114.7l-74.5 1.3z"/><path fill="#414143" d="M665.38 1208.02c-2.87 5.88-17.84 39.46-10.2 84.88 8.5 50.67 30.6 68.68 48.6 68.68h.46c17.83-.3 26.34-19.46 34.87-42.57 7-18.9-.6-99.7-1.9-112.2l-71.8 1.3zm38.3 157.13c-29.46 0-46.18-36.92-52.02-71.67-8.6-51.1 10.85-87.7 11.05-88.08.3-.56.9-.92 1.6-.93l74.5-1.3c1 .1 1.7.7 1.8 1.6.4 3.84 9.8 94.23 1.9 115.48-6.9 18.8-16.4 44.5-38.1 44.9h-.6"/><path fill="#dededd" d="M722.1 1262.12s-20.48 50.16-18.38 93.22c2.1 43.06 25.04 63.86 47.92 65.56 24.73 1.83 61.02-40.66 74.4-74.67 13.4-34-42.05-133.55-42.05-133.55l-61.9 49.44z"/><path fill="#414143" d="M725.06 1264.3c-2.62 6.74-19.67 52.12-17.78 90.86 2.13 43.62 25.37 60.76 44.62 62.18 22.08 1.57 57.47-38.45 70.84-72.42 5.12-13.02-.4-39.57-15.97-76.8-9.25-22.13-19.6-42.02-23.88-50l-57.9 46.2zm28.2 160.22c-.64 0-1.26-.03-1.88-.07-22.16-1.64-48.86-20.68-51.22-68.94-2.1-43.3 17.8-92.6 18.64-94.7.23-.5.6-1 1.07-1.4l61.9-49.4c.8-.6 1.88-.9 2.9-.7 1.04.2 1.92.9 2.43 1.8 2.3 4.1 56.12 101.4 42.27 136.6-12.6 32.1-48.1 77-76.12 77"/><path fill="#fff" d="M737.1 1225.8s-19.46 50.15-17.42 93.2c2.04 43.07 19.4 65.27 45.68 65.6 17.9.24 58.07-40.6 70.8-74.6 12.7-34-40.17-133.57-40.17-133.57l-58.9 49.38z"/><path fill="#414143" d="M738.6 1226.87c-1.86 4.95-19.03 51.95-17.14 92.05 1.93 40.87 17.53 63.56 43.92 63.9h.13c16.5 0 56.2-39.23 69-73.44 11.4-30.3-31.8-116.1-39-130.16l-56.8 47.65zm26.9 159.52h-.17c-28.14-.4-45.43-24.9-47.43-67.3-2.03-43 17.34-93.5 17.53-94 .1-.3.3-.6.52-.7l58.9-49.4c.4-.4.95-.5 1.48-.4.52.1.98.4 1.23.9 2.18 4.1 53.1 100.6 40.26 135-12.5 33.4-52.96 75.7-72.32 75.7"/><path fill="#dededd" d="M955.25 1408.05s-32.43 76.05-74.4 75.83c-42.07-.22-78.93-53.37-66.3-129.3 12.66-75.93 110.82-90.26 110.82-90.26l29.88 143.73z"/><path fill="#414143" d="M922.6 1268.45c-16.97 3.35-93.74 22-104.52 86.72-6.94 41.68.77 79.46 21.15 103.65 11.62 13.78 26.4 21.42 41.64 21.5h.16c36.56 0 66.53-63.83 70.5-72.66l-28.94-139.2zm-41.57 219h-.2c-17.35-.1-34.06-8.63-47.05-24.04-21.73-25.7-30.02-65.6-22.73-109.4 12.92-77.6 112.8-93 113.8-93.2 1.87-.3 3.63 1 4 2.8l29.9 143.8c.14.7.07 1.5-.22 2.1-1.36 3.2-33.76 78-77.5 78"/><path fill="#fff" d="M955.25 1376.5s-24.32 65-66.18 69.22c-41.86 4.22-78.85-43.3-66.2-119.24 12.64-75.93 107.92-88.13 107.92-88.13l24.4 138.16z"/><path fill="#414143" d="M929.34 1240.38c-12.7 2.1-93.36 18.17-104.72 86.4-6.95 41.73.75 78.14 21.13 99.88 11.95 12.75 27.27 18.87 43.14 17.3 38.4-3.9 62.2-61.93 64.5-67.63l-24.1-135.95zm-45.4 207.4c-15.08 0-29.4-6.52-40.8-18.68-21.14-22.55-29.17-60.07-22.03-102.9 12.8-76.36 108.5-89.5 109.5-89.6 1-.13 1.8.5 2 1.45L957 1376.2c.06.3.03.64-.08.94-.06.16-6.3 16.64-17.6 33.4-15.1 22.4-32.4 35.18-50.07 36.96-1.78.18-3.55.27-5.3.27"/><path fill="#dededd" d="M964.26 1390.42s-7.57 33.9 1.33 76.85c8.9 42.94 41.6 62.18 70 50.04 28.4-12.1 44-81.1 51.3-116.2 7.3-35-122.8-10.6-122.8-10.6"/><path fill="#414143" d="M967.3 1393.48c-1.44 8.23-5.55 37.68 1.78 73.06 4.44 21.44 15.6 38.23 30.58 46.06 11 5.75 23.28 6.26 34.58 1.43 28.15-12.02 44.05-88.5 49.27-113.65.6-2.84.1-5.04-1.8-6.93-14.1-14.43-85.1-5.23-114.3.03m51.2 130.97c-7.5 0-15-1.85-22.1-5.53-16.9-8.83-29.3-27.4-34.2-50.92-8.9-43.2-1.6-76.94-1.3-78.36.3-1.4 1.4-2.46 2.8-2.73 10.6-1.9 103.4-18.6 123.2 1.6 3.5 3.6 4.8 8.2 3.8 13.4-9.4 45.2-25.1 106.7-53.4 118.8-6 2.6-12.3 3.9-18.6 3.9"/><path fill="#fff" d="M964.25 1359.98s-7.56 33.9 1.34 76.85c8.8 42.94 41.6 62.18 70 50.04s44.1-81.13 51.3-116.2c7.3-35.07-122.8-10.7-122.8-10.7"/><path fill="#414143" d="M965.77 1361.52c-1.2 6.26-6.25 37.27 1.56 74.95 4.55 21.96 16.03 39.2 31.5 47.27 11.47 6 24.3 6.53 36.1 1.5 29-12.4 45.05-89.57 50.32-114.93.7-3.4-.05-6.2-2.32-8.5-17.12-17.4-105.85-2.2-117.16-.2m52.65 130.7c-7.24 0-14.46-1.7-21.25-5.3-16.4-8.5-28.56-26.7-33.33-49.7-8.87-42.8-1.4-77.2-1.32-77.6.15-.7.7-1.2 1.4-1.3 4.16-.8 102.04-18.8 121.55 1.1 3.13 3.2 4.23 7.2 3.27 11.8-9.3 44.8-24.88 105.8-52.4 117.5-5.83 2.5-11.88 3.8-17.92 3.8"/><path fill="#dededd" d="M1104.86 1370.68s-6.88 92.96 41.02 96.96c43.4 3.63 40.93-72.92 42.5-117.2 1.55-44.3-71.56-28.75-71.56-28.75l-11.96 48.9z"/><path fill="#414143" d="M1108.4 1371.23c-.36 5.55-4.83 89.3 37.77 92.87 7.37.6 13.4-1.28 18.4-5.78 17.88-16.03 19.02-61.68 19.87-95 .1-4.56.22-8.92.37-13 .3-8.28-2.2-14.5-7.6-19.05-15.3-12.85-48.6-8.05-57.4-6.5l-11.3 46.46zm40.38 100.1c-1.05 0-2.12-.04-3.2-.13-50.84-4.25-44.57-96.84-44.28-100.78 0-.2.04-.4.1-.58l11.96-49c.32-1.32 1.38-2.35 2.72-2.63 1.84-.3 45.43-9.4 65.7 7.6 7.1 6 10.52 14.3 10.15 24.8-.14 4.1-.25 8.4-.37 13-.92 36.6-2.06 82.1-22.23 100.2-5.7 5.1-12.6 7.7-20.55 7.7"/><path fill="#fff" d="M1101.63 1346.65s-6.4 89.02 41.02 96.96c36.95 6.2 40.93-72.9 42.5-117.2 1.55-44.3-71.56-28.7-71.56-28.7l-12 49z"/><path fill="#414143" d="M1103.4 1346.92c-.25 4.03-4.85 87.5 39.55 94.93 6 1.02 11.18-.33 15.8-4.1 21.3-17.4 23.54-80.9 24.6-111.42.32-8.73-2.45-15.62-8.22-20.46-16.65-13.98-53.3-7.96-60.07-6.68l-11.66 47.7zm43.24 98.8c-1.4 0-2.83-.1-4.3-.35-20.17-3.38-33.92-21.67-39.73-52.9-4.3-23.2-2.7-45.73-2.7-45.95 0-.1.1-.2.1-.3l12-49c.2-.65.7-1.16 1.4-1.3 1.8-.4 44.6-9.25 64.2 7.2 6.7 5.6 9.9 13.45 9.6 23.34-1.1 31.04-3.3 95.63-25.9 114.04-4.2 3.48-9.1 5.23-14.3 5.23"/><path fill="#dededd" d="M1158.02 1352.6s5.24 55.16 46.03 56.64c40.8 1.47 31.16-55.38 27.8-75.23-3.35-19.8-20.15-48.9-20.15-48.9l-53.7 67.5z"/><path fill="#414143" d="M1161.74 1353.64c1.16 8.28 8.73 50.8 42.44 52.03 8.46.33 14.75-2.04 19.25-7.17 13.17-15.02 7.17-50.5 4.92-63.87-2.44-14.4-12.43-34.26-17.2-43.15l-49.4 62.16zm43.85 59.18c-.6 0-1.1 0-1.7-.03-43.4-1.6-49.4-59.3-49.5-59.9-.1-.9.2-1.9.7-2.6l53.6-67.5c.7-1 1.8-1.5 3-1.4 1.1.1 2.2.7 2.8 1.8.7 1.2 17.2 29.8 20.6 50.1 2.6 15.6 8.8 52.2-6.6 69.8-5.6 6.4-13.4 9.6-23.2 9.6"/><path fill="#fff" d="M1161.23 1342.78s.46 45.66 41.27 45.76c30.08.07 20.48-46.73 19-65.98-1.5-19.24-20.18-48.92-20.18-48.92l-40.1 69.14z"/><path fill="#414143" d="M1163.03 1343.23c.1 2.24.76 12.07 5.2 21.75 6.62 14.4 18.15 21.74 34.28 21.78h.1c5.7 0 10-1.72 13.1-5.25 9.4-10.4 6.7-34.3 4.9-50.2-.3-3.2-.6-6.1-.8-8.6-1.2-15.3-13.9-38-18.3-45.5l-38.3 66.1zm39.55 47.1h-.07c-42.1-.12-43-47.06-43-47.53 0-.33.1-.64.3-.92l40.1-69.13c.3-.54.9-.88 1.5-.9.6 0 1.2.3 1.6.84.8 1.2 18.9 30.2 20.5 49.7.2 2.4.5 5.3.9 8.5 1.8 16.4 4.6 41.3-5.8 52.9-3.8 4.2-9.1 6.4-15.7 6.4"/><path fill="#dededd" d="M658.24 1139.76s-13 55.85-14.85 83.83c-1.9 27.9 3.3 40.1 10.6 40.7 8 .6 22.5-8.5 32.5-32.7 10-24.2 32.9-117.7 32.9-117.7s-9.4 0-20.9 1.8c-16.5 2.6-37.1 8.8-40.4 23.9"/><path fill="#414143" d="M658.24 1139.76h.04-.04zm56.7-22.08c-3.76.2-9.45.64-15.75 1.63-12.7 2.1-34.5 7.5-37.5 21.3v.1c-.2.6-13 55.9-14.8 83.3-1.9 28.7 4 36.7 7.4 37 6.1.4 19.4-7.4 29-30.5 8.5-20.5 26.8-93.5 31.6-112.6M654.8 1268c-.4 0-.7 0-1-.04-6.3-.45-16.5-6.85-14-44.5 1.8-27.86 14.3-81.73 14.9-84.4 2.92-13.45 17.9-22.7 43.3-26.7 11.62-1.84 21.04-1.9 21.44-1.9 1.1 0 2.13.5 2.8 1.37.7.86.93 2 .67 3.05-.9 3.84-23 94.14-33 118.25-10.1 24.15-25 34.84-35.1 34.84"/><path fill="#fff" d="M671.82 1111.17s-13 55.85-14.85 83.83c-1.85 28 .8 37.3 8.05 38.6 6.7 1.17 25.12-6.38 35.18-30.52 10.07-24.14 32.9-117.72 32.9-117.72s-9.4.03-20.88 1.84c-16.45 2.6-37.12 8.86-40.4 23.97"/><path fill="#414143" d="M671.82 1111.17h.04-.04zm59-23.97c-3.45.12-10.43.5-18.33 1.76-16.1 2.54-35.9 8.52-39 22.6-.2.57-13 56.05-14.8 83.56-2.1 30.9 1.9 35.9 6.6 36.72 5.7 1.02 23.4-6.02 33.2-29.44 9-21.66 28.7-100.77 32.2-115.2m-64.4 148.28c-.6 0-1.2-.04-1.7-.13-8.9-1.58-11.4-12.16-9.6-40.46 1.8-27.7 14.6-83.1 14.9-84.2 3.5-16.1 24.7-22.7 41.8-25.4 11.5-1.8 20.8-1.9 21.2-1.9.5 0 1 .2 1.4.7.3.4.4 1 .3 1.5-1 3.8-23 94-33 118-9.6 23.1-27 31.7-35.4 31.7"/><path fill="#dededd" d="M699.8 1128.27s-9.46 23.32-18.2 68.97c-8.76 45.64 5.88 83.83 32.66 83.37 26.78-.4 70.24-47 89.3-89.6 19.06-42.6-103.77-62.6-103.77-62.6"/><path fill="#414143" d="M700.93 1130.28c-2.08 5.56-10.13 28.4-17.6 67.3-5.65 29.53-1.6 56.88 10.6 71.37 5.54 6.6 12.64 10.06 20.3 9.88 24.47-.42 67.92-44.32 87.7-88.62 2.64-5.9 2.48-11.4-.5-16.9-14.42-26.7-89.2-40.9-100.5-42.9m12.86 152.1c-8.7 0-16.5-3.8-22.6-11.1-12.9-15.3-17.3-43.8-11.4-74.3 8.7-45.3 18.2-69 18.3-69.3.3-.7 1.1-1.2 1.9-1.1 3.6.6 88.1 14.7 104.5 45.1 3.5 6.5 3.7 13.3.6 20.2-18.6 41.6-62.3 90.2-90.9 90.7h-.5"/><path fill="#fff" d="M718.18 1094.87s-9.05 23.32-17.43 68.96c-8.38 45.63 1.43 84.13 27.16 83.68 25.8-.4 71.8-47.2 90.1-89.9 18.3-42.6-99.7-62.7-99.7-62.7"/><path fill="#414143" d="M719.34 1096.9c-2.02 5.62-9.72 28.44-16.84 67.25-5.9 32.24-2.63 60.48 8.58 73.7 4.53 5.35 10.24 8.06 16.8 7.9 24.64-.44 70.08-46.1 88.4-88.84 2.6-6 2.37-11.7-.7-17.4-14.4-26.4-85.16-40.5-96.24-42.5m8.12 152.4c-7.53 0-13.95-3-19.1-9.1-11.88-14-15.47-43.4-9.36-76.6 8.3-45.2 17.43-69 17.52-69.2.3-.8 1.13-1.3 1.96-1.1 3.42.6 83.85 14.6 100.22 44.7 3.58 6.6 3.88 13.5.85 20.6-19.12 44.6-65.35 90.5-91.6 91h-.5"/><path fill="#dededd" d="M925.37 1264.32s-14.74 55.98-3.27 112.85c11.47 56.88 70.84 66.33 100.36 16.9 29.53-49.43-2.5-144.02-2.5-144.02l-94.6 14.27z"/><path fill="#414143" d="M928.27 1267.5c-2.52 10.95-12.56 59.95-2.67 108.97 5.04 25 20.08 42 40.23 45.46 20.08 3.46 40.58-7.94 53.57-29.68 25.56-42.78 3.03-122.24-1.9-138.22l-89.23 13.46zm44.7 162.17c-2.77 0-5.56-.24-8.34-.7-22.82-3.92-40.46-23.5-46.02-51.1-11.5-57.02 2.7-112.14 3.4-114.45.4-1.38 1.5-2.4 2.9-2.62l94.6-14.27c1.7-.24 3.4.74 3.9 2.4 1.4 3.9 32.2 96.7 2.2 146.97-12.7 21.4-32.3 33.77-52.5 33.77"/><path fill="#fff" d="M935.75 1228.8s-14.73 55.98-3.27 112.85c11.47 56.88 65.84 73.77 95.36 24.34 29.53-49.5 2.5-151.5 2.5-151.5l-94.6 14.2z"/><path fill="#414143" d="M937.2 1230.38c-1.97 8.2-13.33 59.52-2.97 110.92 5.6 27.73 22.66 47.95 43.47 51.52 18.47 3.15 36.2-6.95 48.6-27.75 26.85-44.93 5.9-135.58 2.72-148.54l-91.82 13.85zm47.2 166.58c-2.42 0-4.85-.2-7.3-.63-22.62-3.87-40.4-24.7-46.36-54.33-11.42-56.62 3.14-113.1 3.3-113.66.17-.68.74-1.2 1.45-1.3l94.6-14.28c.8-.12 1.7.43 1.9 1.3 0 .27 6.8 26.02 9.8 57.5 4.1 42.42-.1 74.5-12.6 95.34-11.6 19.42-27.7 30.06-45 30.06"/><path fill="#dededd" d="M784 1212.68s-11.6 62.26-6.2 105.26c5.4 43 23.16 59 46.43 57.43 23.27-1.56 75.13-31.2 101.14-111.05 26-79.84-141.38-51.64-141.38-51.64"/><path fill="#414143" d="M787.06 1215.8c-2.05 11.97-10.38 64.54-5.72 101.7 4.73 37.63 19.07 55.97 42.65 54.32 20.8-1.4 72.3-29.8 97.9-108.6 4.4-13.64 3.2-24.24-3.9-32.4-25.3-29.28-115-17.4-131.1-15m34.1 163.23c-18.7 0-40.7-11.2-47-60.67-5.4-43.05 5.7-103.8 6.2-106.35.2-1.47 1.4-2.6 2.9-2.87 4.4-.74 109.9-18.05 140.1 17.02 8.6 10.05 10.4 23.26 5.2 39.24-25.9 79.3-77.7 111.7-104.3 113.5-1.1.08-2.2.12-3.3.12"/><path fill="#fff" d="M794 1171.07s-11.6 62.26-6.2 105.26c5.42 43 23.16 59 46.43 57.43 23.27-1.57 75.14-31.2 101.15-111.05 26-79.8-141.4-51.6-141.4-51.6"/><path fill="#414143" d="M795.53 1172.63c-1.58 8.96-10.84 64.56-5.95 103.47 4.87 38.75 19.88 57.6 44.53 55.88 25.3-1.7 74.6-33.02 99.6-109.83 4.6-14.08 3.2-25.55-4.2-34.1-26.6-30.88-121.9-17.28-133.9-15.42m35.8 163c-17.9 0-39.1-10.87-45.2-59.08-5.4-42.78 6.1-105.18 6.2-105.8.2-.74.8-1.32 1.5-1.44 4.5-.7 108.9-17.9 138.5 16.5 8.3 9.6 9.9 22.2 4.9 37.6-25.5 78.5-76.5 110.5-102.7 112.3-1 .1-2 .1-3.1.1"/><path fill="#dededd" d="M1020.4 1275.3s-3.28 90.95 13.28 132.6c16.57 41.64 75.94 35.9 90.17-16.75 14.23-52.66 13.53-99.84 8.2-136.14-5.36-36.2-111.64 20.3-111.64 20.3"/><path fill="#414143" d="M1023.9 1277.48c-.34 13.7-1.64 92.05 13.1 129.1 6.57 16.5 21.3 26.15 38.3 25.18 20.9-1.2 38.6-17.5 45.1-41.54 12-44.4 14.73-89.73 8.1-134.7-.5-3.44-2.1-5.73-5-7.2-18.4-9.3-76.4 17.04-99.6 29.16m49 161.48c-19.02 0-35.15-11.2-42.53-29.75-16.65-41.8-13.66-130.2-13.52-134 .04-1.2.76-2.4 1.9-3 8.34-4.4 82.37-43.1 107.96-30.2 5 2.5 8.1 6.9 8.9 12.6 6.8 46 4 92.3-8.2 137.6-7.3 27.1-27.5 45.4-51.5 46.8-.9.1-1.9.1-2.8.1"/><path fill="#fff" d="M1024.5 1233.28s-3.1 99.06 13.48 140.7c16.57 41.65 68 41.03 82.24-11.63 14.23-52.66 21.25-113.06 15.9-149.36-5.34-36.3-111.62 20.2-111.62 20.2"/><path fill="#414143" d="M1026.26 1234.38c-.26 10.68-1.96 100.4 13.38 138.95 7.38 18.55 22.3 29.48 39.02 28.52 18.2-1.04 33.46-16.35 39.84-39.96 14.62-54.1 21-113.9 15.87-148.7-.6-4-2.55-6.8-5.98-8.6-22.2-11.2-93.3 25-102.2 29.6m50.3 171.1c-17.4 0-32.7-11.7-40.3-30.9-16.5-41.5-13.7-137.4-13.6-141.4 0-.7.4-1.2.9-1.5 3.3-1.8 81.1-42.9 106.3-30.2 4.4 2.2 7.1 6 7.9 11.2 5.1 35.2-1.3 95.6-16 150.1-6.8 25.1-23.3 41.4-43.1 42.6-.8 0-1.5.1-2.3.1"/><path fill="#dededd" d="M1219.6 1232.25s.1 36.1 1.24 72.2c1.13 36.08-20.4 78.05-50.44 71.05-28.35-6.6-39.25-33.4-49.76-101.93-10.5-68.54 98.95-41.32 98.95-41.32"/><path fill="#414143" d="M1174.93 1230.48c-15.96 0-32.5 2.64-42.4 11.67-7.72 7.06-10.47 17.16-8.36 30.88 10.72 69.97 21.7 93.1 47.04 99 8.1 1.87 15.8-.13 22.9-5.98 14.2-11.62 24-37.48 23.2-61.5-.9-29.94-1.2-60.2-1.2-69.45-6.4-1.37-23.4-4.62-41.1-4.62m2 149.35c-2.4 0-4.9-.28-7.3-.86-32.1-7.48-42.5-39.77-52.4-104.86-2.4-16 1.1-28.5 10.6-37.2 26.5-24.2 90-8.7 92.7-8 1.6.4 2.7 1.8 2.7 3.5 0 .4.2 36.5 1.3 72.1.9 26.5-9.7 54.2-25.7 67.3-6.7 5.5-14 8.3-21.6 8.3"/><path fill="#fff" d="M1213.83 1184.05s.12 36.1 1.25 72.2c1.13 36.08.5 90.92-30.2 94.24-28.95 3.1-59.5-56.6-70-125.2s98.95-41.3 98.95-41.3"/><path fill="#414143" d="M1169.28 1180.53c-16.37 0-33.42 2.72-43.7 12.1-8.1 7.38-11.1 18.3-8.94 32.46 10.9 71 41.36 126.5 68.04 123.6 28.15-3.1 29.8-54.2 28.6-92.4-.98-31.7-1.2-63.8-1.23-70.9-5.03-1.2-23.4-5-42.77-5m13.63 171.8c-25.1 0-57.4-46.3-69.7-126.8-2.3-15.4 1-27.4 10.1-35.7 25.8-23.6 88.4-8.4 91.1-7.7.8.2 1.4.9 1.4 1.7 0 .3.2 36.5 1.3 72.1 1.4 42.9-1 92.7-31.8 96-.7.1-1.4.1-2.1.1"/><path fill="#9cd8d9" d="M674.6 1100.75s21.5-86.65 50.5-138.9c29-52.28 66.98-250.17 144.88-335.23 77.9-85.05 139.32-125.23 275.6-93.08 136.3 32.15 218.76 143.45 237.53 164.98 18.8 21.53 26.3 119.18 3.6 204.7-22.6 85.5-128.8 234-155.4 298.3-18.5 44.7-10.3 43.6-10.3 43.6s-83.5 73.07-255.5 41.54c-171.9-31.53-290.3-157.16-290.8-185.9"/><path fill="#414143" d="M1220.18 1239.8h-.02.02m-540.2-138.52c2.28 26.28 117.02 149.06 286.38 180.12 87.33 16.02 150.94 4.2 188.92-8.55 31.54-10.58 51.12-23.52 58.6-29.05-.8-5.05.76-16.2 12.4-44.32 10.56-25.47 32.65-62.7 58.23-105.8 39.1-65.84 83.4-140.45 97-191.85 22.9-86.22 14.3-180.65-2.4-199.8-1.6-1.82-3.6-4.28-6.1-7.26-26.1-31.4-105.4-126.98-228.6-156.04-130.5-30.8-191.2 4.98-270.4 91.5-51.4 56.1-85.8 164.18-110.9 243.1-13 41-23.3 73.37-33.2 91.1-26.9 48.47-47.6 128.25-49.8 136.85m369.4 198.7c-25.4 0-53.7-2.35-84.9-8.06-171.3-31.42-294.6-157.88-295.2-191.08 0-.47.1-.93.2-1.4.9-3.55 22-87.92 51.1-140.2 9.3-16.8 20-50.33 32.4-89.16 25.4-79.86 60.3-189.24 113.2-247.08 82.1-89.63 145.1-126.66 280.8-94.66 126.7 29.9 207.8 127.53 234.4 159.62 2.4 2.9 4.4 5.28 5.9 7.06 24.9 28.54 23.4 139.1 4.7 209.58-14 52.84-58.7 128.13-98.1 194.56-24.3 40.98-47.2 79.68-57.5 104.44-10.7 26-11.8 34.9-11.7 37.53.6.5 1 1.1 1.3 1.8 1 2.15.5 4.7-1.3 6.24-2.8 2.5-59.7 50.85-175 50.85"/><path fill="#fff" d="M1261.87 588.3s9.47-63.46-45.25-138.92c-54.73-75.46-107-105.73-188.5-95.68-72.83 8.98-127.42 58.98-150.47 92.48-23.06 33.5 384.22 142.1 384.22 142.1"/><path fill="#414143" d="M1057.1 357.17c-9.07 0-18.5.62-28.34 1.84-68.25 8.5-121.7 53.9-146.7 90.2.03.9 2.02 9.8 57.57 32.4 31.9 13 76.26 28.5 131.9 45.9 81 25.4 162.75 47.8 185.5 54 .28-6.7.14-18.5-2.63-33.9-4.03-22.4-14.6-57.1-42.1-95-48.48-66.8-93.8-95.3-155.2-95.3m204.77 236.5c-.46 0-.93 0-1.38-.2-1-.2-93.9-25.1-187.4-54.2-191.4-59.7-198.4-78.8-201.1-86.1-1.3-3.4-.9-7 1.1-9.9 26.3-38.2 82.4-85.9 154.2-94.7 80.9-10 135.2 17.5 193.5 97.8 55.3 76.4 46.6 140.2 46.2 142.9-.3 1.5-1.1 2.9-2.4 3.7-.9.6-1.9.9-3 .9"/><path fill="#dededd" d="M1225.93 612.68s-1.4-177.3-123.98-213.47c-118.08-34.8-204.2 43.3-227.25 76.8-23.06 33.5 351.23 136.7 351.23 136.7"/><path fill="#414143" d="M1042.43 393.95c-86.03 0-146.28 57.16-164.8 84.07-.4.57-.57 1.17-.17 2.26 9.6 26.3 209.6 90.22 344.74 127.67-1.4-28.27-13.78-173.6-121.26-205.3-20.57-6.08-40.13-8.7-58.5-8.7m183.5 222.3c-.33 0-.64-.05-.96-.13-34.77-9.6-340.15-94.78-354.22-133.4-1.14-3.12-.8-6.14 1-8.74 23.3-33.84 110.25-113.86 231.2-78.18 123.68 36.5 126.52 215.05 126.54 216.85 0 1.12-.5 2.18-1.4 2.86-.63.5-1.4.8-2.17.8"/><path fill="#fff" d="M1176.76 546.7s3.88-86.94-87.28-129.9c-91.16-42.96-192.95-7.65-233.65 28.77-38.3 34.3-58.83 79.84-58.83 79.84l379.76 21.3z"/><path fill="#414143" d="M805.4 520.52l365.92 20.52c-.42-7.9-2.16-23.65-9.17-41.7-13.38-34.42-38.6-60.57-74.95-77.7-87.85-41.4-187.87-7.82-227.8 27.9-28.16 25.2-46.67 57.04-54 70.98m371.36 31.53h-.3l-379.76-21.3c-1.76-.1-3.36-1.06-4.27-2.57-.9-1.5-1.03-3.36-.3-4.97.85-1.9 21.43-46.9 60.14-81.6 43.3-38.7 146.24-73.5 239.5-29.6 48.68 23 70.66 58.3 80.53 84 10.7 27.9 9.84 50.1 9.8 51-.06 1.5-.7 2.8-1.75 3.8-1 .9-2.26 1.4-3.6 1.4"/><path fill="#dededd" d="M1144.16 573.57s-.2-117.4-154.97-128.18c-115.5-8.1-185.1 109.1-185.1 109.1l340 19z"/><path fill="#414143" d="M810.45 551.3l329.97 18.5c-1.5-20.2-15.74-111.4-151.48-120.85-98.27-6.85-163.56 80.2-178.5 102.34m333.72 25.8h-.2L803.92 558c-1.24-.07-2.36-.78-2.95-1.88-.58-1.1-.55-2.43.1-3.5.7-1.2 72.12-118.93 188.36-110.84 156.28 10.9 158.3 130.5 158.3 131.73 0 1-.4 2-1.12 2.6-.6.7-1.5 1-2.4 1"/><path fill="#fff" d="M1056.7 518.98s-68.42-41.82-185.85-18.8c-114.4 22.45-148.15 92.56-162.34 149.75-14.4 58.4-19.6 140 16.3 208.75 35.9 68.74 61.5 74.76 61.5 74.76s35.9-224.9 75.5-306.68C901.4 545 1056.7 519 1056.7 519"/><path fill="#414143" d="M939.77 498.66c-20.05 0-42.8 1.86-67.9 6.78C756.9 528 726.54 599.44 713.7 651.2c-8.8 35.65-24.96 126.94 15.8 205 24.33 46.6 43.6 63.43 52.58 69.23 6.56-39.7 38.76-226.7 74.8-301 17.06-35.17 55.85-64.52 115.3-87.2 27.3-10.43 52.44-16.9 67.9-20.34-8.05-3.4-19.5-7.5-34.02-10.9-16.4-3.9-38.8-7.4-66.28-7.4m-153.6 440.2c-.4 0-.8-.1-1.23-.2-2.86-.7-28.95-8.6-64.94-77.5-40.9-78.4-28-166.8-16.6-212.5 9.3-37.3 23.9-66.8 44.8-90.2 28.5-31.9 69.4-53.3 121.7-63.6 118.1-23.2 186.8 17.7 189.7 19.4 1.9 1.2 2.9 3.4 2.5 5.6-.4 2.2-2.1 3.9-4.3 4.3-1.5.2-153.1 26.5-191.1 104.8-38.8 80.1-74.6 302.9-75 305.2-.2 1.4-1 2.7-2.3 3.6-.9.6-1.9.9-2.9.9"/><path fill="#dededd" d="M1058.34 525.07s-58.7-35.56-171.14 5.4c-182.6 66.5-187.06 279.64-151.17 348.4 35.9 68.74 72.15 76.17 72.15 76.17s35.83-224.9 75.5-306.67c39.67-81.78 174.66-123.3 174.66-123.3"/><path fill="#414143" d="M988.43 514.43c-26.13 0-59.58 4.65-100.02 19.4-87.1 31.7-127.6 95.6-146.2 143.58-29.7 76.6-23.7 160.1-3 199.8 28.1 53.8 56.4 69.2 66.2 73.2 5.2-31.9 38.2-227.3 75.2-303.5 20.9-43.1 68-74.8 103.8-93.9 27.1-14.4 52-23.9 64.6-28.3-10.2-4-30.5-10.1-60.3-10.1m-180.4 444h-.7c-1.5-.3-38.3-8.6-74.6-78-21.4-41-27.8-127.1 2.7-205.6 19.2-49.3 60.8-115 150.5-147.7 112.8-41 171.8-6.5 174.2-5.1 1.2.8 1.9 2.1 1.7 3.5-.1 1.4-1.1 2.6-2.5 3-.3.1-33.9 10.6-71.9 30.8-34.8 18.6-80.5 49.3-100.5 90.7-39 80.4-74.8 303.5-75.2 305.7-.1 1-.7 1.9-1.5 2.4-.6.5-1.3.7-2 .7"/><path fill="#fff" d="M934.46 551.7s-37.2-16.3-105.74 50.53c-75.26 73.4-89.55 176.48-123.8 262.75-24.94 62.85-31.13 86.85-31.13 86.85s46.9 44.62 69.5 58.96c22.7 14.3 59.8 39.4 59.8 39.4s-53-188.6 24.8-337C885.7 603 934.4 551.6 934.4 551.6"/><path fill="#414143" d="M679.82 950.17c9.73 9.14 47.3 44.02 66.42 56.1 14.7 9.3 35.66 23.25 48.48 31.85-10.27-46.25-37.36-201.77 28.5-327.34 46.14-87.93 86.04-138.15 101.06-155.67-16.6-.7-48.96 9.2-91.82 51-54.4 53.1-76.55 122.4-97.97 189.5-7.7 23.8-15.5 48.5-24.6 71.5-19.7 49.6-27.7 75.1-30.1 83.2m123.3 105.4c-1.1 0-2.1-.3-3-.9-.4-.2-37.3-25.2-59.7-39.3-22.9-14.4-68.5-57.7-70.4-59.6-1.4-1.3-2-3.3-1.5-5.2.2-1 6.5-25 31.3-87.5 9-22.6 16.4-46 24.3-70.7 21.8-68.3 44.3-138.9 100.7-193.8 70.2-68.5 109.9-52.3 111.6-51.6 1.6.7 2.7 2.2 3.1 3.9.3 1.7-.2 3.5-1.4 4.8-.5.5-48.9 52.2-105.7 160.3-76 144.8-25 331.2-24.4 333.1.6 2.2-.2 4.5-2.1 5.8-.9.7-2 1-3.1 1"/><path fill="#dededd" d="M960.9 573.57s-100.73 1.37-163.9 120.3c-71.9 135.33-64.77 275.1-64.77 275.1s13.5 28.7 33.62 51.54c15.85 18 42.32 40.4 42.32 40.4s-31.62-198.7 46.23-347.1c57.8-110.2 106.5-140.2 106.5-140.2"/><path fill="#414143" d="M735.76 968.08c2.1 4.32 14.87 29.74 32.77 50.07 10.5 11.94 25.94 26 34.86 33.88-5-41.4-20.1-210.6 47.8-339.94 42.4-80.8 79.6-118.7 97.2-133.6-28.6 4.8-100 25.9-148.3 116.9-68 127.9-64.8 261.6-64.4 272.5m72.4 96.4c-.8 0-1.7-.3-2.3-.9-1.1-.9-26.9-22.8-42.7-40.8-20.2-23-33.6-51.2-34.2-52.4-.2-.4-.3-.9-.4-1.4-.1-1.4-6.4-142.3 65.1-277 33.1-62.3 76.6-92.2 107.3-106.3 33.4-15.4 58.6-15.9 59.7-15.9 1.6 0 3 1 3.4 2.6.4 1.5-.2 3.2-1.6 4-.5.3-48.7 31-105.2 138.8-76.4 145.6-46.2 343-45.9 344.9.2 1.5-.5 2.9-1.8 3.7-.6.3-1.2.5-1.8.5"/><path fill="#fff" d="M864.93 648.57s-67.32 50.96-88.7 158.94c-17.5 88.3 12.3 135.9 13.6 202.3 2.1 106.1-13.46 123.9-13.46 123.9l88.18 55.9s32.47-47.5 40.56-97.9c8.1-50.4-40.4-136.7-61.2-213.8-20.8-77.1-21.3-165.1 21.1-229.2"/><path fill="#414143" d="M783.46 1131.85l79.47 50.4c7.95-12.7 30.48-51.46 36.9-91.47 4.94-30.8-12.8-77.05-31.56-126.02-10.82-28.24-22-57.43-29.6-85.55-20.3-75.2-18.24-146.7 5-202-3.52 4.2-7.23 8.8-11.05 13.9-17.36 23.5-40.34 62.9-51.15 117.5-10.85 54.8-3.1 93.8 4.38 131.6 4.35 22 8.84 44.7 9.33 69.6 1.6 80.3-6.87 111.2-11.72 122.2m81.08 63.1c-.98 0-1.97-.2-2.86-.8l-88.17-55.9c-1.3-.8-2.2-2.2-2.4-3.7-.2-1.5.3-3.1 1.3-4.3 0 0 14.1-20 12.2-120.2-.4-24-4.7-45.2-9.1-67.7-7.7-38.8-15.6-78.9-4.4-135.7C792.7 698 859 646.7 861.8 644.6c2.1-1.57 5-1.4 6.9.4 1.9 1.8 2.3 4.7.8 6.9-36.6 55.3-44 137.22-20.4 224.9 7.5 27.6 18.6 56.5 29.3 84.5 19.3 50.3 37.5 97.9 32.1 131.5-8.2 51-40.1 98.17-41.4 100.15-1 1.5-2.7 2.3-4.4 2.3"/><path fill="#dededd" d="M884.5 640.45s-72.9 81.66-90.05 170c-20.84 107.3 38.3 182.55 43.92 248.75 5.62 66.2 1.72 70.1 4.62 86.26 2.6 15 21.5 44.15 21.5 44.15s33.5-59 41.6-109.4c8.1-50.4-22.1-133.3-42.8-210.4-20.8-77.1-21.4-165.1 21.1-229.2"/><path fill="#414143" d="M863.6 672.9c-22.7 31.5-55.08 83.83-65.65 138.23-13.25 68.24 6.3 123.3 23.52 171.9 9.48 26.68 18.43 51.9 20.46 75.87 3.26 38.48 3.32 55.7 3.36 67.1 0 7.95 0 12.34 1.2 18.83 1.8 10.47 12.4 28.8 17.8 37.7 8.3-15.55 31.8-62.4 38.3-102.95 6.2-39.05-10.8-97.75-28.9-159.9-4.7-16.15-9.6-32.83-13.9-49.05-19.8-73.5-18.3-143.3 3.6-197.73m.9 520.28c-1.2 0-2.4-.6-3-1.63-.8-1.22-19.3-29.93-22.1-45.46-1.3-7.2-1.3-12-1.3-20.1-.1-11.3-.1-28.4-3.4-66.5-2-23.1-10.8-47.9-20.1-74.1-17.6-49.5-37.4-105.5-23.8-175.7C808 721.4 881 638.8 881.7 638c1.27-1.4 3.38-1.6 4.8-.47 1.5 1.14 1.8 3.23.8 4.8-36.82 55.7-44.4 138.2-20.6 226.35 4.4 16.15 9.2 32.8 13.9 48.9 18.3 62.95 35.5 122.4 29 163.03-8.1 50.5-40.7 108.3-42.1 110.7-.6 1.1-1.7 1.8-3 1.8h-.1z"/><path fill="#dededd" d="M1217.93 557.84s51.54-48.7 143.8-35.34c92.26 13.35 155.88 49.32 174.37 120.33 18.48 71 5.25 153.08-13.68 189.07-18.93 36-304.5-274.06-304.5-274.06"/><path fill="#414143" d="M1225.7 558.35c15.23 16.43 73.73 79.14 134.6 139.73 41.33 41.13 75.63 73.23 101.96 95.4 45.86 38.66 54.68 36.26 55.52 35.88 19.68-37.54 30.37-119.04 13.15-185.18-16.7-64.2-72.3-102.25-169.96-116.4-46.2-6.68-81.6 2.9-103.15 12.1-15.76 6.7-26.65 14.23-32.13 18.47m290.5 281.9c-10 0-38.7-9.97-167.2-138.2-69.3-69.16-134.5-139.88-135.2-140.6-2-2.14-1.9-5.5.2-7.5 2.2-2.06 54.5-50.32 148.2-36.75 102.4 14.83 160.8 55.48 178.7 124.28 18.1 69.54 7 152.7-14.1 192.9-1.7 3.17-4.6 5.17-8.3 5.66-.7.1-1.6.2-2.6.2"/><path fill="#fff" d="M1218.18 598.76s37.97-41.97 129.66-40.14c103.54 2.06 160.4 69.47 170.74 140.9 10.7 73.83-9.9 121.7-28.52 157.1-18.62 35.4-271.88-257.86-271.88-257.86"/><path fill="#414143" d="M1223.08 599c90.78 104.9 232.72 257 261.38 257 .28 0 .55-.02.8-.04 1-.13 1.34-.48 1.64-1.05 20.6-39.1 38.27-85 28.15-154.9-9-62.2-58.23-135.7-167.28-137.8-76.73-1.5-115.35 28.4-124.7 36.8m261.88 264.2c-41.95 0-246.12-235-269.47-262-1.18-1.3-1.15-3.4.06-4.7 1.6-1.7 40.3-43.2 132.37-41.3 113.6 2.3 164.8 79 174.2 144 10.5 71.9-7.7 119.1-28.8 159.3-1.4 2.8-3.9 4.5-7.1 4.8-.3.1-.7.1-1.1.1"/><path fill="#dededd" d="M1278.62 599.2s90.88-29.22 171.3 31.5c80.42 60.72 94.85 175.3 79.35 237.54-16.04 64.4-66.54 113.05-66.54 113.05l-184.1-382.1z"/><path fill="#414143" d="M1286.24 602.7l177.97 369.34c13.2-14.22 47.5-55.06 59.9-105.1 15.1-60.65 1.1-172.73-77.4-231.97-65.6-49.6-139.2-37.27-160.4-32.27m176.5 383.94c-.3 0-.6-.03-.9-.08-1.7-.3-3.1-1.4-3.9-2.94l-184.1-382.1c-.6-1.4-.7-3-.1-4.44.7-1.42 1.8-2.5 3.3-2.98 3.8-1.23 94.5-29.35 176.2 32.33 82.4 62.2 97.2 179.6 81.3 243.1-16.2 65.15-65.9 113.6-68 115.62-1 .96-2.3 1.5-3.7 1.5"/><path fill="#fff" d="M1279.36 635.1s84.2-24.23 159.8 42.4c123.98 109.23-1.87 303.8-1.87 303.8l-158-346.2z"/><path fill="#414143" d="M1284.4 637.58l153.33 336.1c19.14-32.64 107.6-197.88-.93-293.5-63.9-56.32-134.87-46.22-152.4-42.6m152.9 347.28h-.28c-1.3-.1-2.44-.9-2.98-2.1L1276.1 636.6c-.42-.94-.42-2.03.02-2.97.43-.93 1.26-1.64 2.25-1.93.87-.24 86.95-23.98 163.15 43.15 51.76 45.6 67.9 113.53 46.65 196.42-15.93 62.14-47.57 111.5-47.9 112-.65 1-1.78 1.62-2.98 1.62"/><path fill="#dededd" d="M1397.9 718.05s61.9 26.66 79.86 144.98c17.05 112.32-18.25 170.9-57.06 213.35-40.6 44.4-114.8 82.5-192.35 82.7-77.56.2-94.76-19.6-94.76-19.6S1316 1003.16 1369.9 930c53.95-73.12 27.93-211.94 27.93-211.94"/><path fill="#414143" d="M1142.6 1139.4c9.17 5.15 32.77 14.34 84.63 14.34h1.1c79.2-.2 151.7-40.8 188.43-80.97 37.08-40.55 72.7-97.1 55.72-208.94-13.06-86.03-50.05-122.43-67.44-135.12 5.03 35.4 15.36 142-30.75 204.5-49.1 66.5-199.6 182-231.7 206.2m84.6 25.1c-76.8 0-95.8-19.2-97.7-21.4-1-1.1-1.5-2.6-1.3-4.1.1-1.4.9-2.8 2.1-3.7 1.8-1.3 182.4-136.6 235.2-208.3 51.9-70.4 27.2-206.4 27-207.8-.4-1.9.4-3.9 1.9-5.1 1.5-1.2 3.6-1.5 5.4-.7 2.6 1.2 64.8 29.2 83 149.1 17.6 116.3-19.7 175.4-58.4 217.8-46.8 51.1-123.8 84.3-196.3 84.4h-1.1z"/><path fill="#fff" d="M1345.9 707.6s97.33 85.02 104.95 188.14c13.98 189.02-190.52 247.67-272.23 244.22-77.5-3.27-73.1-9.94-73.1-9.94s182.45-136.3 236.4-209.46c53.94-73.14 3.98-212.97 3.98-212.97"/><path fill="#414143" d="M1111.78 1129.77c6.13 1.76 22.73 4.76 66.98 6.63 49 2.1 150.44-19.24 214.34-85.2 40.5-41.78 58.7-94 54.2-155.2-6-80.93-69-151.42-93.8-176.24 4.2 14.3 10.55 38.66 14.16 66.42 5.33 40.9 5.68 97.76-22.88 136.5-49.78 67.5-204.94 185.92-233 207.1m73.5 13.88c-2.37 0-4.64-.05-6.82-.14-71.8-3.03-74.8-8.86-76.07-11.34-.7-1.35-.7-2.93.1-4.12.2-.35.5-.65.8-.9 1.8-1.36 182.6-136.83 235.6-208.7 52.2-70.78 4-208.3 3.5-209.67-.6-1.6 0-3.3 1.3-4.2 1.3-.9 3.1-.8 4.3.2 1 .8 98.5 87.2 106.1 190.5 4.7 63.3-14.2 117.3-56.2 160.7-62.7 64.7-160.7 87.5-213 87.5"/><path fill="#dededd" d="M1395.6 800.38s41.7 78.73 16.4 167.84c-37.25 131.12-121.32 124.63-183.65 190.86-46.34 49.25-58.77 88.44-58.77 88.44s-61.33-20.8-84.56-34.2c-23.24-13.4-62.72-34.56-62.72-34.56s191.62-40.76 286.78-178.67c70.7-102.5 86.52-199.8 86.52-199.8"/><path fill="#414143" d="M1036.94 1180.6c13.58 7.35 35.67 19.4 50.74 28.1 18.74 10.8 63.76 26.86 78.7 32.07 4.98-12.38 20.62-45.55 58.07-85.35 21.78-23.14 46.2-37.64 69.8-51.67 45.6-27.06 88.63-52.63 112.58-136.98 18.08-63.64.83-122.5-9.5-149.06-7.8 32.4-30.32 107.9-83.86 185.5-80.53 116.7-230.8 165.1-276.53 177.5m132.63 72.3c-.58 0-1.15-.1-1.7-.3-2.54-.8-62.1-21.1-85.53-34.6-22.9-13.2-62.18-34.3-62.57-34.5-1.98-1-3.1-3.2-2.77-5.4.32-2.2 2-4 4.18-4.4 1.9-.4 190.68-41.9 283.5-176.4 69.12-100.2 85.48-196.5 85.64-197.5.36-2.3 2.14-4.1 4.4-4.4 2.28-.3 4.52.8 5.6 2.8 1.74 3.3 42.4 81.7 16.8 171.8-25.1 88.5-72.02 116.4-117.4 143.3-22.97 13.6-46.74 27.8-67.48 49.8-44.82 47.6-57.45 86-57.57 86.4-.44 1.4-1.4 2.5-2.7 3.1-.74.4-1.57.6-2.4.6"/><path fill="#fff" d="M1390.25 834.8s2.13 116.72-20.4 165.2c-41 88.23-98.9 99.63-146.12 132.76-74.22 52.08-101.38 77.04-109.56 75.1-33.08-7.93-118.7-37.63-118.7-37.63s204.15-50.62 299.3-188.53c70.7-102.45 95.48-146.9 95.48-146.9"/><path fill="#414143" d="M1007.46 1170.58c24.1 8.22 82 27.7 107.54 33.8 3.64.8 20.23-11.57 41.32-27.2 15.8-11.7 37.4-27.7 65.36-47.33 11.63-8.16 23.58-14.85 36.24-21.92 38.42-21.48 78.16-43.7 108.7-109.42 17.52-37.7 19.87-118.9 20.1-150.6-11.5 19.2-38.76 63.1-89 135.9-82.02 118.9-246.1 173.9-290.26 186.9m107.7 41c-.64 0-1.24-.1-1.82-.2-32.86-7.9-118.2-37.4-119.05-37.7-1.5-.5-2.5-1.9-2.4-3.5 0-1.6 1.1-2.9 2.7-3.3 2-.5 203.9-51.9 297.2-187.1 69.7-101 95-146.1 95.3-146.6.7-1.4 2.4-2.1 3.9-1.7 1.5.4 2.6 1.8 2.7 3.4.1 4.8 1.9 118.1-20.8 166.8-31.5 67.8-72.3 90.6-111.7 112.7-12.5 7-24.3 13.6-35.7 21.6-27.9 19.6-49.5 35.6-65.2 47.2-27.7 20.6-38.7 28.7-45.5 28.7"/><path fill="#dededd" d="M1349.16 937.28s-16.1 97.04-88.82 150.06c-72.7 53.03-126.37 56.7-189.3 78-98.6 33.38-100.17 73-100.17 73l-106.33-48.73s32.82-51.2 73.7-81.8c40.88-30.6 139.86-27.7 217.78-45.2 77.92-17.4 156.1-57.9 193.14-125.3"/><path fill="#414143" d="M872.5 1187.37l94.8 43.45c5.08-13.8 24.9-44.44 102.03-70.54 16.16-5.47 31.84-9.83 47-14.03 44.98-12.5 87.46-24.28 140.87-63.23 45.12-32.9 68.02-83.9 78.65-116.25-37.86 47.55-101.14 83.64-178.66 101-28.5 6.37-59.5 10.04-89.5 13.6-52.1 6.14-101.3 11.96-126.3 30.65-32.2 24.06-59.6 61.73-69 75.35m98.4 56.32c-.8 0-1.5-.2-2.3-.5l-106.4-48.8c-1.4-.7-2.5-1.9-2.9-3.4-.5-1.5-.2-3.1.6-4.4 1.4-2.1 33.8-52.4 75-83.3 27.2-20.4 77.8-26.4 131.4-32.8 29.7-3.5 60.5-7.2 88.4-13.4 88.6-19.9 157.7-64.6 189.6-122.7 1.2-2.3 3.9-3.4 6.4-2.5 2.4.8 3.9 3.3 3.5 5.9-.7 4.1-17.3 99.8-91 153.5-55 40.1-98.4 52.2-144.3 64.9-15 4.2-30.6 8.5-46.5 13.9-92.6 31.3-96.6 67.8-96.6 68.1-.1 1.7-1.1 3.4-2.6 4.3-.9.5-1.9.8-2.8.8"/><path fill="#fff" d="M1348.85 919.36s.1 75.6-70.88 130.88c-78.54 61.17-168.35 75.22-240.33 74.53-93.9-.9-102.36 52.2-140.2 60.74-15.5 3.5-32.9 4.1-32.9 4.1s32.5-69.1 73.4-99.7c40.87-30.6 139.85-27.7 217.77-45.2 78-17.4 156.2-57.9 193.2-125.2"/><path fill="#414143" d="M1343.7 934.7c-35.92 53.66-103.1 94.58-187.2 113.42-28.33 6.35-59.34 10-89.32 13.56-52.33 6.18-101.76 12.02-127.1 31-33.1 24.8-61.05 76.2-69.6 93 6.34-.46 16.7-1.5 26.2-3.65 12.44-2.8 21.74-11.02 32.5-20.53 20.4-17.97 45.7-40.3 106.14-40.3h2.36c93.94.9 174.1-23.92 238.1-73.77 49.76-38.75 63.9-88.16 67.92-112.74m-479.15 258.4c-1.2 0-2.3-.6-2.97-1.6-.7-1.1-.78-2.4-.25-3.5 1.34-2.9 33.35-70.3 74.47-101.1 26.88-20.2 77.23-26.1 130.54-32.4 29.8-3.6 60.63-7.2 88.6-13.5 89.07-20 158.6-65 190.8-123.5.78-1.5 2.4-2.2 4-1.8 1.57.4 2.68 1.8 2.68 3.4 0 .7-.7 77.9-72.25 133.7-65.3 50.8-146.8 76-242.56 75.2-59.4-.7-83.9 21.1-103.7 38.5-11 9.7-21.4 18.9-35.6 22.1-15.6 3.5-32.8 4.1-33.5 4.2h-.1"/><path fill="#9cd8d9" d="M1420.36 657.6c-34.27-6.42-56.2 3.62-64.74 8.78-37.93-42.03-109.23-109.07-210.03-132.84-22-5.2-42.1-8.5-60.6-10.1 8-53.4-12.5-63.5-34-67.64-22-4.22-45.8 13.45-44.2 38.73.9 15.2 6.3 25.76 10.4 31.8-57.8 11.4-100 46.64-147.3 100.3-51.3 58.1-62.9 133.62-61.7 201.5 1.5 89.67 55.1 152.66 68.7 204.2 15.2 57.8-12.4 157.28-12.4 157.28s29.2-87.2 102.8-97.1c71.3-9.6 176.6-7.5 254.3-37.3 92.4-35.3 141.2-88.1 164.9-151.9 23.3-62.7 17-132.9 8.5-173.7 17.3 3.9 38.9 6.2 50.5-2.1 21.6-15.3 19.6-61.3-25.4-69.7"/><path fill="#414143" d="M1044.46 460.52c-7.72 0-15.5 2.95-21.64 8.34-7.45 6.56-11.22 15.55-10.6 25.33.87 13.8 5.63 23.4 9.47 29.1 1 1.5 1.2 3.4.5 5s-2.2 2.8-3.9 3.2c-57.7 11.4-99.4 47.6-144.3 98.6-42.1 47.7-61.9 112.5-60.4 197.8 1 57.5 23.6 103.4 43.5 143.8 10.3 20.9 20.1 40.8 24.9 59.1 9.1 34.6 3.5 82.9-2.9 117.4 16.7-25.8 44.8-55.5 87.3-61.3 21.3-2.9 45.5-4.7 71.1-6.7 60-4.6 128.1-9.7 182-30.4 83.5-31.9 136.5-80.6 161.8-148.8 25.4-68.4 14.2-142.2 8.3-170.8-.4-1.8.1-3.7 1.4-4.9 1.3-1.3 3.1-1.8 4.9-1.5 21.9 4.8 38.3 4.4 46.3-1.3 8.7-6.2 13-19.1 10.3-31.4-3.3-14.9-15.5-25.4-33.6-28.8-32.8-6.2-53.6 3.6-61 8.1-2.2 1.3-5 .9-6.8-1-62.6-69.4-132.4-113.6-207.3-131.2-21.7-5.1-41.3-8.4-59.8-10-1.5-.1-2.9-.9-3.8-2-.9-1.2-1.3-2.7-1.1-4.1 7.5-50.1-10.5-57.9-29.6-61.6-1.9-.4-3.7-.6-5.6-.6M864 1194.4c-.5 0-1.03-.03-1.55-.2-2.8-.8-4.4-3.7-3.6-6.5.23-1 27-98.8 12.33-154.5-4.6-17.3-13.7-35.7-24.2-57.1-19.4-39.4-43.6-88.5-44.6-148.4-1.5-88.2 19.1-155.3 63-205.1 44.44-50.5 86.1-87 142.92-100.4-3.5-6.8-6.7-16.1-7.4-27.9-.8-13 4.3-25.4 14.2-34.1 10.1-8.9 23.7-12.7 36.3-10.3 22.9 4.4 45.2 16.1 39 68.1 17.4 1.8 35.7 5 55.8 9.7 75.9 17.9 146.5 62.1 209.9 131.3 10.7-5.43 32.7-13.24 64.6-7.3 22.42 4.2 37.8 17.7 42 37 3.6 16.6-2.26 33.6-14.6 42.4-9.6 6.9-25.4 8.4-46.87 4.6 6.2 33.7 14 103.5-10.3 168.8-26.45 71.2-81.4 121.9-168 155.06-55.46 21.2-124.3 26.5-185.1 31.1-25.45 1.97-49.5 3.8-70.5 6.6-69.45 9.4-98.15 92.8-98.4 93.6-.78 2.2-2.86 3.67-5.1 3.67"/><path fill="#fff" d="M950.73 711.42c16.7 6.4 35.75 7.9 56.1 2.4 64.55-17.44 111.84-88.16 71.3-150.26C1045.43 513.5 966 505.08 920 541.2c-63.05 49.44-33.3 145.72 30.72 170.2"/><path fill="#414143" d="M988.1 522.6c-24.55 0-48.23 7.53-65.9 21.4-25.58 20.06-37.4 50.48-32.4 83.46 5.53 36.64 29.95 68.3 62.2 80.63 17.14 6.5 35.27 7.3 53.9 2.2 35.83-9.7 65.72-35.7 78-67.9 6.97-18.3 11.12-46.6-8.76-77-14.04-21.5-38.62-36.6-67.45-41.3-6.6-1.1-13.1-1.6-19.6-1.6m-6.2 198.2c-11.1 0-22-2.1-32.5-6.1-34.6-13.3-60.8-47.1-66.7-86.3-5.4-35.6 7.4-68.4 35-90.1 23.9-18.8 57.9-26.7 91-21.2 30.8 5 57.1 21.2 72.2 44.4 16.8 25.7 20.1 55.4 9.4 83.4-13.1 34.2-44.8 61.9-82.8 72.2-8.7 2.3-17.3 3.5-25.8 3.5"/><path fill="#414143" d="M994.12 559.16c.27 15.8-12.32 28.84-28.12 29.1-15.8.3-28.83-12.3-29.1-28.1-.28-15.8 12.3-28.84 28.1-29.1 15.8-.3 28.84 12.3 29.12 28.1"/><path fill="#fff" d="M969.98 547.42c.08 4.75-3.7 8.66-8.45 8.75-4.75.08-8.66-3.7-8.75-8.45-.08-4.75 3.7-8.67 8.45-8.75 4.75-.08 8.67 3.7 8.75 8.45m164.67 120.83c13.7-15.3 60.17-65.72 148.83-5.57 80.43 54.56 44 137.4 15.34 168.23-28.66 30.9-91.7 51.1-155.4-2.7-70.26-59.2-22.46-144.6-8.77-159.9"/><path fill="#414143" d="M1204.96 637.47c-25.3 0-47.9 11.05-67.65 33.15-6.1 6.9-30.4 44.14-27.4 87.1 1.9 26.47 14 49.26 35.9 67.75 34.6 29.13 103.2 54 150.5 3.02 14.1-15.2 36.7-51.6 32.1-92.2-3.2-28.1-18.9-51.9-46.8-70.8-27.6-18.8-53.2-28.2-76.5-28.2m20.6 227.6c-25.8 0-55-9.3-84.5-34.1-23.4-19.8-36.3-44.3-38.4-72.7-2.9-41.4 18.9-80.8 29.3-92.4 40.7-45.6 92.4-47.6 153.5-6.2 29.7 20.1 46.5 45.6 49.9 75.8 4.3 37.7-13.9 76.3-33.9 97.8-15.5 16.7-42.9 31.6-75.8 31.6"/><path fill="#414143" d="M1219.4 681.34c.3 16.56-12.9 30.22-29.47 30.5-16.56.3-30.23-12.9-30.5-29.46-.3-16.57 12.9-30.23 29.46-30.52 16.5-.28 30.2 12.9 30.5 29.48"/><path fill="#fff" d="M1191.74 667.75c.08 4.74-3.7 8.66-8.45 8.74-4.8 0-8.7-3.7-8.8-8.5-.1-4.8 3.7-8.7 8.4-8.8 4.7-.1 8.6 3.7 8.7 8.4"/><path fill="#414143" d="M1056.72 522.54c-.2 0-.4-.02-.6-.05-1.93-.4-3.24-2.2-2.92-4.1 1.05-6.3 2.75-24.2-1.92-31.7-2.25-3.6-4.58-5.6-6.57-5.6-2.5 0-5 3-5.5 3.9-1 1.6-3.2 2.1-4.9 1.1-1.6-1.1-2.1-3.3-1.1-5 .5-.8 4.8-7.2 11.6-7.2h.1c4.7 0 8.9 3 12.6 8.9 6.9 11.1 3.3 34 2.9 36.6-.3 1.7-1.8 3-3.5 3M1431.6 711c-.75 0-1.52-.22-2.16-.72-1.55-1.2-1.84-3.44-.64-5 .6-.78 2.1-3.48 1.36-5.4-.7-1.88-3.55-3.4-8.02-4.27-16.57-3.3-37.13 6-37.33 6.1-1.8.8-3.9 0-4.7-1.7-.8-1.8 0-3.9 1.8-4.7.9-.4 22.9-10.2 41.7-6.5 7.3 1.5 11.7 4.4 13.4 8.8 2.3 6-1.9 11.7-2.4 12.3-.7.9-1.7 1.4-2.8 1.4"/><path fill="#fff" d="M944.83 816.68s-22.2 34.95-25.65 42.92c-3.43 7.97-7.93 12.54 7.83 23.75 15.8 11.2 31.8 18.5 37.5 13.86 5.8-4.6 44.3-48.7 43.6-54.3-.7-5.5-63.2-26.2-63.2-26.2"/><path fill="#414143" d="M946.35 820.94c-7.96 12.58-21.43 34.35-23.9 40.07-.36.9-.73 1.7-1.1 2.5-2.76 6-4.02 8.7 7.72 17 19.56 14 30.75 16 33.2 14 6.03-4.8 37.98-42.2 41.88-50.7-5.48-4-32.4-14.3-57.8-22.8m13.26 81.3c-10.4 0-25.4-9.4-34.6-15.9-15.4-11-14-17.3-10-25.8.4-.7.7-1.4 1-2.2 3.6-8.1 25-42 26-43.4.9-1.4 2.6-2 4.1-1.5 64.7 21.4 65.4 26.9 65.7 29.2 1.1 8.8-42.4 55.6-44.8 57.5-1.9 1.6-4.3 2.2-7.1 2.2"/><path fill="#9cd8d9" d="M934.37 888.53l41.85-62"/><path fill="#414143" d="M934.37 892.1c-.7 0-1.4-.2-2-.6-1.63-1.12-2.06-3.33-.95-4.96l41.84-62c1.1-1.62 3.32-2.05 4.95-.95 1.7 1.1 2.1 3.3 1 4.9l-41.8 62c-.7 1-1.8 1.5-2.9 1.5"/><path fill="#fbb889" d="M1024.86 872.56c18.42.2 34.76-22.54 33.08-39.32-2.5-24.9-32.7-44.3-47.53-54.4-14.8-10.1-51.3-25.85-71.7-9.1-20.4 16.74-22.6 38.3-12.1 45.04 10.5 6.75 71.4 57.5 98.4 57.78"/><path fill="#414042" d="M961.56 766.02c-7.73 0-14.97 1.8-20.65 6.47-13.1 10.8-17.4 22.7-16.9 30.3.3 4.1 1.9 7.2 4.5 9 2.2 1.3 6 4.2 11.3 8.3 21 15.8 64.6 48.6 85.2 48.9 6.7.2 13.6-3.5 19.5-9.9 6.9-7.6 10.9-17.6 10.1-25.6-2.2-22.2-29.4-40.6-44-50.5l-2-1.4c-9.7-6.6-29.5-15.8-46.8-15.8m63.4 110.2h-.2c-22.9-.3-66.1-32.9-89.4-50.4-5-3.8-8.9-6.8-10.8-8-4.6-3-7.3-8.2-7.7-14.6-.7-11.9 6.8-25.8 19.6-36.3 9.8-8 24-10.2 41.1-6.2 14.2 3.3 27.4 10 35 15.2l2 1.4c15.6 10.5 44.5 30.1 47.1 55.6 1 10.1-3.5 22-11.9 31.1-7.2 7.8-15.8 12.1-24.5 12.1"/><path fill="#8c7062" d="M978.7 784.7c5.1 11.72 29.42 26.48 45.9 25.72 16.46-.76 30.66-19.87 12.14-41.1-18.5-21.2-50.7-17.8-56.4-9.98-5.7 7.82-6.72 13.67-1.63 25.37"/><path fill="#414042" d="M999.62 756.87c-.7 0-1.32.02-1.82.04-8.56.4-13.4 3-14.58 4.6-4.74 6.6-5.97 11-1.25 21.9 4.5 10.4 27.28 24.3 42.46 23.6 7.02-.3 13.5-4.7 16.15-10.9 3.12-7.3.8-15.9-6.52-24.3-11.57-13.2-27.6-14.8-34.44-14.8m23.7 57.2c-18.3 0-42.54-15.5-47.88-27.8-5.32-12.2-4.8-19.5 2-28.9 3.05-4.1 10.73-7 20.05-7.4 16.2-.7 31.9 5.7 41.9 17.2 9.1 10.4 11.9 22 7.7 31.8-3.8 8.8-12.6 14.8-22.4 15.2-.5.1-1 .1-1.5.1"/><path fill="#9cd8d9" d="M694.37 1047.5s-38.78 19.07-57.97 40.1c-19.2 21.04-21 48.68.9 51.75 21.9 3.07 59.74-4.48 95.8-47.1"/><path fill="#414143" d="M645.98 1145.26c-4.02 0-7.22-.3-9.42-.6-9.28-1.32-16-6.48-18.9-14.55-4.62-12.8 1.32-31.3 14.8-46.1 19.64-21.5 57.93-40.5 59.55-41.3 2.7-1.3 5.9-.2 7.2 2.5 1.3 2.7.2 5.9-2.4 7.2-.3.2-38.1 18.9-56.4 39-10.7 11.8-15.9 26.3-12.6 35.3 1.6 4.4 5 6.9 10.3 7.6 11.1 1.6 50.3 2.9 91-45.2 1.9-2.2 5.3-2.5 7.6-.6s2.6 5.3.7 7.6c-36.4 43-72.6 49.6-91.2 49.6"/><path fill="#9cd8d9" d="M1026.4 1233.83s-6.28 4.73-19.9 20.25c-17.85 20.33-45.78 59.47-21.43 77.9 20.9 15.77 59.78-17.15 72.74-40.13 13-23 16.4-39.27 16.4-39.27"/><path fill="#414143" d="M998.06 1341.43c-6.14 0-11.65-1.75-16.2-5.2-6.8-5.12-10.65-11.93-11.5-20.22-2.3-22.5 19.14-50.6 32.1-65.4 13.83-15.7 20.43-20.8 20.7-21 2.36-1.7 5.7-1.3 7.5 1.1 1.77 2.4 1.3 5.7-1.04 7.5-.1.1-6.25 4.9-19.1 19.6-9.53 10.9-31.47 38.2-29.5 57.4.53 5.3 2.9 9.5 7.28 12.8 3.84 2.9 8.87 3.7 14.98 2.5 17.88-3.7 40.63-24.6 49.87-40.9 12.33-21.9 15.76-37.6 15.8-37.7.6-2.9 3.43-4.7 6.33-4.1 2.88.6 4.73 3.4 4.13 6.3-.1.7-3.7 17.4-16.9 40.8-10.5 18.7-35.3 41.6-57 46.2-2.5.5-5 .8-7.4.8"/></svg>
