<?xml version="1.0" encoding="UTF-8" standalone="no"?><!DOCTYPE svg PUBLIC "-//W3C//DTD SVG 1.1//EN" "http://www.w3.org/Graphics/SVG/1.1/DTD/svg11.dtd"><svg width="100%" height="100%" viewBox="0 0 2040 2040" version="1.1" xmlns="http://www.w3.org/2000/svg" xmlns:xlink="http://www.w3.org/1999/xlink" xml:space="preserve" style="fill-rule:evenodd;clip-rule:evenodd;stroke-linejoin:round;stroke-miterlimit:1.41421;"><g id="Circle-outline"><path d="M389.377,217.98c173.427,-136.53 392.248,-217.98 630.093,-217.98c563.04,0 1019.47,456.43 1019.47,1019.47c0,563.04 -456.43,1019.47 -1019.47,1019.47c-563.04,0 -1019.47,-456.44 -1019.47,-1019.47c0,-184.309 48.911,-357.197 134.462,-506.389c-43.099,-14.6 -75.871,-52.03 -83.772,-95.761c-4.8,-26.5 -0.6,-53.52 11.6,-77.2c-39.6,-37.44 -44.4,-98.86 -11.3,-150.18c25.4,-39.45 69.4,-64.9 117.8,-68.1c69,-4.3 130.6,28.2 168.7,55.25l0.5,0.4c17.624,12.989 34.758,26.493 51.387,40.49Z" style="fill:#fff;"/><path d="M317.18,206.1c-38.96,-27.63 -86.84,-49.1 -135.5,-49.1c-3.45,0 -6.9,0.1 -10.34,0.34c-35.98,2.37 -70.58,21.33 -90.22,51.85c-21.06,32.7 -23.82,78.1 6.82,105.9c18.9,-9.5 38.26,-12.4 54.72,-12.4c24.85,0 43.1,6.5 43.1,6.5c-4.76,-0.8 -9.46,-1.2 -14.08,-1.2c-52.5,0 -95.44,49.2 -85.75,102.8c5.8,32 30.5,58.8 61.27,68.7c1.77,0.5 3.65,1.1 5.48,1.1c0.85,0 1.7,-0.2 2.52,-0.4c2.6,-0.9 4.44,-3.2 6.12,-5.3c9.8,-12.7 19.93,-25.3 32.5,-35.3c12.54,-9.9 27.88,-17 43.82,-17l0.18,0l-0.04,0c-14.98,0 -27.53,21.3 -33.68,32.5c-10.5,19.2 -14.07,41.5 -7.4,62.7c9.48,30.2 37.6,51.6 68.9,54.3c2.38,0.2 4.74,0.3 7.07,0.3c41.43,0 76.7,-31.7 80.34,-73.8c0.8,-8.8 0.1,-17.3 -1.8,-25.5c116.6,42 220.3,108.7 305.3,193.7c-64.1,-184.9 -183.1,-345.7 -339.2,-461" style="fill:#36bfbd;fill-rule:nonzero;"/><path d="M1103.42,1712.57c1.4,-29.2 2.5,-59.92 -9.65,-85.86c-17.73,-37.8 -64.03,-64.9 -103.42,-67.4c-39.95,-2.5 -86.34,-22.7 -125.54,-4.1c-15.1,7.2 -28.5,17.2 -40.9,29.1c-12.4,11.9 -19.8,28.6 -26.7,44.9c-18.4,43.5 -36.1,88.6 -39.3,136.1c-3.1,47.5 10.6,98.6 45.3,127.5c24.5,20.3 56,27.5 86.4,33.4c40,7.8 81.7,14.4 121.2,3.2c39.6,-11.1 76.8,-44.4 82.2,-88c5.6,-45 8.4,-83.3 10.6,-128.5l-0.19,-0.34Zm314.45,115.74c-35.34,37.5 -87.78,55.9 -138.84,51c-36.93,-3.6 -109.67,-32.6 -108.3,-79.5c0.5,-17.2 77.55,-58.5 87.57,-45.1c13.94,18.6 34,18.8 46.44,17.4c65.42,-7.1 50.2,-94.4 25.6,-124.7c-16.5,-20.3 -61,-52.2 -85.54,-28c-18.5,18.2 -16.98,51.9 -21.27,75.6c-3.58,19.7 -58.24,30.7 -76.2,22.1c-17.94,-8.6 -24.08,-90.3 0.13,-138.4c28.6,-56.8 117.3,-89.5 178.48,-72c61.18,17.6 109.64,68.2 133.56,127.2c16.1,39.7 14.82,134.9 -41.63,194.7l0,-0.3Zm-429.27,-81.4c-9.1,37.5 -4.38,63.6 -52.96,59.3c-48.58,-4.2 -58.73,-48.2 -50.26,-91.8c8.46,-43.5 33.8,-58.1 49.04,-54.5c48.6,11.8 63.28,49.5 54.18,87l0,0Zm-330.3,51.09c39.98,-71.08 80.9,-141.86 130.75,-206.34c7.6,-9.84 15.73,-20.3 16.83,-32.67c1.65,-18.6 -12.65,-34.3 -25.9,-47.3c-9.32,-9.2 -24.47,-26.2 -37.4,-24.3c-5.7,0.8 -7.75,1.7 -12.66,4.8c-22.32,13.7 -54.9,62 -66.2,50.5c-25.6,-38.9 23.04,-64.8 18.25,-98.1c-4.8,-33.3 -31.95,-65.9 -65.52,-64.5c-20.15,0.9 -37.73,13.2 -54,25.1l-210.8,154.1c-9.06,6.6 -19.1,15.1 -18.66,26.4c0.9,22.6 6.9,47.7 22.8,63.8c15.9,16.1 22.9,21.4 43.3,31.4c5.2,2.5 10.6,5.1 16.4,4.9c7.1,-0.2 13.4,-4.4 19.3,-8.5c38.1,-26.5 76.9,-67.3 115,-93.8c-0.1,1.4 8.7,3.1 7.9,11.7c-3.1,31.9 -19.4,106.6 -20.3,135.8c-0.3,7.1 -0.4,14.6 2.6,21c2.2,4.9 6.1,8.8 9.9,12.5c16,15.5 45.5,27.5 70.5,39.3c9.8,4.6 33.9,0.6 37.7,-6.2l0.21,0.41Zm1143.73,-412c-18.4,-19.34 -45.44,-31.17 -67,-46.8c-22.5,-16.33 -44.2,-33.7 -66.32,-50.56c-22.7,-17.32 -45.9,-34.18 -70.8,-48.48c-21.5,-12.37 -50.5,-29.5 -75.5,-32.18c-21,-2.25 -38.8,35.7 -47.3,51.17c-4.5,8.3 -21.9,35.8 -17.1,45.57c0.9,1.76 2.4,3.07 3.9,4.3c6.6,5.32 59.9,33.4 47.2,43.47c-12.3,9.7 -73,8.9 -106,9c0,0 -37.9,47.1 -62,77.2c-5.9,7.4 -12.2,16 -11.1,25.4l5.7,1.4c46.1,12.2 96.1,-5.3 141.9,-11.5c1.3,-0.2 2.8,-0.3 3.8,0.5c0.8,0.6 1.1,1.7 1.3,2.7c1.7,9.3 -4.8,18 -10.5,25.6c-29,38.9 -19.6,84.1 9.6,120.6c25,31.1 60.1,55.1 99.4,62c83.1,14.7 137.8,-54.6 177,-117.7c11.8,-18.9 22.5,-38.4 32.8,-58.1c9.1,-17.4 23.8,-37.4 27.9,-56.7c3.7,-17 -4.2,-34.8 -16.2,-47.4l-0.68,0.51Zm-145.48,115l-14.66,24.56c-1.6,2.7 -3.3,5.45 -5.8,7.3c-7,5.16 -16.8,1.43 -24.5,-2.42c-10.2,-5.02 -21.7,-12.08 -22.3,-23.38c-0.3,-5.5 2.2,-10.68 4.7,-15.58c11.7,-23.17 24.3,-45.96 37.5,-68.33c21.3,4.9 36.5,12.1 48.2,30.6c-13.2,33.7 -23.3,47.26 -23.3,47.26l0.16,-0.01Zm239.5,-530.08c16.44,19.73 0.83,204.43 -24.3,309.52c-3.66,15.27 -3.25,30.53 -11.54,44.48c-2.6,4.42 -5.9,8.28 -11.5,8.28c-3.4,0 -6.8,-1.25 -10,-2.5c-21.8,-8.3 -43.7,-16.7 -63.3,-29.35c-7.3,-4.72 -14.6,-10.75 -16.5,-19.66c-2.1,-9.9 3.5,-19 5.2,-28.5l9.3,-50.7l8.8,-47.9c1,-5.2 11.7,-45.7 8.8,-47.9c-6.2,-4.8 -16.8,-0.6 -18.1,7.1c0.2,-0.5 -4.8,27.6 -4.6,27.1c-10.5,25.8 -14.9,53.7 -20.7,80.8c-3.8,17.5 -8.5,54.3 -33.3,52.6c-7.4,-0.6 -14.2,-4.1 -20.7,-7.8c-14.6,-8.4 -36.8,-19.3 -48.3,-31.9c-18.5,-20.2 23.1,-97.2 29.7,-121.4c1.5,-5.6 2.9,-11.4 2.1,-17.1c-0.9,-5.7 -4.6,-11.4 -10.2,-12.8c-5.6,-1.4 -7.4,1.9 -8.8,7.6c-6.7,27.1 -12.5,55.7 -25.2,80.9c-20,39.7 -53.4,28.6 -84.8,1.9c-3.7,-3.2 -7.2,-6.8 -8.8,-11.4c-2.2,-6.6 0.2,-13.8 2.6,-20.4c22.8,-62.6 41.5,-176 68.4,-187.8c26.9,-11.8 60.5,-8.7 94.2,-12.6c31,-3.5 62.2,-7.1 93.4,-5.7c11,0.5 21.9,1.67 32.9,2.8c20.2,2.1 49.3,11.9 65.7,31.6l-0.46,0.73Zm-4.96,-160.2c-1.1,-23.54 -17.8,-59.63 -46.9,-59.62c-16.6,0 -32.5,8.45 -49,6.93c-25.1,-2.3 -42.1,-26.3 -52.6,-49.22c-3,-6.4 -5.8,-13.2 -5.8,-20.3c0,-24.4 29,-36.1 47.1,-52.5c20.7,-18.8 28.5,-50.7 18.7,-77c-9.7,-26.3 -36.4,-45.4 -64.4,-46.2c-25.4,-0.7 -48.9,11.9 -70.9,24.6c-68.4,39.5 -134.5,82.7 -198.2,129.5c-8.4,22 1.1,46 22,56.7c35.3,18.2 81.6,-11 117,7.2c28.2,14.4 33.3,59.6 8.9,79.9c-14.3,12 -35.6,16 -44.9,32.1c-4.9,8.4 -5.4,18.7 -3.9,28.3c5.3,34.7 19.8,47.4 54.5,52.8c32.2,5 77.1,-2.2 107.4,-14.2c35.1,-13.9 73.7,-17.4 108.8,-31.3c14.2,-5.7 28.9,-11.6 39.8,-22.4c10.9,-10.8 12.9,-21.3 11.8,-44.8l0.6,-0.49Zm-226.3,-407.47c-2.8,-16.98 -23.1,-31.67 -27.6,-36.58c-46.2,-50.46 -104.2,-90.1 -168,-114.9c-31.2,-12.12 -73.2,-29.54 -93.2,-2.68c-57.4,77.2 -157.8,215.3 -153.6,244.2c4.2,28.9 62.3,55 87.4,36.5c25,-18.5 49.1,-40.5 60.6,-32.4c11.4,8 75.1,52.4 115.4,67.9c22.2,8.6 46.6,15.4 69.7,9.4c27.9,-7.3 47.6,-31.6 64.4,-55c11.5,-16.1 22.7,-32.6 29.4,-51.2c3.9,-11.1 19.1,-40.8 15.1,-65.6l0.4,0.36Zm-845.79,-194.57c-33.05,-23.4 -73.18,-30.13 -112.4,-24.64c-42.5,5.94 -83.22,26.5 -111.67,58.86c-10.32,11.76 -19.45,26.13 -22.23,41.76c-3.34,18.8 -21.7,72.32 35.25,186.63c11.97,24 39.9,58.7 63.68,71.1c47.4,24.7 86,27.7 121.86,24.2c24.9,-2.5 56.3,-19.3 77.8,-31.8c21.2,-12.3 37.2,-34 49.2,-56c16,-29.4 13.3,-59.6 7.4,-87.4c-5.9,-27.8 -26.7,-50.5 -40.2,-75.5c-3.5,-6.4 -6.9,-15.5 -28,-11.5c-24.7,4.7 -85.8,23.4 -87.5,42.5c-1.8,20 24.2,81.8 43.6,61.2c12.1,-13 25.4,6.3 19.7,13.2c0,0 -15.9,13.3 -31,21.5c-11.9,6.5 -24.3,13.1 -37.8,14.4c-66.7,6 -110.5,-95.9 -76.3,-143.1c7.9,-10.9 27.2,-29.7 41.4,-27.9c8.3,1 24.2,9.3 25.7,17.6c2.7,15 24.4,2.6 39.5,-4.4c15.7,-7.3 33.6,-14.8 47.1,-21.9c13.5,-7.2 -16.4,-62.8 -25.5,-69.2l0.41,0.39Zm470.15,19.95c-3.9,-18.12 -15.4,-33.13 -26.24,-48.17c-56.9,-79 -221.2,-64.9 -221.2,-64.9c-30.1,-2.08 -58.3,18.17 -73.9,44.04c-15.6,25.86 -20.8,56.54 -24.3,86.53c-4.9,41.8 -7.2,85.17 6.2,125.1c13.4,39.95 45.3,76.05 86.8,83.35c0,0 140.7,25.8 171.1,-5.78c11.5,-11.97 22.3,-24.5 30.5,-38.94c17.9,-31.36 32.3,-64.66 43,-99.12c8.3,-26.58 14.3,-54.9 8.4,-82.1l-0.36,-0.01Zm220.8,214.84c-35.16,-14.28 -80.1,-34.9 -73.75,-52.58c0,0 11.17,-43.9 32.05,-40.1c20.87,3.9 95.9,46.9 89.47,63.3c-6.43,16.4 -12.63,43.5 -47.78,29.2l0.01,0.18Zm-373.46,-89c-2.7,9.95 -6.3,21.06 -15.6,25.55c-6.8,3.26 -14.8,2.02 -22,0.07c-8.1,-2.2 -16.1,-5.3 -22.6,-10.6c-12.7,-10.5 -17.4,-28.1 -17.1,-44.5c0.3,-16.5 4.9,-32.5 7.5,-48.7c2.6,-16.3 3.5,-33.6 12.3,-47.5c26.1,-41 63.7,-12.9 71.3,15c8.2,30.6 -5.7,80 -13.9,110.6l0.1,0.08Z" style="fill:#e94661;fill-rule:nonzero;"/><path d="M1707.66,330.7c-184.32,-184.3 -429.4,-285.82 -690.05,-285.82c-218,0 -425.1,71.08 -594.9,202.22c4.4,4.1 8.8,8.22 13.2,12.38c166.19,-127.6 368.59,-196.78 581.69,-196.78c255.9,0 496.5,99.65 677.45,280.6c180.96,180.96 280.6,421.55 280.6,677.45c0,255.9 -99.64,496.5 -280.6,677.45c-180.95,180.96 -421.54,280.6 -677.44,280.6c-255.9,0 -496.5,-99.64 -677.4,-280.6c-180.9,-180.95 -280.6,-421.54 -280.6,-677.45c0,-164.03 41,-321.75 118.1,-461.52c-4,-5.72 -7.4,-11.84 -10.3,-18.25c-82,144.74 -125.6,308.9 -125.6,479.77c0,260.67 101.5,505.74 285.9,690.05c184.3,184.33 429.4,285.84 690.1,285.84c260.7,0 505.8,-101.5 690.1,-285.84c184.3,-184.3 285.9,-429.38 285.9,-690.05c0,-260.66 -101.5,-505.73 -285.8,-690.05" style="fill:#e94661;fill-rule:nonzero;"/><path d="M492.32,1370.4c-45.2,0 -88.27,-26.2 -107.7,-70.18c-78.88,-178.8 -78.38,-383.65 1.4,-562.03c26.5,-59.4 96.1,-85.9 155.4,-59.4c59.3,26.5 85.9,96.1 59.37,155.4c-52.7,117.7 -53,252.9 -1,371c26.2,59.4 -0.7,128.9 -60.2,155.1c-15.5,6.8 -31.6,10 -47.5,10" style="fill:#36bfbd;fill-rule:nonzero;"/><path d="M474.22,1300.04c-6.5,1.67 -12.8,2.2 -18.88,1.62c-6.08,-0.58 -11.74,-2.14 -16.95,-4.67c-5.3,-2.6 -9.9,-6 -13.8,-10.4c-4,-4.4 -7.1,-9.4 -9.4,-14.9c-2.6,-6.3 -4.2,-12.5 -4.7,-18.7c-0.5,-6.2 0.1,-11.9 1.8,-17.3c1.7,-5.4 4.6,-10.3 8.6,-14.6c4,-4.4 9.4,-7.9 16.1,-10.7c5,-2.1 10.5,-3.2 16.4,-3.5c5.9,-0.3 11.7,0.4 17.3,2.1l76.4,23.9l-23.6,-57.2l23.5,-9.7l36.8,89.5l-22.1,9.1l-94.69,-29.59c-7,-2 -13.13,-1.9 -18.4,0.3c-4.73,1.9 -8.3,5.2 -10.7,9.9c-2.4,4.7 -2.3,10.2 0.3,16.6c2.2,5.27 5.8,9.03 10.9,11.3c5.1,2.23 11.3,2.44 18.58,0.6l6.2,26l0.34,0.34Zm7.1,-256.68c7.36,-0.95 14.12,-0.44 20.28,1.5c6.17,1.92 11.5,4.82 15.96,8.68c4.46,3.87 8.1,8.58 10.92,14.13c2.82,5.56 4.62,11.4 5.4,17.53c0.8,6.13 0.52,12.2 -0.8,18.2c-1.34,6.02 -3.68,11.46 -7.03,16.33c-3.34,4.87 -7.75,9.02 -13.23,12.45c-5.48,3.43 -11.9,5.6 -19.25,6.55l-69.18,8.9c-7.5,0.95 -14.3,0.46 -20.4,-1.48c-6.1,-1.94 -11.4,-4.85 -16,-8.7c-4.6,-3.86 -8.2,-8.52 -11,-14c-2.8,-5.5 -4.6,-11.3 -5.4,-17.42c-0.8,-6.12 -0.5,-12.23 0.8,-18.32c1.3,-6 3.7,-11.5 7.1,-16.4c3.4,-4.9 7.8,-9 13.2,-12.4c5.4,-3.4 11.8,-5.6 19.3,-6.5l69.2,-8.9l0.13,-0.15Zm-65.23,35.24c-7.4,0.95 -12.8,3.63 -16.2,8.04c-3.5,4.4 -4.8,9.83 -3.9,16.27c0.8,6.5 3.4,11.4 7.8,14.7c4.4,3.3 10.3,4.5 17.7,3.6l67.8,-8.7c7.4,-0.9 12.8,-3.6 16.2,-7.9c3.4,-4.3 4.7,-9.7 3.9,-16.1c-0.9,-6.4 -3.5,-11.3 -7.9,-14.7c-4.5,-3.4 -10.4,-4.6 -17.7,-3.6l-67.9,8.7l0.2,-0.31Zm116.4,-114.2l-130.9,-18l12.7,24.44l-27.7,-3.84l-13.7,-26.42l3.4,-24.58l159.71,22l-3.63,26.4l0.12,0Zm31.6,-121.88l-11.3,26.44l-103.3,-104.08l-15.5,36.47l21.1,8.97l-10.4,24.53l-44.6,-18.95l37.7,-88.7l22.2,9.42l104,105.9l0.1,0Z" style="fill:#fff;fill-rule:nonzero;"/><path d="M274.93,1455.22c-0.1,6.4 0.72,12.26 2.46,17.6c1.7,5.36 3.8,9.98 6.3,13.87c4.1,6.5 8.4,10.3 12.8,11.4c4.3,1.1 8.4,0.4 12.2,-2c2.2,-1.5 3.8,-3.1 4.7,-5c0.8,-1.9 1.1,-4.3 0.8,-7.1c-0.3,-2.9 -1.1,-6.1 -2.4,-9.9c-1.3,-3.8 -3,-8.2 -5.1,-13.3c-1.8,-4.4 -3.2,-8.8 -4.5,-13.3c-1.2,-4.5 -1.6,-9 -1.2,-13.4c0.4,-4.5 1.9,-8.7 4.4,-12.8c2.5,-4.1 6.5,-7.9 12,-11.4c5.2,-3.3 10.5,-5.2 15.9,-5.6c5.4,-0.4 10.6,0.3 15.7,2.2c5.1,1.9 9.9,4.8 14.4,8.8c4.5,4 8.5,8.6 11.9,14.1c4.4,7 8,14.9 10.6,23.7c2.6,8.7 3.1,18.1 1.5,28l-21.6,-2.1c1.4,-7.4 1.2,-14.3 -0.4,-20.9c-1.7,-6.6 -4.4,-12.8 -8.2,-18.8c-3.8,-5.9 -8.1,-10 -12.8,-12c-4.8,-2.1 -9.6,-1.6 -14.4,1.4c-4.3,2.7 -6.5,6.4 -6.7,11c-0.2,4.6 1.3,10.5 4.5,17.7c2.3,5 4.3,10 6.1,15.2c1.7,5.1 2.6,10.1 2.6,15c0,4.9 -1.2,9.5 -3.5,14c-2.4,4.4 -6.5,8.5 -12.5,12.3c-5.3,3.3 -10.6,5.3 -15.9,5.7c-5.2,0.4 -10.3,-0.2 -15,-2c-4.7,-1.8 -9.2,-4.4 -13.2,-8c-4.1,-3.6 -7.6,-7.6 -10.5,-12.2c-4.4,-6.9 -7.7,-13.8 -10,-20.7c-2.3,-7 -3.2,-14.2 -2.9,-21.6l21.2,-0.6l0.74,0.73Zm70.26,-75.46l-112.6,57.87l-10.1,-19.57l112.51,-57.86l10.05,19.56l0.14,0Zm-48.4,-109.83l-40.79,57.77l-20.56,26.9l0.36,0.4l81.7,-31.77l7.96,20.5l-117.95,45.83l-7.4,-18.98l37.4,-52.55l24.1,-32.38l-0.5,-0.2l-81.7,31.73l-7.9,-20.5l118,-45.82l7.4,18.98l-0.12,0.09Zm-40.1,-73.04c-0.8,-3.6 -2.3,-6.7 -4.3,-9.4c-2.1,-2.7 -4.5,-4.9 -7.3,-6.5c-2.8,-1.7 -5.9,-2.8 -9.3,-3.4c-3.4,-0.6 -6.7,-0.5 -10,0.3l-5.4,1.2l6,25.7l-18.4,4.3l-11,-47.1l24.2,-5.7c6.4,-1.5 12.5,-1.7 18.4,-0.6c5.9,1.1 11.3,3.2 16.2,6.4c4.9,3.2 9.1,7.3 12.6,12.5c3.5,5.2 6,11 7.5,17.5c1.8,7.8 2.2,14.8 1.1,21.1c-1.1,6.3 -3.3,11.8 -6.6,16.6c-3.3,4.7 -7.6,8.7 -12.9,11.8c-5.3,3.1 -11.3,5.5 -17.9,7l-31.5,7.3c-6.2,1.4 -12.3,1.8 -18.4,1.3c-6.1,-0.5 -11.8,-2.2 -16.9,-4.9c-5.2,-2.7 -9.7,-6.6 -13.6,-11.7c-3.9,-5.1 -6.7,-11.5 -8.5,-19.1c-2.5,-10.9 -2,-20.6 1.5,-29.3c3.5,-8.7 9.2,-15.5 17.1,-20.6l12.7,18.3c-4.5,2.7 -7.8,6.3 -9.9,11c-2.1,4.6 -2.5,10 -1.1,16c1,4.1 2.5,7.5 4.6,10.1c2.1,2.6 4.6,4.6 7.4,5.9c2.8,1.3 5.9,2.1 9.2,2.3c3.3,0.2 6.5,0 9.7,-0.8l33.3,-7.7c3.3,-0.8 6.4,-2.1 9.4,-3.8c2.9,-1.8 5.4,-3.9 7.4,-6.5c2,-2.6 3.44,-5.6 4.3,-8.9c0.84,-3.4 0.8,-7.1 -0.2,-11.3l0.6,0.7Zm-1.3,-140.9l-27,12.5l4.2,46.7l28.8,7.6l2.1,23l-130.4,-36.1l-1.7,-17.8l121.6,-59.2l2.1,23.1l0.3,0.2Zm-69.8,31.4l-25.2,10.7l0,0.5l26.1,5.8l26.8,6.1l-3.1,-33.9l-24.8,10.6l0.2,0.2Zm-14.1,-156c5,0.2 9.8,1.4 14.4,3.6c4.5,2.2 8.4,5.2 11.7,9c3.3,3.7 6,8.2 7.8,13.4c1.9,5.2 2.7,10.8 2.4,17l-1.3,28.8l48.5,2.1l-1,21.9l-126.4,-5.6l2.2,-49.2c0.2,-6 1.3,-11.5 3.3,-16.6c1.9,-5.2 4.6,-9.6 8,-13.4c3.4,-3.8 7.7,-6.7 12.7,-8.7c5,-2.1 10.8,-2.9 17.4,-2.6l0.3,0.3Zm-1.5,22.5c-6.6,-0.3 -11.5,1.4 -14.7,5.1c-3.3,3.7 -5,8.7 -5.3,15l-1.2,26.7l37.9,1.7l1.2,-27.4c0.3,-6.5 -1.4,-11.5 -5,-15.3c-3.6,-3.8 -8,-5.7 -13,-6l0.1,0.2Zm-28.29,-88.89c1.28,-7.17 3.63,-13.4 7.04,-18.7c3.4,-5.3 7.56,-9.6 12.46,-12.9c4.97,-3.3 10.5,-5.54 16.67,-6.65c6.18,-1.1 12.66,-1.06 19.46,0.15l31.85,5.7c7.28,1.3 13.65,3.6 19.1,6.9c5.45,3.24 9.87,7.26 13.26,12.05c3.4,4.8 5.68,10.26 6.87,16.38c1.2,6.14 1.2,12.7 -0.1,19.75c-1.4,7.77 -3.9,14.34 -7.5,19.73c-3.6,5.4 -7.9,9.6 -12.9,12.7c-5,3.1 -10.6,5 -16.6,5.9c-6,0.9 -12.2,0.8 -18.6,-0.4l-31.8,-5.7c-6.2,-1.1 -12,-3.1 -17.4,-6c-5.3,-2.9 -9.9,-6.7 -13.6,-11.3c-3.6,-4.6 -6.2,-10 -7.8,-16.3c-1.5,-6.3 -1.5,-13.3 -0.1,-21.1l-0.31,-0.21Zm20.4,3.73c-0.76,4.2 -0.7,7.94 0.2,11.24c0.9,3.32 2.37,6.2 4.45,8.68c2.08,2.47 4.58,4.5 7.5,6.07c2.92,1.57 6,2.64 9.2,3.22l33.48,5.98c3.46,0.62 6.86,0.7 10.2,0.25c3.35,-0.45 6.46,-1.47 9.32,-3.06c2.87,-1.6 5.33,-3.7 7.36,-6.5c2.1,-2.8 3.5,-6.2 4.2,-10.4c0.7,-3.9 0.6,-7.4 -0.2,-10.7c-0.8,-3.3 -2.2,-6.2 -4.2,-8.8c-2,-2.5 -4.5,-4.6 -7.5,-6.3c-3.1,-1.7 -6.5,-2.9 -10.3,-3.6l-33.5,-6c-3.5,-0.6 -7,-0.6 -10.3,-0.1c-3.3,0.6 -6.3,1.7 -9,3.4c-2.7,1.7 -5,4 -6.9,6.8c-1.9,2.8 -3.2,6.2 -3.9,10l-0.11,-0.18Zm137.53,-104.63l-56.4,4.9l-7.25,22.3l49.63,16.06l-6.7,20.93l-120.4,-39l16.6,-51.2c1.7,-5.1 4,-9.6 7.1,-13.6c3.1,-4 6.6,-7.2 10.7,-9.6c4,-2.4 8.5,-3.9 13.5,-4.4c5,-0.5 10.1,0.1 15.4,1.8c7.7,2.5 13.8,6.8 18.2,12.8c4.4,6 6.8,13.3 7.1,21.8l60.5,-6.7l-7.6,23.5l-0.38,0.41Zm-85.1,-30.2c-5.68,-1.83 -10.35,-1.43 -14.03,1.2c-3.66,2.64 -6.4,6.73 -8.2,12.26l-8.7,27l33.73,10.9l8.5,-26.3c1.83,-5.65 1.82,-10.78 -0.02,-15.38c-1.8,-4.67 -5.6,-7.9 -11.2,-9.7l-0.08,0.02Zm98.16,-5.2l-114.3,-54.2l36.3,-76.55l18.1,8.57l-26.9,56.67l29.9,14.1l22.9,-48.3l17.4,8.2l-22.9,48.3l30.9,14.6l26.9,-56.7l18,8.6l-36.3,76.5l0,0.21Z" style="fill:#36bfbd;fill-rule:nonzero;"/><path d="M317.18,206.1c-38.96,-27.63 -86.84,-49.1 -135.5,-49.1c-3.45,0 -6.9,0.1 -10.34,0.34c-35.98,2.37 -70.58,21.33 -90.22,51.85c-21.06,32.7 -23.82,78.1 6.82,105.9c18.9,-9.5 38.26,-12.4 54.72,-12.4c24.85,0 43.1,6.5 43.1,6.5c-4.76,-0.8 -9.46,-1.2 -14.08,-1.2c-52.5,0 -95.44,49.2 -85.75,102.8c5.8,32 30.5,58.8 61.27,68.7c1.77,0.5 3.65,1.1 5.48,1.1c0.85,0 1.7,-0.2 2.52,-0.4c2.6,-0.9 4.44,-3.2 6.12,-5.3c9.8,-12.7 19.93,-25.3 32.5,-35.3c12.54,-9.9 27.88,-17 43.82,-17l0.18,0l-0.04,0c-14.98,0 -27.53,21.3 -33.68,32.5c-10.5,19.2 -14.07,41.5 -7.4,62.7c9.48,30.2 37.6,51.6 68.9,54.3c2.38,0.2 4.74,0.3 7.07,0.3c41.43,0 76.7,-31.7 80.34,-73.8c0.8,-8.8 0.1,-17.3 -1.8,-25.5c116.6,42 220.3,108.7 305.3,193.7c-64.1,-184.9 -183.1,-345.7 -339.2,-461" style="fill:#36bfbd;fill-rule:nonzero;"/></g><path d="M1483.11,966.905c-9.485,51.915 -33.811,86.118 -58.717,113.405c-7.323,7.996 -15.386,15.554 -24.056,22.615c2.024,0.022 4.077,0.108 6.156,0.265c21.5,1.6 77.3,17.4 76.3,69.7c-0.073,3.742 -0.343,7.348 -0.781,10.818c-2.931,24.916 -14.466,42.888 -23.188,53.336c7.322,0.644 16.879,2.364 27.569,6.446c20.7,8 36.5,24 43.3,44.1c2.061,6.142 3.665,13.803 3.61,22.758c0.089,13.389 -3.505,29.76 -14.91,48.362c-22.2,36.3 -58.4,42.3 -79.8,42.3l0.28,-0.59c-10.3,0 -17.14,-1.38 -17.34,-1.42c-1.512,-0.324 -2.814,-1.28 -3.569,-2.613c-0.223,-0.306 -0.414,-0.639 -0.571,-0.997c-0.7,-1.6 -0.6,-3.4 0.3,-4.9c0.261,-0.435 23.616,-41 9.383,-64.441c-2.089,-3.253 -4.934,-6.156 -8.703,-8.549c-23.46,-14.9 -48.85,-11.93 -84.9,9.96c-1.01,0.609 -2.143,0.846 -3.236,0.748c-13.311,8.246 -27.344,18.788 -42.114,31.196c-0.839,2.113 -1.875,4.187 -3.11,6.206c-8.356,13.698 -20.652,21.475 -32.719,25.939c-3.367,3.18 -6.767,6.428 -10.201,9.741c-39.566,38.128 -77.747,69.503 -114.385,94.016c-9.25,13.721 -20.832,22.031 -34.385,24.484c-2.521,0.388 -4.992,0.692 -7.402,0.859c-3.47,1.879 -6.924,3.693 -10.363,5.44c-9.474,11.48 -22.787,22.769 -39.145,24.221c-1.5,0.2 -3,0.2 -4.5,0.2l-0.09,-0.2c-4.036,0 -8.094,-0.46 -12.106,-1.267c-13.492,4.164 -26.704,7.182 -39.624,9.047c-7.412,1.075 -15.688,1.926 -24.63,2.462c-4.253,0.99 -8.518,1.458 -12.85,1.458l-0.03,-0.17c-2.878,0 -5.749,-0.217 -8.612,-0.65l-0.178,0l0.53,0.68c-16.524,0 -34.542,-1.049 -53.229,-3.517c-3.86,-0.232 -7.743,-0.748 -11.631,-1.603c-0.575,-0.126 -1.145,-0.255 -1.709,-0.388c-18.04,-3.006 -36.511,-7.377 -54.701,-13.432c-77.6,-25.82 -131.52,-76.6 -155.97,-146.88c-4.163,-11.966 -7.687,-23.767 -10.646,-35.361c-2.286,-7.309 -4.051,-14.894 -5.314,-22.379c-0.317,-1.887 -0.597,-3.753 -0.841,-5.598c-14.665,-79.116 -4.135,-146.29 6.47,-187.004c-0.182,0.001 -0.361,0.002 -0.539,0.002l-0.23,-0.45c-4.02,0 -7.22,-0.3 -9.42,-0.6c-9.28,-1.32 -16,-6.48 -18.9,-14.55c-4.62,-12.8 1.32,-31.3 14.8,-46.1c14.811,-16.214 40.228,-31.005 52.527,-37.642c5.813,-17.99 13.048,-38.367 21.309,-57.483c-18.274,-15.772 -35.165,-31.834 -36.306,-32.975c-1.4,-1.3 -2,-3.3 -1.5,-5.2c0.2,-1 6.5,-25 31.3,-87.5c3.373,-8.469 6.521,-17.05 9.554,-25.77c-27.681,-71.921 -16.2,-147.698 -5.934,-188.85c9.3,-37.3 23.9,-66.8 44.8,-90.2c12.388,-13.866 27.119,-25.748 44.11,-35.596c2.293,-4.979 22.75,-47.838 59.95,-81.184c11.74,-10.492 27.863,-20.698 46.989,-29.126c30.229,-29.598 74.868,-57.555 128.155,-64.086c80.9,-10 135.2,17.5 193.5,97.8c21.563,29.791 33.396,57.667 39.783,80.751c24.682,-9.275 58.788,-15.934 101.493,-9.749c102.4,14.83 160.8,55.48 178.7,124.28c13.91,53.44 10.575,114.924 -1.291,158.773c0.451,6.47 0.666,12.821 0.661,19.008c0.786,3.424 0.77,6.197 -0.139,8.232l-0.011,0.302l-0.014,0.424l-0.004,0.09l-0.008,0.235l-0.01,0.263l-0.006,0.136l-0.015,0.38l-0.014,0.351l-0.015,0.335l-0.016,0.376l-0.008,0.162l-0.011,0.252l-0.01,0.204l-0.004,0.1l-0.032,0.641l-0.009,0.176l-0.015,0.289l-0.017,0.325l-0.014,0.242l-0.014,0.26l-0.008,0.149c-0.016,0.276 -0.032,0.551 -0.049,0.826l-0.007,0.136l-0.016,0.246l-0.017,0.273l-0.021,0.339l-0.016,0.249l-0.007,0.098c-0.018,0.282 -0.037,0.564 -0.057,0.845l-0.011,0.158l-0.015,0.204l-0.015,0.221l-0.035,0.471l-0.014,0.201l-0.011,0.143l-0.045,0.584l-0.015,0.189l-0.014,0.176l-0.013,0.162c-0.023,0.29 -0.047,0.579 -0.071,0.867l-0.005,0.057l-0.016,0.182l-0.038,0.45l-0.024,0.267l-0.016,0.183l-0.011,0.122c-0.026,0.29 -0.053,0.58 -0.08,0.869l-0.007,0.085l-0.018,0.18l-0.034,0.359l-0.035,0.357l-0.017,0.175l-0.008,0.082c-0.029,0.292 -0.059,0.584 -0.089,0.875l-0.011,0.109l-0.017,0.162l-0.03,0.284l-0.052,0.477l-0.014,0.137l-0.005,0.043c-0.032,0.295 -0.065,0.59 -0.098,0.884l-0.015,0.127l-0.016,0.137c-0.034,0.298 -0.068,0.594 -0.103,0.891l-0.003,0.022l-0.011,0.087l-0.067,0.558l-0.032,0.259l-0.017,0.139l-0.013,0.107c-0.037,0.294 -0.074,0.587 -0.112,0.88l-0.006,0.051l-0.017,0.129l-0.056,0.426l-0.045,0.34l-0.019,0.137l-0.01,0.076c-0.039,0.292 -0.079,0.583 -0.12,0.874l-0.01,0.077l-0.019,0.133l-0.047,0.332l-0.063,0.441l-0.016,0.114l-0.007,0.043c-0.042,0.292 -0.085,0.583 -0.129,0.873l-0.014,0.098l-0.019,0.122l-0.038,0.256l-0.092,0.592l-0.005,0.039l-0.002,0.009c-0.046,0.294 -0.092,0.587 -0.139,0.88l-0.018,0.113l-0.017,0.101c-0.046,0.29 -0.094,0.578 -0.142,0.866l-0.004,0.029l-0.015,0.087l-0.08,0.479l-0.053,0.305l-0.02,0.119l-0.013,0.076c-0.049,0.285 -0.099,0.568 -0.149,0.852l-0.01,0.056l-0.02,0.112l-0.066,0.367l-0.071,0.391l-0.019,0.107l-0.009,0.048c-0.052,0.282 -0.104,0.563 -0.157,0.844l-0.015,0.079l-0.022,0.112l-0.053,0.282l-0.098,0.508l-0.012,0.062l-0.004,0.018c-0.055,0.282 -0.11,0.562 -0.166,0.842l-0.02,0.098l-0.02,0.099c-0.056,0.28 -0.113,0.56 -0.171,0.839l-0.002,0.013l-0.01,0.047l-0.109,0.525l-0.057,0.264l-0.022,0.108l-0.017,0.079c-0.058,0.274 -0.117,0.546 -0.177,0.818l-0.008,0.041l-0.022,0.095l-0.086,0.393l-0.075,0.337l-0.024,0.105l-0.012,0.055c-0.061,0.269 -0.122,0.537 -0.184,0.804l-0.014,0.065l-0.025,0.106l-0.07,0.3l-0.101,0.431l-0.019,0.08l-0.007,0.028c-0.063,0.266 -0.127,0.532 -0.192,0.797l-0.02,0.084l-0.024,0.099l-0.056,0.228l-0.143,0.576c-0.074,0.298 -0.149,0.596 -0.225,0.894l-0.023,0.092l-0.046,0.179l-0.092,0.359l-0.073,0.281l-0.042,0.164l-0.033,0.126l-0.049,0.189l-0.136,0.515l-0.04,0.15l-0.011,0.04c-0.078,0.295 -0.157,0.589 -0.237,0.884l-0.015,0.054l-0.046,0.169l-0.125,0.457l-0.059,0.213l-0.038,0.137l-0.043,0.153l-0.069,0.25l-0.111,0.392l-0.05,0.177l-0.022,0.077c-0.083,0.293 -0.166,0.585 -0.25,0.877l-0.005,0.016l-0.026,0.09l-0.181,0.622l-0.045,0.151l-0.03,0.104l-0.051,0.173l-0.094,0.318l-0.092,0.305l-0.05,0.169l-0.033,0.11l-0.049,0.162l-0.175,0.576l-0.034,0.113l-0.007,0.024c-0.089,0.289 -0.178,0.578 -0.268,0.867l-0.021,0.068l-0.054,0.174l-0.126,0.403l-0.074,0.234l-0.046,0.145l-0.045,0.14l-0.069,0.22l-0.137,0.425l-0.054,0.169l-0.019,0.06c-0.093,0.287 -0.186,0.573 -0.28,0.859l-0.01,0.031l-0.044,0.133l-0.173,0.528l-0.058,0.172l-0.038,0.115l-0.054,0.162l-0.095,0.283l-0.111,0.329l-0.057,0.17l-0.033,0.095l-0.045,0.135l-0.228,0.665l-0.016,0.047l-0.002,0.007c-0.098,0.284 -0.196,0.568 -0.295,0.851l-0.028,0.081l-0.06,0.171l-0.126,0.358l-0.09,0.255l-0.054,0.152l-0.044,0.125l-0.068,0.19l-0.167,0.466l-0.054,0.151l-0.016,0.045c-0.101,0.28 -0.203,0.561 -0.305,0.84l-0.016,0.045l-0.057,0.153l-0.168,0.458l-0.071,0.192l-0.046,0.124l-0.056,0.15l-0.092,0.25l-0.134,0.356l-0.063,0.168l-0.029,0.078c-0.105,0.279 -0.21,0.557 -0.316,0.835l-0.003,0.007l-0.02,0.051l-0.245,0.64l-0.052,0.135l-0.035,0.092l-0.064,0.164l-0.123,0.318l-0.109,0.277l-0.06,0.155l-0.043,0.11l-0.064,0.164l-0.204,0.515l-0.048,0.122l-0.012,0.029c-0.108,0.274 -0.218,0.548 -0.328,0.822l-0.023,0.058l-0.064,0.159l-0.163,0.402l-0.086,0.212l-0.053,0.131l-0.056,0.136l-0.089,0.22l-0.159,0.386l-0.065,0.16l-0.026,0.062c-0.113,0.272 -0.225,0.544 -0.338,0.815l-0.009,0.021l-0.044,0.105l-0.224,0.535l-0.065,0.154l-0.043,0.101l-0.065,0.154l-0.119,0.282l-0.129,0.3l-0.066,0.156l-0.04,0.094l-0.059,0.139l-0.253,0.586l-0.03,0.07l-0.005,0.012c-0.116,0.269 -0.233,0.537 -0.35,0.804l-0.03,0.069l-0.069,0.157l-0.156,0.357l-0.103,0.232l-0.06,0.136l-0.053,0.12l-0.085,0.193l-0.188,0.421l-0.064,0.144l-0.021,0.046c-0.119,0.266 -0.238,0.531 -0.358,0.795l-0.015,0.034l-0.058,0.129l-0.21,0.461l-0.079,0.173l-0.049,0.109l-0.065,0.141l-0.114,0.25l-0.15,0.325l-0.07,0.152l-0.036,0.077c-0.243,0.526 -0.488,1.049 -0.734,1.571l-0.036,0.078l-0.071,0.15l-0.15,0.317l-0.12,0.253l-0.066,0.138l-0.05,0.104l-0.079,0.167l-0.224,0.467l-0.056,0.116l-0.014,0.03c-0.125,0.259 -0.25,0.517 -0.376,0.775l-0.021,0.045l-0.067,0.136l-0.197,0.405l-0.095,0.192l-0.055,0.114l-0.062,0.126l-0.109,0.222l-0.175,0.354l-0.07,0.142l-0.03,0.06c-0.128,0.257 -0.255,0.513 -0.383,0.769l-0.005,0.01l-0.03,0.058l-0.278,0.555l-0.07,0.139l-0.043,0.084l-0.07,0.138l-0.143,0.284l-0.141,0.275l-0.068,0.136l-0.045,0.087l-0.073,0.144l-0.272,0.53l-0.034,0.067l-0.007,0.014c-0.131,0.253 -0.261,0.506 -0.392,0.758l-0.028,0.053l-0.069,0.133l-0.187,0.36l-0.112,0.213l-0.06,0.116l-0.057,0.109l-0.103,0.196l-0.205,0.389l-0.065,0.123l-0.023,0.043c-0.132,0.251 -0.265,0.501 -0.398,0.75l-0.011,0.021l-0.046,0.086l-0.254,0.476l-0.086,0.159l-0.047,0.088l-0.067,0.124l-0.136,0.254l-0.163,0.301l-0.069,0.127l-0.038,0.07c-0.267,0.493 -0.535,0.983 -0.804,1.471l-0.033,0.06l-0.068,0.123l-0.178,0.323l-0.131,0.235l-0.062,0.113l-0.051,0.091l-0.097,0.174l-0.242,0.434l-0.051,0.091l-0.015,0.026c-0.137,0.245 -0.274,0.489 -0.411,0.733l-0.016,0.028l-0.053,0.093l-0.238,0.42l-0.102,0.18l-0.051,0.089l-0.06,0.106l-0.13,0.229l-0.19,0.332l-0.064,0.112l-0.03,0.051c-0.275,0.48 -0.55,0.957 -0.827,1.431l-0.036,0.062l-0.063,0.109l-0.171,0.293l-0.152,0.26l-0.061,0.105l-0.043,0.072l-0.09,0.154l-0.294,0.498l-0.022,0.038l-0.005,0.008c-0.142,0.24 -0.283,0.479 -0.425,0.717l-0.02,0.033l-0.053,0.089l-0.224,0.377l-0.122,0.202l-0.051,0.086l-0.052,0.087l-0.124,0.206l-0.223,0.371l-0.052,0.086l-0.02,0.032c-0.143,0.238 -0.287,0.474 -0.43,0.711l-0.002,0.002l-0.006,0.011l-0.315,0.517l-0.094,0.152l-0.037,0.062l-0.056,0.091l-0.164,0.267l-0.178,0.29l-0.055,0.089l-0.033,0.052c-0.284,0.461 -0.568,0.92 -0.853,1.375l-0.021,0.034l-0.048,0.077l-0.215,0.343l-0.144,0.228l-0.047,0.077l-0.042,0.066l-0.119,0.188l-0.266,0.422l-0.028,0.044l-0.008,0.013c-0.143,0.226 -0.286,0.451 -0.429,0.675c-0.197,0.309 -0.395,0.617 -0.592,0.924l-0.084,0.131l-0.097,0.151l-0.154,0.239l-0.396,0.611l-0.057,0.087l-0.05,0.078l-0.408,0.625l-0.148,0.226l-0.098,0.149l-0.089,0.136c-0.195,0.297 -0.39,0.593 -0.585,0.887l-0.029,0.045l-0.099,0.148l-0.316,0.476l-0.179,0.267l-0.109,0.165l-0.079,0.118c-0.192,0.286 -0.384,0.572 -0.575,0.856l-0.049,0.072l-0.119,0.175l-0.252,0.373l-0.211,0.31l-0.119,0.177l-0.067,0.096c-0.189,0.278 -0.378,0.554 -0.567,0.829l-0.067,0.098l-0.124,0.181l-0.203,0.294l-0.247,0.357l-0.125,0.181l-0.052,0.075c-0.187,0.269 -0.373,0.537 -0.559,0.803l-0.086,0.123l-0.123,0.175l-0.16,0.229l-0.289,0.411l-0.123,0.175l-0.041,0.057l-0.445,0.629l-0.104,0.146l-0.104,0.147l-0.116,0.162l-0.123,0.174l-0.344,0.48l-0.107,0.151l-0.121,0.168l-0.32,0.444l-0.126,0.174l-0.122,0.169l-0.107,0.147l-0.089,0.124l-0.434,0.597l-0.055,0.076l-0.151,0.206l-0.244,0.335l-0.148,0.201l-0.14,0.19l-0.095,0.13c-0.172,0.233 -0.344,0.466 -0.515,0.697l-0.069,0.094l-0.161,0.216l-0.189,0.255l-0.169,0.226l-0.157,0.211l-0.082,0.111c-0.167,0.222 -0.333,0.444 -0.499,0.664l-0.091,0.122l-0.16,0.213l-0.145,0.192l-0.188,0.248l-0.175,0.231l-0.075,0.1l-0.422,0.555l-0.053,0.068l-0.113,0.149l-0.155,0.203l-0.107,0.139l-0.205,0.267l-0.193,0.251l-0.192,0.25l-0.259,0.335l-0.067,0.086l-0.136,0.177l-0.147,0.188l-0.072,0.093l-0.217,0.28l-0.214,0.274l-0.223,0.285l-0.182,0.233l-0.078,0.099l-0.162,0.206l-0.135,0.172l-0.041,0.051l-0.052,0.067l-0.411,0.52l-0.303,0.382l-0.057,0.072l-0.047,0.059c-0.792,0.996 -1.571,1.962 -2.334,2.898l-0.03,0.036l-0.035,0.043l-0.301,0.37l-0.446,0.542Zm-130.963,167.125c-29.631,14.996 -62.413,25.103 -95.211,28.947c-8.665,15.64 -15.809,29.53 -20.423,40.623l-0.27,0.659c8.378,3.943 28.284,12.626 45.65,14.931c36.8,4.9 69.5,-2.3 87.6,-19.1c6.599,-6.224 10.668,-13.405 11.995,-21.077c0.353,-2.336 0.456,-4.71 0.305,-7.103c-1.772,-26.779 -18.148,-35.249 -29.646,-37.88Z" style="fill:#414143;"/><g id="Body-.26.-Tail"><path d="M1383.39,1115.58c6.943,-1.273 14.516,-1.867 22.473,-1.269c0.654,0.099 66.275,6.585 66.412,57.538c-0.001,0.345 -0.005,0.693 -0.012,1.042c-0.82,41.7 -29.82,65.2 -30.12,65.5c-1.305,1.041 -2.022,2.612 -2.024,4.212c-0.05,0.808 0.083,1.633 0.414,2.408c0.93,2.2 3.23,3.5 5.63,3.2c0.15,0 16,-2 36.6,5.9c17.53,6.7 31.4,20.8 37.08,37.5c1.831,5.373 2.838,10.963 3.028,16.71c0.429,14.116 -4.045,29.148 -13.298,44.26c-19.283,31.494 -49.995,37.202 -69.001,37.352c6.157,-3.321 13.271,-7.668 20.121,-13.022c23.7,-18.6 32.7,-40.3 26.1,-62.9c-7,-23.6 -32.1,-40.2 -72.7,-47.8c-16.9,-3.2 -33,-4.2 -44,-4.5c8.7,-5 20.7,-12.5 32.2,-22.3c28.8,-24.5 40.2,-50.8 33.1,-76.1c-5,-17.6 -15.1,-30.9 -29.1,-38.3c-7.781,-4.135 -16.688,-6.471 -26.494,-7.016c1.205,-0.797 2.402,-1.602 3.591,-2.415Z" style="fill:#dededd;"/><path d="M1368.67,1124.96c13.25,-1.112 24.93,0.891 34.621,5.947c12.4,6.6 21.1,18 25.6,33.9c15.47,54.6 -73.45,96.3 -74.35,96.7c-1.55,0.7 -2.37,2.4 -1.97,4c0.4,1.65 1.8,2.86 3.63,2.72c1.1,-0.05 109.12,-4.13 124.2,47.15c5.82,19.78 -2.11,38.32 -23.56,55.1c-8.332,6.521 -17.213,11.516 -23.992,14.874c8.579,-19.186 20.946,-58.04 -8.748,-76.894c-4.964,-3.151 -10.053,-5.627 -15.312,-7.408c-14.691,-5.032 -30.455,-4.545 -48.308,1.532c-3.719,1.253 -7.533,2.75 -11.45,4.495c3.102,-6.371 4.352,-12.68 3.39,-18.189c-0.726,-4.136 -3.61,-12.116 -15.035,-15.037c7.294,-7.912 12.294,-16.166 14.625,-23.063c2,-5.8 1.1,-11.8 -2.6,-16.9c-1.886,-2.684 -4.404,-4.987 -7.391,-6.836c15.695,-4.469 28.761,-11.828 37.771,-21.544c8.32,-8.924 12.731,-19.472 12.92,-30.694c0.036,-1.364 0.01,-2.74 -0.08,-4.126c-1.712,-25.765 -14.619,-38.034 -27.165,-43.855c1.073,-0.617 2.141,-1.241 3.204,-1.872Z" style="fill:#fff;"/><path d="M1240.32,1214.66c2.094,0.739 4.308,1.459 6.588,2.192c18.8,6.12 40.1,13.07 39.4,37.57c-0.599,21.369 -14.751,36.813 -34.946,46.722c-3.283,-0.794 -6.674,-1.327 -10.137,-1.586c17.208,-10.743 28.757,-26.167 29.283,-46.566c0.629,-22.394 -14.301,-32.131 -30.188,-38.332Zm-7.122,-2.783c0.929,0.412 1.906,0.822 2.934,1.229c-1.005,-0.356 -2.009,-0.702 -3.008,-1.039l0.074,-0.19Z" style="fill:#dededd;"/><path d="M1231.75,1215.68c17.728,5.98 35.491,14.045 34.859,37.411c-0.565,20.754 -13.427,36.071 -32.148,46.304c-3.292,0.088 -6.626,0.417 -9.975,0.995c-0.542,-18.697 -0.843,-37.148 -1.005,-50.099c0.695,-0.566 1.137,-0.95 1.328,-1.12c1.8,-1.54 2.3,-4.09 1.3,-6.24c-0.3,-0.7 -0.7,-1.3 -1.3,-1.8c-0.083,-2.172 0.653,-8.622 6.941,-25.451Z" style="fill:#fff;"/><path d="M662.75,1144.09c-3.386,17.178 -6.882,37.284 -7.76,50.798c-1.8,28.3 0.7,38.88 9.6,40.46c0.5,0.09 1.1,0.13 1.7,0.13l-0.1,-0.19c2.925,0 6.942,-1.043 11.34,-3.378c0.216,2.89 0.54,5.707 0.971,8.437c-8.837,15.523 -19.076,20.998 -24.211,20.661c-3.4,-0.3 -9.3,-8.3 -7.4,-37c1.528,-23.262 10.984,-66.632 13.928,-79.569c0.636,-0.108 1.28,-0.224 1.932,-0.349Z" style="fill:#dededd;"/><path d="M666.687,1143.25c6.475,-1.52 13.646,-3.895 21.285,-7.516c1.649,2.068 3.403,4.186 5.259,6.348c-3.576,11.536 -8.631,29.979 -13.441,55.025c-2.089,10.8 -2.887,21.35 -2.473,31.151c-5.14,3.018 -9.638,4.007 -12.027,3.579c-4.7,-0.82 -8.7,-5.82 -6.6,-36.72c0.9,-13.751 4.548,-34.49 7.997,-51.867Z" style="fill:#fff;"/><path d="M695.971,1145.23c1.738,1.961 3.555,3.954 5.451,5.975c-0.809,3.969 -1.619,8.139 -2.422,12.51c-6.11,33.2 -2.52,62.6 9.36,76.6c5.15,6.1 11.57,9.1 19.1,9.1l-0.01,0.3l0.5,0c13.821,-0.264 33.179,-13.111 51.203,-31.727c-0.54,3.27 -1.238,7.739 -1.978,13.08c-20.801,27.02 -46.276,47.481 -62.945,47.767c-7.66,0.18 -14.76,-3.28 -20.3,-9.88c-12.2,-14.49 -16.25,-41.84 -10.6,-71.37c4.475,-23.302 9.157,-40.841 12.641,-52.355Z" style="fill:#dededd;"/><path d="M704.382,1154.31c18.164,18.844 42.871,39.917 72.853,60.024c-17.549,18.35 -36.349,31.181 -49.355,31.413c-6.56,0.16 -12.27,-2.55 -16.8,-7.9c-11.21,-13.22 -14.48,-41.46 -8.58,-73.7c0.624,-3.402 1.253,-6.682 1.882,-9.837Z" style="fill:#fff;"/><path d="M915.711,1280.12c-26.98,66.008 -72.482,90.401 -91.721,91.696c-23.58,1.65 -37.92,-16.69 -42.65,-54.32c-3.999,-31.891 1.569,-75.131 4.524,-94.319c-1.309,17.609 -1.728,36.937 0.346,53.369c6.1,48.21 27.3,59.08 45.2,59.08l0.1,0.18c1.1,0 2.1,0 3.1,-0.1c18.875,-1.297 50.623,-18.268 76.433,-57.009c1.551,0.481 3.106,0.956 4.668,1.423Z" style="fill:#dededd;"/><path d="M789.344,1222.22c33.873,21.392 73.712,41.166 117.916,55.29c-24.921,37.016 -55.126,53.26 -73.15,54.471c-24.65,1.72 -39.66,-17.13 -44.53,-55.88c-2.082,-16.564 -1.599,-36.153 -0.236,-53.881Z" style="fill:#fff;"/><path d="M925.296,1282.88l1.339,0.368c-0.757,17.805 -0.026,38.268 4.105,58.749c5.96,29.63 23.74,50.46 46.36,54.33c2.416,0.424 4.812,0.624 7.199,0.629l-0.109,0.001l0.21,0l-0.101,-0.001c13.974,-0.035 27.16,-7.015 37.817,-19.958c0.41,2.478 0.849,4.92 1.319,7.314c-1.186,2.759 -2.527,5.411 -4.035,7.935c-12.99,21.74 -33.49,33.14 -53.57,29.68c-20.15,-3.46 -35.19,-20.46 -40.23,-45.46c-7.343,-36.394 -3.7,-72.778 -0.304,-93.587Z" style="fill:#dededd;"/><path d="M930.157,1284.2c11.243,2.979 22.736,5.573 34.453,7.722c3.253,0.595 6.475,1.154 9.666,1.677c-2.999,7.633 -4.643,15.302 -3.916,22.413c0.85,8.29 4.7,15.1 11.5,20.22c4.55,3.45 10.06,5.2 16.2,5.2l0.05,0.48c2.4,0 4.9,-0.3 7.4,-0.8c4.026,-0.854 8.159,-2.337 12.288,-4.307c0.732,11.727 1.865,23.965 3.594,35.583c-11.951,15.809 -27.538,23.189 -43.692,20.434c-20.81,-3.57 -37.87,-23.79 -43.47,-51.52c-4.006,-19.875 -4.764,-39.739 -4.073,-57.102Z" style="fill:#fff;"/><path d="M1026.63,1331.87c2.073,16.214 5.117,31.34 9.562,42.519c7.583,19.157 22.831,30.847 40.182,30.899l-0.082,0.001l0.2,0l-0.118,-0.001c0.27,-0.002 0.53,-0.015 0.786,-0.031l0.564,-0.036c0.282,-0.018 0.568,-0.032 0.868,-0.032c19.8,-1.2 36.3,-17.5 43.1,-42.6c2.751,-10.198 5.211,-20.603 7.359,-31.011c0.445,1.469 0.9,2.902 1.365,4.301c-1.812,18.209 -5.152,36.351 -10.014,54.34c-6.5,24.04 -24.2,40.34 -45.1,41.54c-17,0.97 -31.73,-8.68 -38.3,-25.18c-7.394,-18.586 -10.752,-47.564 -12.219,-73.561c0.617,-0.374 1.233,-0.757 1.847,-1.148Z" style="fill:#dededd;"/><path d="M1120.45,1293.43c2.052,11.693 4.213,22.102 6.654,31.291c-2.423,12.443 -5.304,24.949 -8.605,37.165c-6.38,23.61 -21.64,38.92 -39.84,39.96c-16.72,0.96 -31.64,-9.97 -39.02,-28.52c-4.493,-11.29 -7.524,-26.97 -9.557,-43.768c11.686,-8.163 22.387,-19.236 29.35,-29.656c22.727,-0.538 43.054,-2.958 61.018,-6.472Z" style="fill:#fff;"/><path d="M1130.12,1291.39c15.188,39.254 35.662,60.801 52.785,60.801l0.3,-0.3c0.7,0 1.4,0 2.1,-0.1c22.523,-2.413 29.859,-29.692 31.627,-60.954c0.111,4.527 0.235,9.124 0.373,13.714c0.8,24.02 -9,49.88 -23.2,61.5c-7.1,5.85 -14.8,7.85 -22.9,5.98c-22.893,-5.33 -34.065,-24.723 -43.914,-80.011c0.95,-0.207 1.893,-0.417 2.829,-0.63Z" style="fill:#dededd;"/><path d="M1213.32,1257.63c1.118,38.044 -0.819,87.993 -28.64,91.057c-17.591,1.912 -36.825,-21.563 -51.012,-58.129c39.388,-9.439 65.783,-23.816 79.652,-32.928Z" style="fill:#fff;"/><path d="M714.768,996.081c9.4,7.846 18.583,15.003 25.622,19.429c13.188,8.302 31.403,20.381 44.234,28.954c-1.451,70.68 -12.214,85.946 -12.214,85.946c-1,1.2 -1.5,2.8 -1.3,4.3c0.2,1.5 1.1,2.9 2.4,3.7l88.17,55.9c0.563,0.38 1.166,0.599 1.781,0.709l105.029,48.171c0.8,0.3 1.5,0.5 2.3,0.5l-0.5,-0.4c0.9,0 1.9,-0.3 2.8,-0.8c1.5,-0.9 2.5,-2.6 2.6,-4.3c0,-0.243 2.621,-24.201 52.722,-49.922c12.949,7.004 37.601,20.431 53.928,29.842c23.43,13.5 82.99,33.8 85.53,34.6c0.55,0.2 1.12,0.3 1.7,0.3l0,0.3c0.83,0 1.66,-0.2 2.4,-0.6c1.3,-0.6 2.26,-1.7 2.7,-3.1c0.119,-0.396 12.489,-38.007 56.184,-84.92c4.263,-0.055 8.541,-0.224 12.825,-0.503c-7.267,13.355 -13.231,25.24 -17.399,35.293c-11.64,28.12 -13.2,39.27 -12.4,44.32c-7.48,5.53 -27.06,18.47 -58.6,29.05c-21.622,7.258 -51.55,14.215 -89.432,15.906c10.482,-20.125 13.471,-34.009 13.562,-34.646c0.6,-2.9 -1.25,-5.7 -4.13,-6.3c-2.9,-0.6 -5.73,1.2 -6.33,4.1c-0.04,0.1 -3.47,15.8 -15.8,37.7c-0.088,0.155 -0.177,0.311 -0.268,0.467c-2.452,4.231 -5.792,8.754 -9.706,13.196c-0.324,0.367 -0.651,0.733 -0.981,1.099l-0.366,0.401l-0.323,0.352c-0.138,0.15 -0.276,0.299 -0.416,0.449l-0.373,0.399l-0.196,0.207c-0.289,0.305 -0.58,0.61 -0.873,0.913c-1.252,1.294 -2.546,2.572 -3.874,3.822c-1.268,1.195 -2.568,2.366 -3.891,3.504c-0.66,0.567 -1.325,1.126 -1.996,1.675c-0.236,0.194 -0.473,0.386 -0.711,0.578c-0.365,0.294 -0.732,0.586 -1.1,0.875c-0.407,0.319 -0.815,0.634 -1.225,0.945l-0.161,0.123l-0.082,0.062c-0.586,0.443 -1.175,0.878 -1.767,1.304c-0.445,0.321 -0.891,0.637 -1.338,0.948c-0.604,0.42 -1.21,0.831 -1.817,1.231l-0.329,0.217l-0.42,0.272c-0.228,0.147 -0.456,0.292 -0.684,0.436l-0.242,0.152l-0.168,0.105c-1.556,0.969 -3.115,1.866 -4.668,2.681l-0.103,0.054l-0.29,0.151c-1.143,0.589 -2.281,1.133 -3.411,1.627l-0.31,0.134l-0.3,0.128c-0.469,0.197 -0.937,0.386 -1.402,0.566c-0.288,0.112 -0.575,0.219 -0.862,0.323c-0.7,0.255 -1.396,0.488 -2.087,0.698l-0.156,0.048l-0.138,0.041c-0.866,0.257 -1.723,0.478 -2.57,0.66l-0.266,0.057c-0.755,0.148 -1.493,0.266 -2.214,0.353c-0.739,0.089 -1.461,0.146 -2.164,0.17l-0.26,0.008l-0.114,0.002l-0.145,0.003l-0.256,0.001l-0.255,-0.001l-0.021,0l-0.233,-0.004l-0.252,-0.008c-0.606,-0.021 -1.199,-0.068 -1.776,-0.142c-0.219,-0.028 -0.436,-0.059 -0.651,-0.095c-1.449,-0.238 -2.803,-0.649 -4.059,-1.235c-0.302,-0.141 -0.599,-0.292 -0.89,-0.453c-0.195,-0.108 -0.388,-0.221 -0.579,-0.339l-0.189,-0.119c-0.168,-0.107 -0.333,-0.217 -0.496,-0.332c-0.144,-0.1 -0.286,-0.203 -0.426,-0.309l-0.027,-0.021l-0.177,-0.134l-0.135,-0.106c-0.289,-0.226 -0.569,-0.457 -0.84,-0.691l-0.186,-0.163c-0.333,-0.296 -0.651,-0.597 -0.955,-0.906l-0.102,-0.103l-0.055,-0.058c-0.37,-0.384 -0.719,-0.778 -1.046,-1.182l-0.043,-0.054c-0.084,-0.104 -0.166,-0.21 -0.248,-0.315c-0.151,-0.199 -0.298,-0.399 -0.44,-0.603c-0.287,-0.411 -0.555,-0.833 -0.802,-1.265c-0.11,-0.193 -0.216,-0.387 -0.318,-0.583l-0.036,-0.07l-0.05,-0.098c-0.69,-1.365 -1.192,-2.829 -1.512,-4.398c-0.116,-0.571 -0.208,-1.156 -0.276,-1.755c-0.012,-0.098 -0.022,-0.196 -0.032,-0.295c0,0 -0.021,-0.219 -0.021,-0.219l-0.007,-0.073l-0.013,-0.147l-0.007,-0.088l-0.01,-0.133l-0.007,-0.094l-0.008,-0.127l-0.006,-0.098l-0.008,-0.124l-0.005,-0.1l-0.006,-0.123l-0.004,-0.101l-0.005,-0.122l-0.004,-0.103l-0.003,-0.122l-0.003,-0.102l-0.003,-0.123l-0.001,-0.103l-0.002,-0.123l-0.001,-0.102l0,-0.124l0,-0.103l0,-0.125l0.001,-0.102l0.002,-0.128l0.002,-0.099l0.003,-0.132l0.002,-0.096l0.004,-0.14l0.003,-0.088l0.007,-0.163l0.002,-0.066l0.011,-0.23l0.003,-0.048l0.01,-0.182l0.005,-0.085l0.01,-0.146l0.006,-0.095l0.01,-0.136l0.008,-0.101l0.011,-0.131l0.008,-0.104l0.012,-0.128l0.01,-0.106l0.012,-0.127l0.01,-0.107l0.014,-0.127l0.011,-0.108l0.014,-0.126l0.013,-0.108l0.014,-0.127l0.014,-0.108l0.016,-0.127l0.014,-0.109l0.017,-0.127l0.014,-0.109l0.018,-0.128l0.016,-0.108l0.019,-0.131l0.016,-0.105l0.02,-0.135l0.016,-0.102l0.023,-0.143l0.016,-0.095l0.004,-0.023l0.075,-0.44l0.002,-0.009l0.081,-0.437l0.007,-0.036l0.083,-0.421l0.01,-0.051l0.087,-0.414l0.013,-0.059l0.091,-0.411l0.014,-0.061l0.096,-0.413l0.014,-0.059l0.066,-0.268l0.066,-0.261l0.058,-0.228l0.068,-0.258l0.061,-0.23l0.071,-0.258l0.065,-0.232l0.073,-0.257l0.068,-0.233l0.076,-0.257l0.07,-0.234l0.079,-0.258l0.073,-0.234l0.082,-0.258l0.076,-0.235l0.085,-0.259l0.078,-0.235l0.088,-0.26l0.08,-0.234l0.093,-0.264l0.081,-0.231l0.1,-0.277l0.078,-0.218l0.046,-0.124l0.134,-0.36l0.094,-0.25l0.094,-0.246l0.1,-0.259l0.093,-0.236l0.104,-0.264l0.093,-0.232l0.109,-0.267l0.093,-0.23l0.112,-0.27l0.095,-0.226l0.115,-0.273l0.095,-0.222l0.12,-0.277l0.095,-0.219l0.123,-0.28l0.095,-0.214l0.128,-0.285l0.095,-0.209l0.132,-0.29l0.093,-0.201l0.138,-0.298l0.09,-0.191l0.145,-0.308l0.084,-0.177l0.155,-0.321l0.074,-0.154l0.168,-0.345l0.056,-0.113l0.19,-0.385l0.011,-0.02c0.396,-0.795 0.805,-1.588 1.227,-2.378l0.007,-0.013l0.235,-0.439l0.027,-0.049l0.228,-0.422l0.036,-0.064l0.228,-0.414l0.038,-0.07l0.23,-0.413l0.038,-0.068l0.234,-0.417l0.035,-0.06l0.242,-0.425l0.027,-0.048l0.252,-0.438l0.016,-0.028l0.266,-0.458c6.607,-11.301 15.105,-21.636 20.14,-27.395c12.85,-14.7 19,-19.5 19.1,-19.6c2.34,-1.8 2.81,-5.1 1.04,-7.5c-1.8,-2.4 -5.14,-2.8 -7.5,-1.1c-0.27,0.2 -6.87,5.3 -20.7,21c-7.053,8.055 -16.619,20.049 -23.501,32.936c-4.143,-0.651 -8.343,-1.365 -12.599,-2.146c-131.959,-24.201 -230.758,-104.084 -269.038,-150.618c12.716,-7.46 26.388,-18.488 40.088,-34.672c1.9,-2.3 1.6,-5.7 -0.7,-7.6c-2.3,-1.9 -5.7,-1.6 -7.6,0.6c-13.297,15.715 -26.434,26.157 -38.484,33.038c-0.968,0.553 -1.929,1.083 -2.883,1.591l-0.012,0.006c-0.568,0.302 -1.133,0.596 -1.695,0.883l-0.022,0.011c-0.559,0.285 -1.115,0.562 -1.668,0.832l-0.031,0.015c-0.55,0.268 -1.097,0.529 -1.642,0.783l-0.037,0.017c-0.542,0.253 -1.082,0.498 -1.618,0.737l-0.042,0.019c-0.535,0.237 -1.067,0.468 -1.596,0.692l-0.044,0.019l-0.522,0.219l-0.535,0.221l-0.018,0.008l-0.499,0.203l-0.046,0.018l-0.517,0.206l-0.521,0.205l-0.034,0.013l-0.482,0.186l-0.045,0.018l-0.511,0.194l-0.509,0.189l-0.047,0.017l-0.468,0.172l-0.043,0.015l-0.506,0.182l-0.497,0.176l-0.056,0.019l-0.459,0.159l-0.038,0.013l-0.502,0.171l-0.484,0.162l-0.064,0.021l-0.452,0.148l-0.032,0.01l-0.497,0.16l-0.473,0.148l-0.069,0.022l-0.449,0.138l-0.022,0.007l-0.492,0.149l-0.008,0.002l-0.455,0.135l-0.072,0.021l-0.45,0.13l-0.011,0.003l-0.481,0.137l-0.03,0.008l-0.427,0.119l-0.076,0.02l-0.451,0.123l-0.469,0.124l-0.047,0.013l-0.406,0.105l-0.076,0.019l-0.444,0.113l-0.429,0.106l-0.59,0.143l-0.176,0.041l-0.47,0.109l-0.164,0.038l-0.582,0.131l-0.165,0.036l-0.464,0.1l-0.165,0.035l-0.572,0.118l-0.154,0.031l-0.459,0.091l-0.163,0.032l-0.563,0.108l-0.142,0.026l-0.456,0.083l-0.161,0.029l-0.554,0.096l-0.128,0.021l-0.454,0.076l-0.159,0.025l-0.544,0.086l-0.113,0.017l-0.454,0.068l-0.155,0.023l-0.534,0.075l-0.097,0.013l-0.455,0.061l-0.152,0.02l-0.524,0.066l-0.078,0.009l-0.458,0.055l-0.148,0.016l-0.514,0.057l-0.057,0.006l-0.464,0.048l-0.144,0.014l-0.503,0.048l-0.033,0.003l-0.473,0.041l-0.139,0.012l-0.469,0.037l-0.028,0.003l-0.486,0.035l-0.133,0.009l-0.441,0.029l-0.045,0.003l-0.471,0.027l-0.128,0.007l-0.416,0.021l-0.058,0.003l-0.457,0.02l-0.121,0.004l-0.395,0.015l-0.067,0.002l-0.442,0.013l-0.116,0.003l-0.376,0.008l-0.073,0.002l-0.427,0.006l-0.109,0.001l-0.359,0.003l-0.078,0.001l-0.109,0l-0.476,-0.001l-0.169,-0.001l-0.432,-0.004l-0.131,-0.002l-0.538,-0.01l-0.112,-0.003l-0.422,-0.012l-0.158,-0.005l-0.407,-0.015l-0.11,-0.004l-0.494,-0.023l-0.116,-0.006l-0.375,-0.021l-0.145,-0.009l-0.383,-0.024l-0.086,-0.006l-0.449,-0.032l-0.115,-0.009l-0.332,-0.027l-0.13,-0.011l-0.361,-0.033l-0.06,-0.005l-0.404,-0.04l-0.108,-0.011l-0.293,-0.031l-0.114,-0.013l-0.34,-0.039l-0.032,-0.004l-0.356,-0.044l-0.099,-0.012l-0.255,-0.034l-0.097,-0.013l-0.322,-0.045l-0.247,-0.034c-0.286,-0.041 -0.567,-0.088 -0.841,-0.141l-0.119,-0.022l-0.179,-0.036l-0.055,-0.011l-0.055,-0.012c-0.153,-0.033 -0.304,-0.067 -0.453,-0.103c-0.142,-0.035 -0.282,-0.071 -0.421,-0.108c-0.607,-0.164 -1.183,-0.359 -1.727,-0.584c-0.385,-0.159 -0.754,-0.333 -1.108,-0.522c-0.242,-0.13 -0.477,-0.267 -0.705,-0.411c-0.33,-0.209 -0.644,-0.432 -0.943,-0.671l-0.154,-0.125c-0.175,-0.145 -0.344,-0.295 -0.508,-0.451c-0.139,-0.132 -0.273,-0.267 -0.404,-0.406c-0.318,-0.338 -0.613,-0.698 -0.887,-1.081c-0.081,-0.114 -0.161,-0.23 -0.238,-0.348c-0.326,-0.496 -0.617,-1.027 -0.874,-1.594c-0.094,-0.209 -0.184,-0.422 -0.268,-0.64c-0.04,-0.099 -0.077,-0.199 -0.114,-0.3c-0.064,-0.174 -0.124,-0.349 -0.181,-0.527c-0.199,-0.615 -0.36,-1.255 -0.484,-1.915l-0.041,-0.228l-0.026,-0.15c-0.064,-0.393 -0.117,-0.794 -0.156,-1.202c-0.031,-0.312 -0.054,-0.628 -0.07,-0.949c-0.067,-1.36 -0.003,-2.788 0.186,-4.266c0.095,-0.743 0.221,-1.499 0.379,-2.266c0.063,-0.31 0.132,-0.622 0.206,-0.935c0.15,-0.639 0.32,-1.284 0.511,-1.934l0.059,-0.199l0.059,-0.193c0.057,-0.186 0.115,-0.373 0.175,-0.56c0.14,-0.435 0.289,-0.873 0.446,-1.312c0.088,-0.245 0.178,-0.489 0.271,-0.735c0.083,-0.219 0.168,-0.438 0.255,-0.658c0.131,-0.329 0.266,-0.658 0.405,-0.987l0.097,-0.228l0.018,-0.041c0.163,-0.377 0.331,-0.754 0.505,-1.132l0.005,-0.011l0.138,-0.297c0.131,-0.277 0.264,-0.554 0.401,-0.832c0.378,-0.77 0.781,-1.54 1.208,-2.31c0.102,-0.185 0.206,-0.37 0.311,-0.555l0.095,-0.166l0.166,-0.288l0.006,-0.009l0.173,-0.297l0.001,0l0.109,-0.184c0.165,-0.278 0.333,-0.555 0.504,-0.833l0.105,-0.169l0.088,-0.14c0.238,-0.381 0.483,-0.761 0.732,-1.14c1.05,-1.594 2.198,-3.172 3.439,-4.717c0.275,-0.343 0.555,-0.685 0.84,-1.025c0.223,-0.266 0.449,-0.532 0.678,-0.796l0.244,-0.28c0.094,-0.108 0.189,-0.215 0.284,-0.323c0.152,-0.171 0.305,-0.341 0.459,-0.511l0.4,-0.436l0.13,-0.139l0.279,-0.299l0.152,-0.161l0.268,-0.282l0.153,-0.16l0.29,-0.3l0.132,-0.136l0.425,-0.434l0.016,-0.016l0.415,-0.416l0.141,-0.141l0.298,-0.294l0.163,-0.16l0.288,-0.28l0.163,-0.159l0.311,-0.299l0.139,-0.133l0.453,-0.429l0.032,-0.031l0.426,-0.398l0.152,-0.14l0.314,-0.291l0.173,-0.158l0.304,-0.277l0.172,-0.157l0.33,-0.297l0.145,-0.13l0.476,-0.424l0.048,-0.042l0.434,-0.381l0.161,-0.141l0.328,-0.285l0.181,-0.156l0.318,-0.274l0.18,-0.154l0.347,-0.294l0.148,-0.127l0.497,-0.417l0.063,-0.053l0.438,-0.364l0.169,-0.14l0.339,-0.279l0.189,-0.155l0.329,-0.269l0.186,-0.151l0.361,-0.291l0.152,-0.122l0.512,-0.41l0.078,-0.062l0.439,-0.348l0.177,-0.139l0.346,-0.272l0.196,-0.153l0.338,-0.263l0.191,-0.148l0.372,-0.287l0.154,-0.118l0.524,-0.401l0.092,-0.069l0.437,-0.332l0.183,-0.138l0.352,-0.264l0.2,-0.15l0.344,-0.257l0.195,-0.145l0.381,-0.281l0.155,-0.115l0.533,-0.391l0.104,-0.076l0.433,-0.315l0.189,-0.137l0.352,-0.254l0.206,-0.148l0.346,-0.249l0.199,-0.142l0.385,-0.274l0.156,-0.111l0.536,-0.379l0.119,-0.083l0.423,-0.297l0.194,-0.136l0.351,-0.245l0.209,-0.145l0.345,-0.239l0.203,-0.14l0.384,-0.264l0.158,-0.109l0.53,-0.362l0.87,-0.589l0.165,-0.112l0.849,-0.569l0.141,-0.094l0.84,-0.558l0.052,-0.034l0.866,-0.569l0.161,-0.105l0.845,-0.55l0.133,-0.087l0.835,-0.538l0.051,-0.032l0.857,-0.548l0.155,-0.099l0.835,-0.529l0.125,-0.078l0.826,-0.519l0.047,-0.029l0.844,-0.525l0.145,-0.091l0.434,-0.268l0.662,-0.407l0.401,-0.245l0.637,-0.389l0.388,-0.235l0.685,-0.414l0.317,-0.191l0.97,-0.581l0.242,-0.144l0.73,-0.432l0.37,-0.219l0.59,-0.347l0.39,-0.228l0.564,-0.329l0.377,-0.219l0.597,-0.346l0.318,-0.184l0.866,-0.497l0.284,-0.162l0.589,-0.335l0.366,-0.208l0.487,-0.275l0.377,-0.212l0.46,-0.258l0.367,-0.206l0.464,-0.259l0.333,-0.185l0.725,-0.401l0.338,-0.186l0.404,-0.222l0.367,-0.201l0.347,-0.19l0.368,-0.2l0.315,-0.171l0.365,-0.198l0.129,-0.069l1.076,-0.579l1.003,-0.534l0.074,-0.039l0.554,-0.293c2.105,-1.11 3.346,-1.731 3.399,-1.767c2.6,-1.3 3.7,-4.5 2.4,-7.2c-0.443,-0.92 -1.106,-1.654 -1.896,-2.171c5.007,-15.083 10.908,-31.432 17.454,-46.958Z" style="fill:#9cd8d9;"/><path d="M1324.94,1285.12c2.036,-1.539 3.975,-3.133 5.812,-4.765c6.738,0.536 13.401,2.938 14.647,10.132c1.689,9.714 -7.328,25.422 -23.788,36.454c8.975,-8.539 14.387,-19.626 12.878,-28.934c-0.61,-3.845 -2.785,-9.255 -9.549,-12.887Z" style="fill:#dededd;"/><path d="M1306.96,1229.65c5.643,-0.381 11.064,-0.627 15.546,-0.56c9,0.1 17,3.6 20.8,9.1c1.61,2.2 3.21,5.9 1.66,10.5c-2.39,7.063 -10.335,20.508 -25.382,31.591c-0.586,-1.867 -1.35,-3.681 -2.293,-5.437c5.671,-6.749 9.617,-13.584 11.595,-19.434c1.6,-4.7 1,-9.4 -1.5,-13.5c-3.548,-5.744 -11.019,-10.132 -20.426,-12.26Z" style="fill:#dededd;"/><path d="M817.53,1651.1l0.04,0l-0.04,0Z" style="fill:#414143;"/><path d="M1320.98,1287.96c0.346,-0.234 0.689,-0.47 1.03,-0.708c5.295,2.305 8.5,6.015 9.325,10.953c2.15,12.96 -12.12,30.71 -29.38,36.53c-3.45,1.163 -6.415,2.012 -8.961,2.616c11.627,-8.442 22.411,-20.566 26.751,-37.666c1.035,-4.073 1.446,-7.987 1.235,-11.725Z" style="fill:#fff;"/><path d="M1291.55,1268.12c0.52,-1.757 0.95,-3.559 1.288,-5.406c6.347,3.057 12.407,7.22 16.378,12.781c4.64,6.5 5.82,13.9 3.6,22.7c-3.856,15.229 -13.788,26.164 -24.517,33.849c-1.264,-3.375 -3.008,-6.677 -5.23,-9.844c6.848,-5.463 11.638,-13.308 14.137,-23.305c2.9,-11.2 1.3,-21.2 -4.7,-29.5c-0.31,-0.433 -0.629,-0.858 -0.956,-1.275Z" style="fill:#dededd;"/><path d="M1287.36,1231.62c4.948,-0.19 9.692,-0.136 13.819,0.384c10.89,1.36 19.58,5.66 23.24,11.5c2,3.22 2.39,6.72 1.14,10.4c-1.433,4.209 -4.788,10.646 -10.372,17.528c-0.055,-0.079 -0.111,-0.159 -0.168,-0.238c-5.204,-7.304 -13.23,-12.51 -21.339,-16.119c0.012,-0.292 0.022,-0.586 0.029,-0.881c0.223,-9.474 -2.254,-16.795 -6.349,-22.574Z" style="fill:#fff;"/><path d="M1260.42,1304.12c13.731,-7.823 24.402,-18.366 29.677,-31.763c4.861,7.299 6.071,15.937 3.604,25.718c-2.338,9.178 -6.614,16.315 -12.766,21.283c-5.423,-6.709 -12.478,-11.851 -20.515,-15.238Z" style="fill:#fff;"/><path d="M982.813,1547.65c3.64,-2.65 7.066,-5.538 10.256,-8.547c3.006,1.583 6.167,3.106 9.439,4.491c-6.643,1.652 -13.209,3.004 -19.695,4.056Zm-173.954,-17.489c4.097,-0.758 8.244,-1.952 12.393,-3.54c2.255,3.293 5.163,6.86 8.884,10.39c-4.582,-1.305 -9.158,-2.712 -13.716,-4.229c-2.549,-0.848 -5.069,-1.722 -7.561,-2.621Zm-73.03,-39.816c1.825,0.312 3.585,0.457 5.281,0.457l0.3,0.31c1.104,0 2.182,-0.061 3.236,-0.177c1.277,3.126 2.728,6.18 4.373,9.126c-4.554,-3.106 -8.95,-6.345 -13.19,-9.716Zm401.731,-13.824c0.82,-2.001 1.61,-4.068 2.368,-6.2c1.617,0.377 3.299,0.654 5.049,0.826c-2.479,1.822 -4.952,3.614 -7.417,5.374Zm-466.771,-74.294c1.547,1.305 3.152,2.491 4.817,3.544c0.38,3.526 0.912,7.284 1.644,11.191c-2.307,-4.79 -4.461,-9.702 -6.461,-14.735Zm-27.015,-142.008c0.781,1.54 1.628,2.788 2.509,3.796c-0.734,2.228 -1.477,4.685 -2.196,7.357c-0.155,-3.764 -0.258,-7.482 -0.313,-11.153Z" style="fill:#dededd;"/><path d="M1233.65,1306.15c20.536,-1 35.683,8.947 43.089,19.086c8.26,11.34 9.04,24.9 2.1,36.28c-8.978,14.695 -23.419,21.765 -36.485,25.234c7.711,-4.518 14.908,-10.857 20.355,-19.774c8.1,-13.29 7.2,-29.07 -2.4,-42.22c-6.546,-8.92 -15.898,-15.271 -26.659,-18.606Z" style="fill:#dededd;"/><path d="M827.92,1523.73c3.3,-1.594 6.585,-3.426 9.829,-5.474c7.638,5.412 17.638,10.226 30.661,13.074c5.5,1.18 10.9,1.7 16.2,1.7l0.3,0.08c0.966,0 1.929,-0.017 2.89,-0.05c4.928,6.178 10.646,11.548 17.107,16.037c-10.873,2.415 -22.491,3.165 -33.927,0.693c-23.513,-5.141 -36.315,-16.734 -43.06,-26.06Z" style="fill:#dededd;"/><path d="M840.956,1516.15c9.977,-6.79 19.487,-15.595 27.791,-25.786c3.026,15.02 8.538,28.159 16.311,39.059c-5.275,0.05 -10.603,-0.429 -15.898,-1.585c-11.849,-2.588 -21.067,-6.859 -28.204,-11.688Z" style="fill:#fff;"/><path d="M998.407,1533.74c2.755,-2.945 5.286,-5.936 7.577,-8.872c8.191,3.183 16.963,5.366 25.616,5.366l0,0.28c1.47,0 2.93,0 4.4,-0.2c10.52,-0.964 19.766,-6.158 27.499,-12.829c2.441,1.03 4.986,1.838 7.632,2.422c-8.654,10.861 -20.85,21.821 -35.431,23.107c-12.495,1.118 -25.878,-3.481 -37.293,-9.274Z" style="fill:#dededd;"/><path d="M1213.66,1409.81c-5.043,12.734 -13.818,24.807 -28.945,25.036c0.584,-2.209 1.115,-4.48 1.597,-6.803c11.207,-0.699 20.495,-6.896 27.348,-18.233Z" style="fill:#dededd;"/><path d="M683.305,1409.51c2.685,0.936 5.499,1.552 8.444,1.81c4.3,13.473 11.77,27.525 24.551,39.068c7.757,7.006 14.897,11.733 21.469,14.708c0.936,6.179 2.3,12.426 4.23,18.507c-8.053,0.313 -17.775,-3.48 -30.179,-14.665c-18.622,-16.8 -25.841,-40.708 -28.515,-59.428Z" style="fill:#dededd;"/><path d="M649.841,1278.13c0.341,4.947 0.93,10.072 1.819,15.353c5.659,33.675 21.536,69.387 49.322,71.565c1.642,13.068 5.23,23.665 10.021,32.092c-4.305,4.436 -9.344,7.081 -15.553,7.193c-17.43,0.43 -38.88,-17.2 -47.3,-67.2c-3.985,-23.707 -1.733,-44.148 1.691,-59.003Z" style="fill:#dededd;"/><path d="M695.57,1411.61c7.896,-0.138 14.226,-3.355 19.425,-8.302c6.309,8.593 14.012,14.302 21.907,17.62c-0.964,10.232 -1.562,24.751 0.299,40.003c-5.689,-2.842 -11.845,-7.09 -18.521,-13.121c-11.838,-10.682 -18.934,-23.644 -23.131,-36.2l0.021,0Z" style="fill:#fff;"/><path d="M747.967,1424.06c1.147,0.175 2.286,0.304 3.413,0.387c0.62,0.04 1.24,0.07 1.88,0.07l-0.01,0.19c18.003,0 39.094,-18.535 55.214,-40.302c-0.01,31.547 8.745,59.403 25.316,79.002c4.933,5.852 10.402,10.712 16.239,14.494c-11.61,9.049 -24.115,15.253 -36.139,17.456c-15.72,2.89 -29.63,-0.93 -41.38,-11.33c-16.793,-14.88 -22.864,-38.667 -24.533,-59.967Z" style="fill:#fff;"/><path d="M743.984,1423.27l0.172,0.042c1.588,22.185 7.886,47.351 25.984,63.386c9.8,8.69 21.41,13.13 34.03,13.13c3.445,-0.005 6.868,-0.315 10.36,-0.96c12.915,-2.368 26.345,-9.146 38.712,-19.008c3.607,2.049 7.338,3.698 11.155,4.929c-16.067,20.258 -37.056,34.843 -56.787,38.449c-15.15,2.8 -28.58,-0.88 -39.88,-10.9c-25.318,-22.44 -25.694,-65.868 -23.796,-89.08l0.05,0.012Z" style="fill:#dededd;"/><path d="M875.49,1487.15c1.279,0.135 2.563,0.225 3.851,0.268c6.245,11.543 15.762,22.768 30.169,31.59c12.3,7.56 24.8,11.36 37.3,11.36l0.3,0.24c5.6,0 11.3,-0.7 16.9,-2.3c9.566,-2.635 18.441,-7.421 26.194,-13.282c2.023,1.453 4.127,2.753 6.306,3.892c1.217,0.631 2.446,1.208 3.685,1.731c-10.226,13.058 -25.454,27.142 -43.775,32.159c-14.7,4.02 -29.47,1.59 -43.9,-7.26c-23.559,-14.444 -33.248,-38.16 -37.03,-58.398Z" style="fill:#dededd;"/><path d="M1016,1524.38c0.868,0.05 1.737,0.075 2.606,0.075l0.2,0.16c6.3,0 12.6,-1.3 18.6,-3.9c5.066,-2.166 9.729,-5.916 14.023,-10.871c0.824,0.728 1.679,1.433 2.567,2.111c1.828,1.398 3.734,2.636 5.717,3.712c-6.951,5.703 -15.046,10.013 -24.047,10.818c-6.459,0.582 -13.138,-0.316 -19.666,-2.105Z" style="fill:#fff;"/><path d="M1092.59,1496.1c15.863,-0.192 28.008,-12.965 37.148,-29.879c1.131,0.675 2.305,1.292 3.524,1.844c-7.639,21.759 -20.278,41.229 -41.182,44.945c-13.43,2.4 -24.78,0.2 -33.73,-6.7c-0.88,-0.671 -1.725,-1.376 -2.534,-2.111c3.155,-4.493 6.094,-9.641 8.834,-15.264c7.236,4.323 16.177,7.165 27.18,7.165l-0.04,0l0.8,0Z" style="fill:#dededd;"/><path d="M1179.27,1403.99c0.963,0.75 1.962,1.464 2.999,2.137c-2.211,22.041 -6.904,42.518 -17.7,52.197c-5,4.5 -11.03,6.38 -18.4,5.78c-20.333,-1.704 -29.943,-21.674 -34.394,-42.69l0.191,-0.209c7.247,13.785 17.503,22.012 30.373,24.169c1.47,0.25 2.9,0.35 4.3,0.35l0.37,0.01c5.2,0 10.1,-1.75 14.3,-5.23c8.569,-6.981 14.206,-20.601 17.961,-36.514Z" style="fill:#dededd;"/><path d="M1189.12,1409.71c4.364,1.775 9.265,2.88 14.768,3.083c0.6,0.03 1.1,0.03 1.7,0.03l-0.3,-0.13c0.606,0 1.205,-0.012 1.796,-0.037c-4.913,6.179 -11.422,10.729 -20.032,11.562c0.851,-4.684 1.526,-9.547 2.068,-14.508Z" style="fill:#fff;"/><path d="M1226.97,1308.14c12.359,2.464 23.18,8.933 30.314,18.719c8.71,11.94 9.53,26.24 2.18,38.26c-5.924,9.698 -14.122,16.172 -22.761,20.511c4.129,-18.237 0.295,-40.919 -1.609,-52.341c-1.312,-7.831 -4.573,-16.897 -8.124,-25.149Z" style="fill:#fff;"/><path d="M1223.52,1322.52c0.165,-1.078 0.312,-2.16 0.442,-3.245c1.974,5.319 3.587,10.63 4.387,15.353c2.25,13.37 8.25,48.85 -4.92,63.87c-4.5,5.13 -10.79,7.5 -19.25,7.17c-18.507,-0.675 -29.135,-13.796 -35.149,-26.863c0.225,0.056 0.451,0.11 0.679,0.163c1.49,0.36 3.019,0.605 4.538,0.738c6.323,6.149 15.357,10.585 28.262,10.622l0.07,0l0.33,-0.14c6.6,0 11.9,-2.2 15.7,-6.4c10.4,-11.6 7.6,-36.5 5.8,-52.9c-0.393,-3.141 -0.689,-5.994 -0.889,-8.368Z" style="fill:#dededd;"/><path d="M568.24,1139.76l0.04,0l-0.04,0Z" style="fill:#414143;"/><path d="M581.82,1111.17l0.04,0l-0.04,0Z" style="fill:#414143;"/><path d="M653.033,1267.88c0.261,0.038 0.517,0.065 0.767,0.083c0.3,0.04 0.6,0.04 1,0.04l0.01,-0.03c7.302,0 17.113,-5.588 25.805,-17.81c2.356,8.457 5.91,15.717 10.575,21.25c5.518,6.603 12.427,10.343 20.134,10.996c-5.723,18.809 -12.428,47.043 -11.164,73.104c0.098,2.011 0.239,3.972 0.42,5.882c-17.341,-2.032 -37.398,-20.788 -45.4,-68.492c-1.485,-8.827 -2.116,-17.207 -2.147,-25.023Z" style="fill:#fff;"/><path d="M883.345,1487.44c31,-1.864 56.017,-40.682 67.838,-62.852c2.175,1.076 4.426,1.992 6.744,2.737c0.152,11.774 1.288,25.652 4.383,40.675c3.933,18.878 12.697,34.567 24.743,44.59c-6.94,5.147 -15.067,9.528 -24.253,12.02c-17.15,4.71 -34.49,1.8 -51.52,-8.65c-13.061,-8.004 -21.937,-18.075 -27.935,-28.52Z" style="fill:#fff;"/><path d="M718.87,1282.23c0.515,-0.093 1.034,-0.2 1.557,-0.319c-1.951,12.118 -3.104,24.951 -2.527,37.178c2,42.4 19.29,66.9 47.43,67.3l0.17,0l0,-0.2c7.637,0 18.558,-6.583 29.75,-16.606c3.289,2.914 6.759,5.025 10.291,6.503c-16.362,23.208 -38.24,42.348 -53.641,41.253c-19.25,-1.42 -42.49,-18.56 -44.62,-62.18c-1.26,-25.832 5.901,-54.617 11.59,-72.929Z" style="fill:#dededd;"/><path d="M724.216,1280.84c16.348,-5.455 35.568,-22.249 52.018,-42.648c-2.786,22.178 -5.483,54.367 -2.244,80.188c3.145,24.692 10.2,39.85 18.805,48.839c-10.654,9.495 -20.775,15.6 -27.285,15.601l-0.13,0c-26.39,-0.34 -41.99,-23.03 -43.92,-63.9c-0.59,-12.517 0.677,-25.707 2.756,-38.08Z" style="fill:#fff;"/><path d="M815.687,1378.74c1.57,0.191 3.13,0.289 4.669,0.31c3.273,20.228 10.988,37.472 22.784,50.055c11.4,12.16 25.72,18.68 40.8,18.68l0.01,-0.01c1.75,0 3.52,-0.09 5.3,-0.27c16.711,-1.683 33.091,-13.205 47.592,-33.398c2.517,2.568 5.23,4.854 8.113,6.831c-11.453,21.422 -35.729,59.387 -63.925,59.387l-0.16,0c-15.24,-0.08 -30.02,-7.72 -41.64,-21.5c-16.457,-19.534 -24.653,-47.93 -23.543,-80.085Z" style="fill:#dededd;"/><path d="M823.942,1378.93l0.148,-0.01c22.899,-1.55 64.472,-25.775 92.121,-83.076c-2.552,21.617 -3.747,51.55 2.399,82.026c2.681,13.309 8.171,24.752 15.696,33.475c-11.013,15.526 -26.43,30.687 -45.416,32.615c-15.87,1.57 -31.19,-4.55 -43.14,-17.3c-11.229,-11.978 -18.608,-28.409 -21.808,-47.73Z" style="fill:#fff;"/><path d="M965.861,1445.34c5.716,19.18 16.869,34.185 31.309,41.669c6.79,3.6 14.01,5.3 21.25,5.3l0,0.3c6.04,0 12.09,-1.3 17.92,-3.8c14.486,-6.158 25.663,-25.976 34.357,-49.901c0.73,0.034 1.464,0.051 2.203,0.051l0.21,0.15c0.437,0 0.898,0 1.36,-0.012c-8.355,30.842 -21.614,66.983 -40.23,74.932c-11.3,4.83 -23.58,4.32 -34.58,-1.43c-14.98,-7.83 -26.14,-24.62 -30.58,-46.06c-1.527,-7.37 -2.557,-14.483 -3.219,-21.199Z" style="fill:#dededd;"/><path d="M965.959,1429.17c2.339,0.328 4.682,0.498 7.011,0.498l0.14,0c20.2,0 39.8,-12.37 52.5,-33.77c0.108,-0.18 0.214,-0.361 0.32,-0.542c1.297,4.998 2.77,9.659 4.44,13.852c6.585,16.551 20.136,27.251 36.49,29.364c-8.06,21.681 -18.634,40.981 -31.93,46.666c-11.8,5.03 -24.63,4.5 -36.1,-1.5c-15.47,-8.07 -26.95,-25.31 -31.5,-47.27c-0.51,-2.463 -0.966,-4.897 -1.371,-7.298Z" style="fill:#fff;"/><path d="M1066.13,1485.81c6.497,-14.104 11.831,-30.833 16.251,-47.595c8.551,-1.627 16.475,-5.443 23.317,-11.046c3.681,14.828 10.07,28.915 21.027,37.045c-8.575,16.091 -19.791,28.157 -34.167,28.331l-0.74,0c-10.437,0 -18.881,-2.671 -25.688,-6.735Z" style="fill:#fff;"/><path d="M1176.01,1401.18c-3.57,16.062 -8.971,29.802 -17.255,36.569c-4.62,3.77 -9.8,5.12 -15.8,4.1c-13.541,-2.266 -22.524,-11.604 -28.463,-23.605c5.764,-7.203 10.225,-16.018 12.923,-26.035c3.773,-14.01 6.647,-28.116 8.616,-42.279c6.027,12.457 13.662,20.897 24.018,25.738c3.251,8.704 8.277,18.268 15.961,25.512Z" style="fill:#fff;"/><path d="M1220.96,1334.46c1.743,15.758 3.543,37.315 -5.254,47.048c-3.1,3.53 -7.4,5.25 -13.1,5.25l-0.1,0c-8.948,-0.022 -16.48,-2.291 -22.544,-6.765c6.645,-0.577 13.028,-3.329 18.944,-8.185c9.901,-8.106 17.734,-21.804 22.054,-37.348Z" style="fill:#fff;"/></g><g id="Mane"><path d="M1309.55,1024.54c-12.704,20.957 -29.737,41.995 -52.352,58.485c-53.41,38.95 -95.89,50.73 -140.87,63.23c-15.16,4.2 -30.84,8.56 -47,14.03c-77.13,26.1 -96.95,56.74 -102.03,70.54l-86.006,-39.419c5.283,-0.623 11.259,-1.519 17.016,-2.811c14.2,-3.2 24.6,-12.4 35.6,-22.1c19.8,-17.4 44.3,-39.2 103.7,-38.5c95.76,0.8 177.26,-24.4 242.56,-75.2c11.538,-8.998 21.234,-18.553 29.382,-28.255Z" style="fill:#dededd;"/><path d="M896.664,560.907c-6.768,10.268 -11.359,21.713 -13.601,33.913c-28.309,16.68 -62.376,45.968 -89.473,96.97c-71.5,134.7 -65.2,275.6 -65.1,277c0.1,0.5 0.2,1 0.4,1.4c0.503,1.005 9.986,20.954 24.923,40.922c-2.647,-1.708 -5.192,-3.336 -7.573,-4.842c-19.114,-12.076 -56.667,-46.938 -66.411,-56.091c2.447,-8.242 10.466,-33.734 30.061,-83.069c9.1,-23 16.9,-47.7 24.6,-71.5c21.42,-67.1 43.57,-136.4 97.97,-189.5c25.481,-24.851 47.251,-38.426 64.204,-45.203Zm-216.835,389.272l-0.039,0.131l0.03,-0.14l0.009,0.009Z" style="fill:#fff;"/><path d="M803.175,789.836c-0.754,12.165 -1.017,24.783 -0.795,37.864c1,59.9 25.2,109 44.6,148.4c10.5,21.4 19.6,39.8 24.2,57.1c11.889,45.142 -3.44,117.935 -9.802,144.443c-5.635,-9.64 -13.374,-24.007 -14.888,-32.813c-1.2,-6.49 -1.2,-10.88 -1.2,-18.83c-0.04,-11.4 -0.1,-28.62 -3.36,-67.1c-2.03,-23.97 -10.98,-49.19 -20.46,-75.87c-17.22,-48.6 -36.77,-103.66 -23.52,-171.9c1.389,-7.148 3.154,-14.26 5.225,-21.294Z" style="fill:#dededd;"/><path d="M814.378,719.295c-3.441,12.596 -6.141,25.824 -8.107,39.708c-6.721,16.295 -12.269,33.382 -15.681,50.687c-13.6,70.2 6.2,126.2 23.8,175.7c9.3,26.2 18.1,51 20.1,74.1c3.3,38.1 3.3,55.2 3.4,66.5c0,8.1 0,12.9 1.3,20.1c1.438,7.977 7.018,19.431 12.215,28.851l-67.89,-43.056c4.859,-11.109 13.259,-42.078 11.665,-122.075c-0.49,-24.9 -4.98,-47.6 -9.33,-69.6c-7.48,-37.8 -15.23,-76.8 -4.38,-131.6c7.269,-36.716 20.042,-66.558 32.908,-89.315Zm-30.863,412.59l-0.055,0.125l0,-0.16l0.055,0.035Z" style="fill:#fff;"/><path d="M881.775,604.522c-5.445,5.8 -10.899,11.832 -16.395,18.078c-14.578,16.537 -26.587,34.983 -36.07,55.475c-20.922,26.434 -46.325,68.884 -58.2,128.735c-11.2,56.8 -3.3,96.9 4.4,135.7c4.4,22.5 8.7,43.7 9.1,67.7c0.168,8.838 0.211,17.052 0.149,24.684c-5.713,-5.503 -11.477,-11.34 -16.229,-16.744c-17.9,-20.33 -30.67,-45.75 -32.77,-50.07l-0.07,-0.19c-0.4,-10.9 -3.6,-144.6 64.4,-272.5c24.193,-45.581 54.182,-73.625 81.685,-90.868Z" style="fill:#dededd;"/><path d="M809.606,882.152c1.423,5.8 3.016,11.475 4.741,17.026c-4.509,24.523 -7.618,43.139 -8.937,51.232l-0.14,-0.058c0.362,-21.097 1.623,-44.166 4.336,-68.2Zm98.763,-335.654c-18.955,3.936 -47.163,16.678 -83.579,52.212c-56.4,54.9 -78.9,125.5 -100.7,193.8c-0.7,2.188 -1.396,4.366 -2.09,6.535c-1.405,-37.289 4.245,-80.459 20.21,-121.635c18.6,-47.98 59.1,-111.88 146.2,-143.58c40.44,-14.75 73.89,-19.4 100.02,-19.4l0.28,0.18c5.88,0 11.391,0.238 16.527,0.65c0.16,0.431 0.324,0.856 0.49,1.274c-32.156,-4.563 -64.85,3.417 -88.037,21.656c-3.324,2.613 -6.433,5.388 -9.321,8.308Z" style="fill:#dededd;"/><path d="M1002.92,507.743c-28.501,-1.839 -67.481,1.675 -116.707,19.567c-89.7,32.7 -131.3,98.4 -150.5,147.7c-18.848,48.511 -23.605,99.924 -19.437,141.803c-0.445,1.364 -0.891,2.724 -1.338,4.08c-21.573,-68.558 -8.733,-139.32 -1.235,-169.693c12.84,-51.76 43.2,-123.2 158.17,-145.76c25.1,-4.92 47.85,-6.78 67.9,-6.78l0.01,-0.07c25.448,0 46.54,3.002 62.544,6.543c0.185,0.889 0.383,1.759 0.593,2.61Z" style="fill:#fff;"/><path d="M1088.83,480.429c18.427,13.11 30.295,28.565 37.938,43.086c-12.702,-2.484 -24.734,-4.312 -36.363,-5.515c1.912,-16.032 1.114,-28.233 -1.575,-37.571Zm-87.962,13.17c-31.897,-6.532 -76.096,-9.585 -130.953,1.191c-3.789,0.746 -7.519,1.551 -11.187,2.414c31.255,-26.911 75.652,-52.058 130.217,-48.254c12.985,0.904 24.859,2.556 35.716,4.823c-3.406,1.696 -6.628,3.847 -9.556,6.427c-9.722,8.543 -14.815,20.655 -14.237,33.399Z" style="fill:#dededd;"/><path d="M1037.89,449.626c-14.232,-3.846 -30.307,-6.58 -48.465,-7.846c-63.132,-4.394 -113.043,28.326 -145.583,59.334c-12.439,3.633 -24.111,7.993 -35,13.072c8.891,-15.822 26.077,-42.742 50.553,-64.646c39.93,-35.72 139.95,-69.3 227.8,-27.9c36.35,17.13 61.57,43.28 74.95,77.7c5.411,13.932 7.682,26.494 8.629,35.134c-8.128,-2.568 -16.322,-4.827 -24.579,-6.774c-3.822,-0.894 -7.578,-1.733 -11.276,-2.519c-9.079,-18.884 -24.591,-39.87 -51.086,-56.165c-7.604,-12.133 -19.931,-16.713 -32.438,-19.116c-4.443,-0.846 -9.011,-0.922 -13.505,-0.274Z" style="fill:#fff;"/><path d="M1181.86,538.181c-0.649,-9.136 -2.79,-24.512 -9.563,-42.171c-9.87,-25.7 -31.85,-61 -80.53,-84c-19.357,-9.112 -39.132,-14.834 -58.704,-17.833c3.086,-0.15 6.208,-0.227 9.364,-0.227l0.01,0c18.37,0 37.93,2.62 58.5,8.7c72.715,21.447 101.902,94.904 113.609,148.934c-10.768,-5.041 -21.665,-9.51 -32.686,-13.403Z" style="fill:#dededd;"/><path d="M1310.44,1012.24c-9.019,12.048 -20.373,24.057 -34.665,35.187c-64,49.85 -144.159,74.67 -238.1,73.77l-2.36,0c-60.44,0 -85.74,22.33 -106.14,40.3c-10.76,9.51 -20.06,17.73 -32.5,20.53c-9.281,2.1 -19.382,3.141 -25.755,3.617c0.554,-1.354 1.226,-2.94 2.019,-4.72c4.945,-9.38 13.198,-24.132 23.659,-39.529c15.888,-20.2 39.076,-39.854 70.727,-44.138c21,-2.8 45.05,-4.63 70.5,-6.6c60.8,-4.6 129.64,-9.9 185.1,-31.1c33.982,-13.012 63.09,-28.725 87.515,-47.317Z" style="fill:#fff;"/><path d="M1382.88,923.672c-2.851,28.106 -7.778,56.576 -16.265,74.838c-30.54,65.72 -70.28,87.94 -108.7,109.42c-12.66,7.07 -24.61,13.76 -36.24,21.92c-27.96,19.63 -49.56,35.63 -65.36,47.33c-21.09,15.63 -37.68,28 -41.32,27.2c-16.783,-4.009 -47.54,-13.795 -73.497,-22.367c8.983,-4.002 19.19,-8.003 30.787,-11.923c15.9,-5.4 31.5,-9.7 46.5,-13.9c45.9,-12.7 89.3,-24.8 144.3,-64.9c40.9,-29.801 64.214,-72.536 76.985,-105.373c17.725,-18.459 31.953,-39.168 42.81,-62.245Z" style="fill:#fff;"/><path d="M1405.44,842.267c8.494,30.761 15.092,76.258 1.386,124.503c-23.95,84.35 -66.98,109.92 -112.58,136.98c-23.6,14.03 -48.02,28.53 -69.8,51.67c-37.45,39.8 -53.09,72.97 -58.07,85.35c-14.94,-5.21 -59.96,-21.27 -78.7,-32.07c-5.036,-2.908 -10.857,-6.189 -16.882,-9.544c16.54,5.206 32.16,9.858 42.542,12.354c0.58,0.1 1.18,0.2 1.82,0.2l-0.37,0.3c6.8,0 17.8,-8.1 45.5,-28.7c15.7,-11.6 37.3,-27.6 65.2,-47.2c11.4,-8 23.2,-14.6 35.7,-21.6c39.4,-22.1 80.2,-44.9 111.7,-112.7c11.342,-24.332 16.567,-64.79 18.945,-99.785c7.16,-19.932 11.378,-40.235 13.609,-59.758Z" style="fill:#dededd;"/><path d="M1407.08,786.259c19.752,30.946 37.2,69.022 40.219,109.741c4.5,61.2 -13.7,113.42 -54.2,155.2c-24.783,25.582 -55.212,44.452 -86.039,57.845c43.029,-25.716 86.311,-55.201 110.059,-138.935c19.127,-67.318 1.266,-128.104 -9.716,-155.916c0.268,-9.741 0.114,-19.108 -0.323,-27.935Z" style="fill:#fff;"/><path d="M1406.07,736.481c3.306,0.479 6.465,0.822 9.475,1.027c18.915,17.901 46.123,55.108 56.934,126.322c16.98,111.84 -18.64,168.39 -55.72,208.94c-34.552,37.788 -100.759,75.957 -174.421,80.517c10.795,-9.845 22.194,-18.028 33.721,-25.447c42.312,-13.421 87.395,-36.316 121.83,-71.85c42,-43.4 60.9,-97.4 56.2,-160.7c-3.263,-44.347 -23.094,-85.579 -44.746,-118.261c-0.617,-16.067 -1.981,-30.093 -3.273,-40.548Z" style="fill:#dededd;"/><path d="M1462.51,708.968c32.373,46.989 31.585,103.728 20.213,153.073c-10.039,-65.592 -33.258,-103.596 -52.595,-124.735c7.373,-0.84 13.384,-2.905 17.977,-6.206c7.216,-5.146 12.217,-13.097 14.405,-22.132Zm-129.495,-73.757c16.876,1.492 36.519,5.588 56.94,14.684c-15.629,1.22 -27.033,5.645 -33.85,9.105c-7.594,-8.289 -15.292,-16.22 -23.09,-23.789Z" style="fill:#fff;"/><path d="M1294.08,601.069c27.91,-5.202 93.519,-10.794 152.632,33.901c78.5,59.24 92.5,171.32 77.4,231.97c-7.682,31 -23.769,58.469 -38.037,78.266c1.755,-18.873 1.663,-39.857 -0.798,-63.35c1.011,-3.482 1.979,-7.013 2.895,-10.586c17.828,-69.541 9.339,-128.552 -24.422,-172.682c0.01,-3.266 -0.332,-6.585 -1.048,-9.888c-4.2,-19.3 -19.58,-32.8 -42,-37c-5.221,-0.972 -10.177,-1.576 -14.861,-1.882c-29.412,-15.962 -58.121,-21.239 -80.824,-22.209c-10.15,-9.451 -20.464,-18.299 -30.937,-26.54Z" style="fill:#dededd;"/><path d="M1226.73,557.558c5.758,-4.343 16.272,-11.377 31.092,-17.678c21.55,-9.2 56.95,-18.78 103.15,-12.1c97.66,14.15 153.26,52.2 169.96,116.4c10.491,40.295 10.623,86.292 4.673,124.575c-2.478,-13.447 -6,-27.073 -10.689,-40.508c-0.411,-9.22 -1.321,-18.882 -2.804,-29.037c-9.4,-65 -60.6,-141.7 -174.2,-144c-42.606,-0.879 -73.784,7.536 -95.144,17c-8.588,-5.268 -17.268,-10.153 -26.038,-14.652Z" style="fill:#dededd;"/><path d="M1260.2,576.879c20.412,-8.33 49.235,-15.418 87.572,-14.669c109.05,2.1 158.28,75.6 167.28,137.8c0.278,1.919 0.535,3.819 0.771,5.702c-13.848,-29.996 -34.185,-57.9 -62.511,-79.282c-71.024,-53.62 -148.849,-39.376 -170.473,-33.929c-7.47,-5.511 -15.017,-10.719 -22.639,-15.622Z" style="fill:#fff;"/><path d="M1221.05,548.185c-12.392,-55.554 -42.925,-130.203 -118.09,-152.385c-38.306,-11.3 -73.202,-10.995 -103.745,-4.227c-25.523,-0.077 -50.042,4 -72.084,10.641c27.05,-20.986 61.875,-38.55 101.753,-43.516c9.84,-1.22 19.27,-1.84 28.34,-1.84l0,0.14c61.4,0 106.72,28.5 155.2,95.3c21.504,29.637 32.656,57.317 38.423,78.69c-13.683,6.095 -23.681,12.646 -29.797,17.197Z" style="fill:#fff;"/></g><g id="Face"><path d="M1019.19,519.169c-3.17,-5.807 -6.281,-14.084 -6.968,-24.979c-0.62,-9.78 3.15,-18.77 10.6,-25.33c6.14,-5.39 13.92,-8.34 21.64,-8.34l-0.57,-0.63c1.9,0 3.7,0.2 5.6,0.6c19.1,3.7 37.1,11.5 29.6,61.6c-0.2,1.4 0.2,2.9 1.1,4.1c0.9,1.1 2.3,1.9 3.8,2c18.5,1.6 38.1,4.9 59.8,10c74.9,17.6 144.7,61.8 207.3,131.2c1.8,1.9 4.6,2.3 6.8,1c7.4,-4.5 28.2,-14.3 61,-8.1c18.1,3.4 30.3,13.9 33.6,28.8c2.7,12.3 -1.6,25.2 -10.3,31.4c-8,5.7 -24.4,6.1 -46.3,1.3c-1.8,-0.3 -3.6,0.2 -4.9,1.5c-1.3,1.2 -1.8,3.1 -1.4,4.9c5.9,28.6 17.1,102.4 -8.3,170.8c-25.3,68.2 -78.3,116.9 -161.8,148.8c-53.9,20.7 -122,25.8 -182,30.4c-25.6,2 -49.8,3.8 -71.1,6.7c-42.5,5.8 -70.6,35.5 -87.3,61.3c6.4,-34.5 12,-82.8 2.9,-117.4c-4.8,-18.3 -14.6,-38.2 -24.9,-59.1c-19.9,-40.4 -42.5,-86.3 -43.5,-143.8c-1.5,-85.3 18.3,-150.1 60.4,-197.8c2.632,-2.99 5.253,-5.929 7.867,-8.814c0.199,2.324 0.476,4.663 0.833,7.014c5.9,39.2 32.1,73 66.7,86.3c10.5,4 21.4,6.1 32.5,6.1l-0.2,-0.2c8.5,0 17.1,-1.2 25.8,-3.5c38,-10.3 69.7,-38 82.8,-72.2c10.7,-28 7.4,-57.7 -9.4,-83.4c-13.353,-20.516 -35.465,-35.558 -61.702,-42.221Zm6.022,356.821l0.3,-0.1c8.7,0 17.3,-4.3 24.5,-12.1c8.4,-9.1 12.9,-21 11.9,-31.1c-1.185,-11.62 -7.831,-22.015 -16.191,-30.882c0.51,-0.865 0.969,-1.766 1.371,-2.698c4.2,-9.8 1.4,-21.4 -7.7,-31.8c-10,-11.5 -25.7,-17.9 -41.9,-17.2c-9.32,0.4 -17,3.3 -20.05,7.4c-0.62,0.857 -1.187,1.696 -1.703,2.523c-16.175,-3.354 -29.626,-1.018 -39.027,6.657c-12.8,10.5 -20.3,24.4 -19.6,36.3c0.4,6.4 3.1,11.6 7.7,14.6c1.874,1.184 5.694,4.119 10.596,7.845c-6.901,11.062 -17.021,27.632 -19.396,32.975c-0.3,0.8 -0.6,1.5 -1,2.2c-4,8.5 -5.4,14.8 10,25.8c9.2,6.5 24.2,15.9 34.6,15.9l0.3,0.1c2.8,0 5.2,-0.6 7.1,-2.2c1.425,-1.128 17.35,-18.096 29.817,-33.534c10.657,5.524 20.548,9.214 28.183,9.314l0.2,0Zm200.5,-11.1c-25.8,0 -55,-9.3 -84.5,-34.1c-23.4,-19.8 -36.3,-44.3 -38.4,-72.7c-2.9,-41.4 18.9,-80.8 29.3,-92.4c40.7,-45.6 92.4,-47.6 153.5,-6.2c29.7,20.1 46.5,45.6 49.9,75.8c4.3,37.7 -13.9,76.3 -33.9,97.8c-15.5,16.7 -42.9,31.6 -75.8,31.6l-0.1,0.2Zm205.89,-153.89c-0.75,0 -1.52,-0.22 -2.16,-0.72c-1.55,-1.2 -1.84,-3.44 -0.64,-5c0.6,-0.78 2.1,-3.48 1.36,-5.4c-0.7,-1.88 -3.55,-3.4 -8.02,-4.27c-16.57,-3.3 -37.13,6 -37.33,6.1c-1.8,0.8 -3.9,0 -4.7,-1.7c-0.8,-1.8 0,-3.9 1.8,-4.7c0.9,-0.4 22.9,-10.2 41.7,-6.5c7.3,1.5 11.7,4.4 13.4,8.8c2.3,6 -1.9,11.7 -2.4,12.3c-0.7,0.9 -1.7,1.4 -2.8,1.4l-0.21,-0.31Zm-374.88,-188.46c-0.2,0 -0.4,-0.02 -0.6,-0.05c-1.93,-0.4 -3.24,-2.2 -2.92,-4.1c1.05,-6.3 2.75,-24.2 -1.92,-31.7c-2.25,-3.6 -4.58,-5.6 -6.57,-5.6c-2.5,0 -5,3 -5.5,3.9c-1,1.6 -3.2,2.1 -4.9,1.1c-1.6,-1.1 -2.1,-3.3 -1.1,-5c0.5,-0.8 4.8,-7.2 11.6,-7.2l0.1,0c4.7,0 8.9,3 12.6,8.9c6.9,11.1 3.3,34 2.9,36.6c-0.3,1.7 -1.8,3 -3.5,3l-0.19,0.15Z" style="fill:#9cd8d9;"/><path d="M966.171,847.83c7.863,5.405 16.059,10.708 24.009,15.228c-10.75,13.286 -24.21,28.507 -27.91,31.452c-1.974,1.612 -9.624,0.626 -22.754,-7.143l26.655,-39.537Zm-25.244,-18.251c5.766,4.316 12.372,9.209 19.377,14.16l-26.858,39.799c-1.409,-0.94 -2.868,-1.948 -4.376,-3.028c-11.74,-8.3 -10.48,-11 -7.72,-17c0.37,-0.8 0.74,-1.6 1.1,-2.5c1.966,-4.552 10.899,-19.27 18.477,-31.431Z" style="fill:#fff;"/><path d="M1041.08,807.533c7.112,7.719 12.593,16.493 13.531,25.957c0.8,8 -3.2,18 -10.1,25.6c-5.9,6.4 -12.8,10.1 -19.5,9.9c-20.6,-0.3 -64.2,-33.1 -85.2,-48.9c-5.3,-4.1 -9.1,-7 -11.3,-8.3c-2.6,-1.8 -4.2,-4.9 -4.5,-9c-0.5,-7.6 3.8,-19.5 16.9,-30.3c5.68,-4.67 12.92,-6.47 20.65,-6.47l0.25,-0.23c3.531,0 7.166,0.383 10.799,1.05c-1.626,5.733 -0.641,11.608 2.831,19.57c5.34,12.3 29.58,27.8 47.88,27.8l-0.13,0.2c0.5,0 1,0 1.5,-0.1c6.201,-0.253 12.002,-2.748 16.389,-6.777Z" style="fill:#fbb889;"/><path d="M999.62,756.87c-0.7,0 -1.32,0.02 -1.82,0.04c-8.56,0.4 -13.4,3 -14.58,4.6c-4.74,6.6 -5.97,11 -1.25,21.9c4.5,10.4 27.28,24.3 42.46,23.6c7.02,-0.3 13.5,-4.7 16.15,-10.9c3.12,-7.3 0.8,-15.9 -6.52,-24.3c-11.57,-13.2 -27.6,-14.8 -34.44,-14.8l0,-0.14Z" style="fill:#8c7062;"/><path d="M988.1,522.6c-24.55,0 -48.23,7.53 -65.9,21.4c-25.58,20.06 -37.4,50.48 -32.4,83.46c5.53,36.64 29.95,68.3 62.2,80.63c17.14,6.5 35.27,7.3 53.9,2.2c35.83,-9.7 65.72,-35.7 78,-67.9c6.97,-18.3 11.12,-46.6 -8.76,-77c-14.04,-21.5 -38.62,-36.6 -67.45,-41.3c-6.6,-1.1 -13.1,-1.6 -19.6,-1.6l0.01,0.11Zm6.02,36.56c0.27,15.8 -12.32,28.84 -28.12,29.1c-15.8,0.3 -28.83,-12.3 -29.1,-28.1c-0.28,-15.8 12.3,-28.84 28.1,-29.1c15.8,-0.3 28.84,12.3 29.12,28.1Zm-24.14,-11.74c0.08,4.75 -3.7,8.66 -8.45,8.75c-4.75,0.08 -8.66,-3.7 -8.75,-8.45c-0.08,-4.75 3.7,-8.67 8.45,-8.75c4.75,-0.08 8.67,3.7 8.75,8.45Z" style="fill:#fff;"/><path d="M1204.96,637.47c-25.3,0 -47.9,11.05 -67.65,33.15c-6.1,6.9 -30.4,44.14 -27.4,87.1c1.9,26.47 14,49.26 35.9,67.75c34.6,29.13 103.2,54 150.5,3.02c14.1,-15.2 36.7,-51.6 32.1,-92.2c-3.2,-28.1 -18.9,-51.9 -46.8,-70.8c-27.6,-18.8 -53.2,-28.2 -76.5,-28.2l-0.15,0.18Zm14.43,43.87c-0.3,-16.58 -14,-29.76 -30.5,-29.48c-16.56,0.29 -29.76,13.95 -29.46,30.52c0.27,16.56 13.94,29.76 30.5,29.46c16.57,-0.28 29.77,-13.94 29.47,-30.5l-0.01,0Zm-27.65,-13.59c0.08,4.74 -3.7,8.66 -8.45,8.74c-4.8,0 -8.7,-3.7 -8.8,-8.5c-0.1,-4.8 3.7,-8.7 8.4,-8.8c4.7,-0.1 8.6,3.7 8.7,8.4l0.15,0.16Z" style="fill:#fff;"/></g></svg>